<?xml version="1.0" encoding="UTF-8" standalone="no"?>
<svg
   xmlns:dc="http://purl.org/dc/elements/1.1/"
   xmlns:cc="http://creativecommons.org/ns#"
   xmlns:rdf="http://www.w3.org/1999/02/22-rdf-syntax-ns#"
   xmlns:svg="http://www.w3.org/2000/svg"
   xmlns="http://www.w3.org/2000/svg"
   viewBox="0 0 200.85001 199.08749"
   height="199.08749"
   width="200.85001"
   xml:space="preserve"
   version="1.1"
   id="svg2"><metadata
     id="metadata8"><rdf:RDF><cc:Work
         rdf:about=""><dc:format>image/svg+xml</dc:format><dc:type
           rdf:resource="http://purl.org/dc/dcmitype/StillImage" /></cc:Work></rdf:RDF></metadata><defs
     id="defs6" /><g
     transform="matrix(1.25,0,0,-1.25,0,199.0875)"
     id="g10"><g
       transform="scale(0.1,0.1)"
       id="g12"><path
         id="path14"
         style="fill:#141212;fill-opacity:1;fill-rule:nonzero;stroke:none"
         d="m 0.09375,803.41 c 1.66016,66.668 55.82035,149.168 79.16015,199.17 23.3401,50 14.1797,190.83 57.5081,247.5 43.332,56.66 113.332,93.33 113.332,93.33 0,0 50.008,106.67 136.668,130 86.66,23.33 185.82,18.33 242.492,61.67 56.668,43.33 114.695,58.85 185,57.5 130,-2.5 159.18,-55.84 232.506,-82.5 73.33,-26.67 163.34,-13.33 220,-56.67 56.66,-43.33 80,-110 80,-110 0,0 86.66,-26.67 123.33,-86.67 36.67,-60 33.33,-173.33 53.33,-230 20,-56.662 83.35,-151.631 83.34,-236.662 -0.01,-97.496 -66.66,-153.336 -80,-206.668 -13.34,-53.332 -30,-193.34 -66.67,-246.672 -36.67,-53.328 -113.33,-83.328 -113.33,-83.328 0,0 -33.34,-80 -96.67,-113.328 C 1186.76,106.738 1083.42,113.398 1033.42,96.7383 983.422,80.082 914.32,-2.85938 790.094,0.0820313 684.254,2.58203 630.094,66.7383 570.094,86.7383 510.094,106.738 414.027,100 343.422,140.082 c -61.668,35 -90,113.328 -90,113.328 0,0 -103.32,49.988 -126.66,123.328 -23.34,73.34 -3.34,133.34 -43.3401,203.34 -40,70.004 -85.74221,126.469 -83.32815,223.332" /><path
         id="path16"
         style="fill:#ffffff;fill-opacity:1;fill-rule:nonzero;stroke:none"
         d="M 629.508,1147.11 572.555,928.621 c 3.593,0.149 7.187,0.531 10.789,1.152 15.871,2.774 34.238,13.727 55.129,32.915 26.257,23.921 46.609,48.172 61.023,72.732 14.414,24.57 21.602,47.33 21.484,68.27 -0.175,43.45 -21.835,61.43 -64.988,53.94 -11.984,-2.09 -20.812,-5.61 -26.484,-10.52 z M 562.633,890.609 c -1.203,-4.339 -2.403,-9.148 -3.594,-14.449 -1.223,-5.293 -2.402,-10.254 -3.605,-14.902 -14.102,-52.949 -27.039,-96.188 -38.789,-129.672 -11.739,-33.516 -24.18,-62.363 -37.325,-86.563 -7.468,-14.648 -18.23,-30.664 -32.304,-48.027 36.437,-5.426 62.402,-8.555 77.902,-9.355 15.496,-0.789 30.906,0.14 46.219,2.789 17.726,3.09 33.41,8.586 47.043,16.527 13.633,7.93 26.425,19.133 38.406,33.613 17.629,21.493 31.945,45.926 42.961,73.262 10.976,27.336 16.453,52.93 16.336,76.742 -0.098,26.039 -8.719,46.641 -25.86,61.774 -8.445,7.437 -17.82,12.632 -28.183,15.605 -10.34,2.965 -24.656,4.457 -42.93,4.457 -16.797,0.563 -28.496,1.852 -35.097,3.86 -6.59,2.003 -13.653,6.789 -21.18,14.339 z m -196.797,-96.574 52.059,180.641 c 10.089,32.464 22.296,64.514 36.621,96.184 -1.504,-0.58 -4.961,-2.92 -10.352,-7.04 -20.691,-12.49 -35.371,-19.5 -44.043,-20.99 -12.246,-2.14 -18.379,1.72 -18.437,11.57 -0.039,10.49 4.718,26.43 14.25,47.81 9.539,21.38 19.121,37.84 28.699,49.38 21.875,25.12 55.273,47.77 100.195,67.99 44.914,20.21 95.215,35.16 150.879,44.84 33.691,5.85 64.172,8.13 91.418,6.85 27.254,-1.31 50.555,-6.22 69.852,-14.76 19.289,-8.52 34.015,-20.32 44.171,-35.37 10.157,-15.05 15.274,-32.87 15.36,-53.45 0.129,-28.85 -5.488,-55.52 -16.824,-80.01 -11.329,-24.48 -29.289,-48.69 -53.868,-72.62 -27.285,-26.322 -53.086,-45.08 -77.421,-56.279 -2.696,-1.41 -7.364,-3.176 -13.965,-5.285 l 0.008,-2.375 c 105.421,4.016 158.3,-32.91 158.632,-110.758 0.071,-15.574 -2.343,-32.211 -7.234,-49.914 -4.895,-17.711 -12.063,-35.484 -21.465,-53.336 -9.394,-17.851 -20.703,-34.609 -33.887,-50.254 -28.468,-34.531 -62.265,-67.89 -101.425,-100.16 -39.161,-32.219 -78.575,-59.59 -118.223,-82.07 -39.648,-22.457 -73.613,-36.16 -101.887,-41.078 -23.777,-4.129 -46.59,-5.25 -68.426,-3.321 -21.847,1.911 -39.257,6.43 -52.218,13.5 -12.977,7.11 -19.481,16.059 -19.52,26.84 -0.051,9.821 2.547,19.469 7.762,28.942 5.226,9.476 14.875,21.777 28.976,36.91 l -1.808,1.59 c -8.113,-4.731 -16.074,-7.774 -23.906,-9.133 -16.524,-2.867 -29.911,-0.109 -40.145,8.312 -10.246,8.418 -15.41,21.391 -15.48,38.907 -0.039,9.863 4.074,33.574 12.343,71.062 8.274,37.5 18.039,76.477 29.309,116.875" /><path
         id="path18"
         style="fill:#ffffff;fill-opacity:1;fill-rule:nonzero;stroke:none"
         d="m 951.547,883.68 6.242,17.754 c -9.934,-1.727 -18.371,-4.043 -25.273,-6.922 -6.907,-2.887 -15.02,-6.973 -24.317,-12.239 -11.445,-6.257 -19.238,-9.746 -23.457,-10.48 -5.129,-0.887 -9.347,0.418 -12.656,3.977 -3.34,3.539 -5.02,8.32 -5.051,14.335 -0.039,12.364 4.641,25.922 14.055,40.715 9.422,14.805 21.055,26.094 34.89,33.875 18.008,10.731 41.211,20.879 69.641,30.422 28.419,9.533 56.619,16.743 84.599,21.603 31.6,5.49 59.96,8.03 85.11,7.64 25.14,-0.4 47.53,-4.13 67.13,-11.21 19.61,-7.08 36.81,-17.095 51.61,-30.084 14.8,-12.996 26.24,-29.121 34.3,-48.355 8.07,-19.246 12.14,-40.453 12.24,-63.617 0.11,-20.953 -3.79,-45.121 -11.64,-72.528 -7.86,-27.429 -18.78,-54.734 -32.81,-81.941 -14.04,-27.219 -29.41,-50.859 -46.16,-70.918 -19.47,-23.398 -44.1,-44.59 -73.95,-63.598 -29.83,-19 -57.07,-30.64 -81.72,-34.918 -10.54,-1.832 -19.77,-1.461 -27.74,1.11 -7.98,2.597 -11.99,6.738 -12.01,12.469 -0.03,8.859 3.07,17.73 9.36,26.621 6.25,8.863 17.77,20.464 34.54,34.82 14.37,11.387 27.84,24.355 40.39,38.926 14.93,20.058 25.88,40.527 32.84,61.426 6.99,20.898 10.42,45 10.32,72.277 -0.12,26.008 -4.4,47.332 -12.83,63.969 -8.42,16.621 -22.08,30.449 -40.92,41.464 L 1047.1,678.09 1035.94,638.969 c -4.78,-15.449 -11.17,-41.641 -19.16,-78.61 C 1002.22,496.512 988.52,451.57 975.699,425.512 970.023,414.051 962.691,402.449 953.707,390.711 939.32,374.859 921.078,360.012 899,346.172 c -22.082,-13.84 -41.086,-22.16 -57.043,-24.934 -10.527,-1.816 -18.906,-0.027 -25.086,5.41 -6.191,5.442 -9.308,14.043 -9.367,25.801 -0.059,13 2.961,32.582 9.016,58.711 6.054,26.129 18.574,73.238 37.546,141.301 l 8.02,28.051 8.445,30.515 81.016,272.653" /><path
         id="path20"
         style="fill:none;stroke:#ffffff;stroke-width:10;stroke-linecap:butt;stroke-linejoin:miter;stroke-miterlimit:4;stroke-dasharray:none;stroke-opacity:1"
         d="m 46.5781,803.008 c 1.5625,62.801 52.5977,140.527 74.5899,187.637 21.98,47.105 13.348,179.785 54.18,233.175 40.82,53.39 106.765,87.93 106.765,87.93 0,0 47.121,100.5 128.762,122.48 81.641,21.98 175.059,17.27 228.457,58.09 53.387,40.83 108.055,55.45 174.297,54.18 122.469,-2.36 149.961,-52.61 219.051,-77.73 69.09,-25.12 153.89,-12.56 207.27,-53.38 53.38,-40.83 75.36,-103.64 75.36,-103.64 0,0 81.65,-25.12 116.2,-81.65 34.55,-56.53 31.4,-163.3 50.24,-216.69 18.84,-53.387 78.53,-142.859 78.52,-222.972 -0.01,-91.86 -62.8,-144.458 -75.37,-194.704 -12.57,-50.246 -28.26,-182.152 -62.82,-232.394 -34.54,-50.25 -106.77,-78.512 -106.77,-78.512 0,0 -31.4,-75.367 -91.07,-106.769 C 1164.58,146.641 1067.21,152.93 1020.11,137.23 973.004,121.531 907.895,43.3906 790.863,46.1602 691.148,48.5117 640.121,108.969 583.59,127.809 c -56.524,18.832 -147.024,12.492 -213.547,50.25 -58.094,32.98 -84.793,106.769 -84.793,106.769 0,0 -97.344,47.113 -119.328,116.192 -21.992,69.101 -3.152,125.621 -40.84,191.57 -37.6757,65.949 -80.7695,119.152 -78.5039,210.418 z" /><path
         id="path22"
         style="fill:#ffffff;fill-opacity:1;fill-rule:nonzero;stroke:none"
         d="m 438.305,1290.61 c 0.773,-1.07 1.574,-1.84 2.422,-2.31 0.859,-0.46 2.285,0 4.336,1.38 2.949,2.25 4.738,4.6 5.371,7.03 0.617,2.43 0.675,4.68 0.156,6.75 -0.254,0.86 -0.535,1.66 -0.879,2.41 -0.352,0.74 -0.731,1.41 -1.152,1.99 -0.352,0.5 -0.887,1.09 -1.61,1.79 -0.722,0.7 -1.64,1.32 -2.746,1.85 -1.64,0.75 -3.711,1.04 -6.211,0.88 -2.508,-0.17 -5.488,-1.44 -8.933,-3.83 -0.344,-0.24 -0.715,-0.52 -1.114,-0.84 -0.402,-0.33 -0.773,-0.65 -1.132,-0.98 l 11.492,-16.12 z m -14.883,20.89 c 0.137,0.1 0.293,0.19 0.461,0.27 0.164,0.09 0.32,0.18 0.469,0.28 0.097,0.08 0.214,0.15 0.359,0.26 0.148,0.1 0.305,0.21 0.441,0.31 3.289,2.42 5.536,4.94 6.758,7.58 1.211,2.65 0.82,5.37 -1.211,8.21 -0.344,0.48 -0.801,1.04 -1.359,1.68 -0.567,0.63 -1.211,1.2 -1.942,1.71 -1.398,0.92 -3.097,1.47 -5.109,1.66 -2.012,0.19 -4.355,-0.64 -7.031,-2.46 -1.863,-1.41 -2.703,-2.6 -2.5,-3.55 0.207,-0.96 0.676,-1.96 1.406,-2.98 l 9.258,-12.97 z m -10.352,24.57 c 0.051,0.04 0.11,0.07 0.157,0.11 0.05,0.03 0.097,0.06 0.148,0.1 1.172,0.83 2.586,1.8 4.227,2.9 1.64,1.11 3.429,2.12 5.343,3.04 3.282,1.6 6.727,2.46 10.34,2.56 3.606,0.11 6.738,-1.69 9.375,-5.41 1.75,-2.44 2.461,-4.99 2.149,-7.65 -0.313,-2.65 -1.102,-5.02 -2.352,-7.09 -0.48,-0.78 -0.969,-1.5 -1.496,-2.17 -0.516,-0.67 -1.055,-1.24 -1.602,-1.7 l 0.469,-0.66 c 0.469,0.26 0.938,0.52 1.387,0.78 0.449,0.24 0.937,0.47 1.437,0.68 3.145,1.29 6.563,1.71 10.282,1.26 3.711,-0.46 6.867,-2.52 9.472,-6.18 0.567,-0.78 1.086,-1.66 1.563,-2.65 0.48,-0.98 0.859,-2.07 1.125,-3.28 0.644,-2.86 0.273,-6.19 -1.125,-9.98 -1.387,-3.78 -4.91,-7.7 -10.574,-11.74 l -0.735,-0.52 -26.601,-18.97 -2.606,3.66 1.465,1.04 c 1.707,1.23 2.578,2.37 2.637,3.44 0.047,1.07 -0.578,2.5 -1.867,4.31 l -23.817,33.41 c -0.176,0.25 -0.293,0.41 -0.344,0.48 -0.047,0.07 -0.097,0.14 -0.136,0.18 l -0.067,-0.05 c -0.031,0.05 -0.09,0.12 -0.156,0.22 -0.07,0.09 -0.215,0.3 -0.422,0.58 -0.039,0.05 -0.066,0.11 -0.098,0.16 -0.105,0.14 -0.222,0.28 -0.351,0.41 -0.137,0.13 -0.262,0.29 -0.41,0.48 -0.477,0.47 -1.141,0.75 -1.981,0.86 -0.851,0.09 -2.051,-0.42 -3.605,-1.53 l -1.406,-0.99 -2.598,3.66 0.723,0.53 22.05,15.72" /><path
         id="path24"
         style="fill:#ffffff;fill-opacity:1;fill-rule:nonzero;stroke:none"
         d="m 499.859,1357.34 c -0.343,-2.86 0.938,-7.16 3.836,-12.88 1.934,-3.86 4.18,-7.1 6.719,-9.72 2.52,-2.62 5.274,-3.28 8.254,-1.98 2.43,1.42 3.535,3.63 3.309,6.61 -0.215,2.98 -0.957,5.97 -2.196,8.97 -0.304,0.59 -0.578,1.17 -0.832,1.75 -0.261,0.57 -0.527,1.12 -0.801,1.66 -2.8,5.58 -5.41,9.06 -7.8,10.48 -2.403,1.41 -4.473,1.88 -6.243,1.38 -0.105,-0.05 -0.234,-0.09 -0.378,-0.13 -0.157,-0.05 -0.313,-0.1 -0.469,-0.19 -1.926,-1.11 -3.067,-3.09 -3.399,-5.95 z m 5.282,-30.75 c -4.493,1.6 -8.067,4.07 -10.711,7.45 -0.539,0.66 -1.028,1.35 -1.477,2.02 -0.437,0.68 -0.84,1.37 -1.191,2.07 -0.438,0.86 -0.828,1.76 -1.18,2.73 -0.352,0.96 -0.625,1.98 -0.812,3.02 -0.879,4 -0.606,8.21 0.82,12.66 1.418,4.44 4.797,8.02 10.156,10.73 l 0.801,0.41 c 5.351,2.7 10.254,3.29 14.668,1.8 4.426,-1.5 7.98,-3.79 10.676,-6.87 0.722,-0.77 1.367,-1.58 1.933,-2.45 0.574,-0.85 1.074,-1.71 1.504,-2.57 0.32,-0.64 0.633,-1.32 0.938,-2.05 0.293,-0.72 0.535,-1.47 0.722,-2.24 1.219,-4.16 1.16,-8.55 -0.215,-13.17 -1.359,-4.62 -4.902,-8.37 -10.636,-11.27 l -0.77,-0.48 c -5.637,-2.79 -10.715,-3.39 -15.226,-1.79" /><path
         id="path26"
         style="fill:#ffffff;fill-opacity:1;fill-rule:nonzero;stroke:none"
         d="m 574.496,1391 c -0.664,-2.79 0.098,-7.22 2.324,-13.23 1.485,-4.06 3.321,-7.54 5.539,-10.43 2.215,-2.91 4.871,-3.88 7.969,-2.93 2.586,1.14 3.945,3.19 4.07,6.18 0.118,2.98 -0.261,6.05 -1.152,9.17 -0.234,0.62 -0.437,1.22 -0.633,1.83 -0.187,0.6 -0.383,1.18 -0.586,1.75 -2.148,5.85 -4.328,9.62 -6.543,11.3 -2.218,1.68 -4.23,2.39 -6.035,2.1 -0.129,-0.04 -0.246,-0.06 -0.402,-0.1 -0.156,-0.03 -0.313,-0.07 -0.477,-0.12 -2.043,-0.88 -3.41,-2.72 -4.074,-5.52 z m 1.692,-31.15 c -4.278,2.1 -7.551,4.98 -9.778,8.63 -0.457,0.73 -0.867,1.45 -1.23,2.19 -0.371,0.73 -0.684,1.46 -0.946,2.19 -0.332,0.91 -0.617,1.85 -0.851,2.86 -0.242,0.99 -0.399,2.02 -0.469,3.08 -0.398,4.06 0.352,8.23 2.285,12.48 1.926,4.25 5.703,7.42 11.328,9.48 l 0.852,0.31 c 5.625,2.06 10.555,2.09 14.773,0.09 4.219,-2 7.481,-4.68 9.805,-8.05 0.625,-0.86 1.184,-1.74 1.641,-2.66 0.468,-0.91 0.871,-1.82 1.203,-2.72 0.242,-0.68 0.476,-1.4 0.683,-2.15 0.204,-0.75 0.371,-1.53 0.469,-2.32 0.731,-4.27 0.145,-8.62 -1.738,-13.05 -1.887,-4.44 -5.852,-7.75 -11.875,-9.96 l -0.813,-0.39 c -5.945,-2.11 -11.054,-2.12 -15.339,-0.01" /><path
         id="path28"
         style="fill:#ffffff;fill-opacity:1;fill-rule:nonzero;stroke:none"
         d="m 657.914,1403.72 8.723,13.92 c 0.027,0.13 0.105,0.3 0.242,0.52 0.137,0.22 0.293,0.46 0.48,0.75 0.079,0.2 0.164,0.42 0.274,0.65 0.086,0.24 0.183,0.46 0.262,0.66 0.019,0.19 0.039,0.35 0.039,0.47 0,0.12 -0.008,0.25 -0.039,0.36 -0.118,0.59 -0.418,0.93 -0.868,1.05 -0.461,0.11 -1.093,0.09 -1.914,-0.09 l -0.664,2.98 0.879,0.2 15.02,3.32 0.672,-2.99 c -1.172,-0.31 -2.207,-0.81 -3.133,-1.47 -0.938,-0.67 -1.797,-1.52 -2.617,-2.56 -0.344,-0.38 -0.657,-0.79 -0.93,-1.22 -0.274,-0.43 -0.567,-0.9 -0.887,-1.4 l -3.39,-5.55 13.671,-16.78 c 0.071,-0.05 0.137,-0.11 0.196,-0.19 0.039,-0.08 0.097,-0.15 0.175,-0.19 1.34,-1.61 2.637,-2.79 3.918,-3.56 1.27,-0.77 2.852,-0.96 4.735,-0.61 l 0.683,-3.08 -0.878,-0.19 -20.118,-4.45 -0.683,3.07 1.32,0.3 c 0.633,0.14 1.023,0.29 1.133,0.48 0.117,0.18 0.156,0.36 0.117,0.52 l -0.078,0.36 c -0.039,0.18 -0.129,0.36 -0.254,0.55 -0.137,0.18 -0.293,0.38 -0.461,0.59 -0.019,0.05 -0.059,0.12 -0.137,0.2 -0.078,0.07 -0.164,0.16 -0.234,0.27 -0.098,0.16 -0.215,0.3 -0.332,0.43 -0.117,0.13 -0.223,0.24 -0.313,0.34 l -9.121,11.26 -3.875,-6.2 1.797,-8.18 c 0.262,-1.17 0.692,-1.92 1.278,-2.25 0.605,-0.33 1.515,-0.36 2.746,-0.08 l 1.406,0.3 0.672,-3.07 -0.867,-0.2 -20.481,-4.53 -0.683,3.08 1.406,0.31 c 1.301,0.29 2.14,0.7 2.539,1.25 0.402,0.56 0.469,1.41 0.215,2.59 l -9.727,43.93 c -0.183,0.88 -0.469,1.47 -0.84,1.75 -0.371,0.29 -0.781,0.45 -1.218,0.47 -0.188,0.02 -0.383,0.02 -0.598,0 -0.215,-0.01 -0.379,-0.03 -0.488,-0.05 l -2.02,-0.46 -0.586,2.65 0.527,0.1 c 2.918,0.65 5.313,1.97 7.149,3.94 1.836,1.97 3.066,4.16 3.711,6.58 l 2.344,0.61 0.886,0.2 9.219,-41.66" /><path
         id="path30"
         style="fill:#ffffff;fill-opacity:1;fill-rule:nonzero;stroke:none"
         d="m 810.492,1426.02 c 4.738,-0.12 8.223,0.81 10.43,2.79 2.207,1.99 3.652,4.17 4.308,6.55 0.196,0.73 0.352,1.45 0.458,2.21 0.109,0.74 0.175,1.44 0.187,2.1 0.105,4.01 -0.625,7.01 -2.199,8.92 -1.571,1.94 -3.309,3.23 -5.215,3.87 -0.828,0.33 -1.66,0.55 -2.461,0.7 -0.801,0.14 -1.531,0.22 -2.195,0.23 -1.739,-0.01 -3.028,-0.3 -3.84,-0.84 -0.828,-0.55 -1.27,-1.79 -1.317,-3.71 l -0.585,-22.76 2.429,-0.06 z m -2.929,-19.56 c -0.04,-1.86 0.304,-3.11 1.035,-3.75 0.734,-0.66 2.062,-1 3.984,-1.05 l 3.047,-0.08 -0.106,-4.49 -0.898,0.01 -29.426,0.76 0.117,4.49 1.711,-0.04 c 1.805,-0.05 3.114,0.24 3.934,0.84 0.832,0.62 1.269,1.84 1.309,3.71 l 1.113,43.36 c 0.039,1.87 -0.332,3.12 -1.121,3.77 -0.793,0.65 -2.09,0.99 -3.899,1.04 l -1.707,0.04 0.106,4.5 0.918,-0.02 27.793,-0.7 c 0.117,-0.01 0.234,-0.02 0.363,-0.02 0.117,0 0.234,0 0.359,-0.01 0.235,0 0.469,0 0.723,0.03 0.234,0.02 0.469,0 0.715,-0.06 8.699,-0.22 14.988,-2.43 18.867,-6.6 3.887,-4.19 5.801,-8.73 5.742,-13.65 -0.012,-0.06 -0.012,-0.11 -0.012,-0.14 0,-0.03 0,-0.08 0,-0.13 -0.136,-5.16 -2.312,-9.47 -6.542,-12.93 -4.227,-3.47 -11.719,-5.06 -22.442,-4.79 l -5.312,0.14 -0.371,-14.23" /><path
         id="path32"
         style="fill:#ffffff;fill-opacity:1;fill-rule:nonzero;stroke:none"
         d="m 893.188,1395.99 c -0.176,-1.18 -0.067,-2.04 0.351,-2.55 0.402,-0.51 1.074,-0.88 2.024,-1.08 0.117,-0.01 0.214,-0.03 0.312,-0.04 0.086,-0.02 0.164,0 0.234,0.05 0.118,-0.01 0.223,-0.04 0.313,-0.05 0.086,-0.01 0.183,-0.02 0.312,-0.04 l 0.887,-0.14 -0.469,-3.11 -0.886,0.13 -20.743,3.12 0.469,3.11 1.426,-0.21 c 1.355,-0.21 2.293,-0.12 2.812,0.26 0.508,0.38 0.868,1.16 1.036,2.35 l 6.687,44.49 c 0.02,0.13 0.039,0.27 0.07,0.46 0.028,0.16 0.02,0.35 -0.011,0.53 0,0.44 -0.125,0.87 -0.399,1.29 -0.273,0.44 -0.84,0.73 -1.738,0.85 l -2.051,0.32 0.41,2.67 c 2.793,-0.36 5.399,0.08 7.793,1.33 2.403,1.24 4.246,2.7 5.536,4.4 0.07,0.05 0.117,0.09 0.156,0.11 0.039,0.03 0.058,0.07 0.058,0.13 l 3.215,-0.39 0.899,-0.14 -8.703,-57.85" /><path
         id="path34"
         style="fill:#ffffff;fill-opacity:1;fill-rule:nonzero;stroke:none"
         d="m 964.262,1401.93 c 0.011,0.05 0.031,0.12 0.058,0.22 0.02,0.09 0.039,0.16 0.059,0.22 0.012,0.06 0.039,0.12 0.059,0.22 0.019,0.08 0.039,0.15 0.05,0.21 0.731,2.73 0.918,4.83 0.575,6.33 -0.352,1.48 -0.86,2.59 -1.532,3.33 -0.304,0.27 -0.597,0.5 -0.89,0.7 -0.293,0.2 -0.575,0.35 -0.868,0.42 -0.343,0.09 -0.734,0.13 -1.171,0.13 -0.442,0 -0.899,-0.08 -1.36,-0.2 -1.074,-0.28 -2.176,-1.02 -3.34,-2.23 -1.172,-1.22 -2.265,-3.3 -3.289,-6.25 l 11.649,-3.1 z m 8.886,-19.78 c -1.433,-1.23 -2.812,-2.29 -4.101,-3.19 -1.297,-0.9 -2.527,-1.66 -3.68,-2.28 -2.129,-0.99 -4.172,-1.54 -6.113,-1.63 -1.953,-0.1 -4.094,0.15 -6.406,0.77 l -0.891,0.14 c -5.789,1.6 -9.941,4.99 -12.488,10.17 -2.531,5.17 -2.969,10.87 -1.321,17.07 1.68,6.32 4.766,10.78 9.25,13.37 4.473,2.61 9.356,3.2 14.629,1.78 l 0.868,-0.22 c 5.097,-1.36 8.593,-3.89 10.46,-7.58 1.875,-3.7 2.723,-7.42 2.528,-11.15 0,-0.94 -0.059,-1.83 -0.203,-2.7 -0.149,-0.86 -0.313,-1.7 -0.539,-2.52 l -23.731,6.33 c -1.219,-4.58 -1.387,-8.81 -0.488,-12.67 0.891,-3.88 3.105,-6.38 6.66,-7.52 1.477,-0.26 2.902,-0.17 4.258,0.28 1.367,0.44 2.793,1.12 4.269,2.03 0.606,0.39 1.231,0.82 1.875,1.27 0.653,0.44 1.317,0.91 2.012,1.42 l 0.867,-0.24 2.285,-2.93" /><path
         id="path36"
         style="fill:#ffffff;fill-opacity:1;fill-rule:nonzero;stroke:none"
         d="m 1035.48,1371.36 c -3.24,0.48 -6.29,0.16 -9.13,-0.95 -2.85,-1.11 -4.75,-2.85 -5.73,-5.24 -0.55,-1.33 -0.52,-2.61 0.09,-3.83 0.6,-1.22 1.58,-2.16 2.93,-2.84 0.28,-0.11 0.56,-0.2 0.86,-0.26 0.3,-0.05 0.62,-0.08 0.93,-0.08 0.82,-0.08 1.64,-0.06 2.47,0.07 0.82,0.11 1.64,0.29 2.46,0.54 l 5.12,12.59 z m 11.83,-23.67 c -2.2,-1.12 -4.28,-1.65 -6.24,-1.63 -1.98,0.02 -3.88,0.4 -5.7,1.15 l -0.87,0.25 c -0.43,0.25 -0.92,0.5 -1.47,0.81 -0.56,0.29 -1.15,0.65 -1.75,1.09 -0.63,0.51 -1.2,1.14 -1.71,1.86 -0.52,0.73 -0.78,1.64 -0.79,2.75 -2.78,-0.48 -5.18,-0.59 -7.17,-0.33 -2.01,0.26 -3.81,0.72 -5.41,1.38 l -0.88,0.26 c -0.31,0.18 -0.64,0.37 -0.99,0.54 -0.34,0.18 -0.69,0.33 -1.01,0.47 -2.23,1.23 -4.05,2.9 -5.44,5.03 -1.41,2.13 -1.47,4.74 -0.21,7.86 1.46,3.56 4.04,5.85 7.77,6.9 3.73,1.04 7.53,1.47 11.42,1.31 1.97,-0.08 3.87,-0.29 5.68,-0.6 1.81,-0.32 3.4,-0.62 4.78,-0.93 l 2.37,5.84 c 0.78,1.94 0.86,3.41 0.19,4.39 -0.68,0.98 -1.85,1.86 -3.55,2.62 -1.31,0.46 -2.39,0.58 -3.26,0.34 -0.88,-0.22 -1.57,-0.59 -2.1,-1.09 -0.4,-0.35 -0.72,-0.7 -0.97,-1.05 -0.23,-0.36 -0.42,-0.64 -0.57,-0.83 -0.08,-0.18 -0.16,-0.32 -0.24,-0.45 -0.08,-0.13 -0.18,-0.26 -0.31,-0.41 -0.58,-0.79 -1.34,-1.45 -2.26,-1.99 -0.93,-0.53 -2.12,-0.5 -3.57,0.09 l -0.83,0.35 c -1.39,0.56 -2.27,1.39 -2.67,2.49 -0.39,1.1 -0.35,2.26 0.15,3.48 0.19,0.45 0.46,0.91 0.8,1.38 0.36,0.47 0.77,0.9 1.25,1.28 1.61,1.23 3.89,2.01 6.84,2.33 2.94,0.32 6.55,-0.39 10.84,-2.14 l 0.83,-0.34 c 4.61,-1.87 7.63,-3.89 9.04,-6.06 1.42,-2.16 2.09,-4.21 2.03,-6.12 -0.06,-0.76 -0.17,-1.5 -0.37,-2.23 -0.2,-0.72 -0.42,-1.37 -0.64,-1.93 l -7.99,-19.59 c -0.49,-1.22 -0.83,-2.38 -1.02,-3.46 -0.19,-1.1 0.11,-1.9 0.87,-2.4 0.12,-0.04 0.25,-0.07 0.42,-0.07 0.15,0 0.3,0.01 0.43,0.01 0.26,-0.03 0.51,-0.02 0.79,0.02 0.28,0.06 0.53,0.1 0.74,0.14 0.21,0.04 0.41,0.1 0.59,0.15 0.19,0.05 0.34,0.08 0.48,0.1 l 0.83,-0.35 0.85,-2.67" /><path
         id="path38"
         style="fill:#ffffff;fill-opacity:1;fill-rule:nonzero;stroke:none"
         d="m 1085.48,1338.08 c -0.27,-2.46 0.09,-4.98 1.1,-7.56 0.99,-2.59 2.74,-4.64 5.25,-6.19 2.02,-1.06 3.76,-1.53 5.25,-1.43 1.46,0.12 2.53,0.81 3.24,2.06 0.33,0.58 0.49,1.17 0.49,1.79 0,0.62 -0.13,1.31 -0.39,2.07 -0.36,0.96 -0.94,2.09 -1.76,3.4 -0.82,1.32 -1.86,2.87 -3.11,4.68 -2.1,3.02 -3.82,6.09 -5.16,9.22 -1.36,3.12 -1.09,6.36 0.77,9.71 1.56,2.78 4.01,4.55 7.4,5.31 3.37,0.76 7.24,-0.07 11.59,-2.5 l 0.78,-0.44 c 1.36,-0.75 2.81,-1.78 4.32,-3.07 1.5,-1.3 2.92,-2.86 4.23,-4.69 0.13,-0.14 0.24,-0.28 0.33,-0.44 0.08,-0.15 0.19,-0.29 0.32,-0.43 l -4.03,-7.23 -0.79,0.43 -2.36,1.32 c 0.32,1.54 0.15,3.09 -0.49,4.65 -0.65,1.56 -1.5,2.92 -2.58,4.06 -0.36,0.35 -0.73,0.69 -1.13,1.05 -0.38,0.35 -0.78,0.65 -1.2,0.88 -0.2,0.12 -0.45,0.23 -0.69,0.33 -0.25,0.11 -0.52,0.21 -0.81,0.3 -0.99,0.34 -1.98,0.49 -3,0.44 -1.02,-0.04 -1.81,-0.57 -2.36,-1.57 -0.59,-1.04 -0.71,-2.12 -0.36,-3.21 0.36,-1.09 0.94,-2.25 1.78,-3.46 0.18,-0.31 0.39,-0.63 0.64,-0.97 0.26,-0.35 0.5,-0.69 0.72,-1.02 1.14,-1.67 2.16,-3.18 3.08,-4.56 0.92,-1.37 1.71,-2.69 2.38,-3.95 1.47,-2.54 2.32,-4.88 2.58,-7.01 0.26,-2.12 -0.29,-4.4 -1.64,-6.82 -1.95,-3.5 -4.9,-5.37 -8.85,-5.62 -3.94,-0.23 -7.7,0.64 -11.27,2.63 l -0.82,0.36 c -0.28,0.23 -0.59,0.44 -0.88,0.64 -0.3,0.21 -0.63,0.41 -1,0.62 -1.49,1.03 -2.88,2.19 -4.17,3.5 -1.3,1.32 -2.44,2.57 -3.4,3.8 -0.26,0.29 -0.48,0.55 -0.69,0.8 -0.2,0.25 -0.41,0.5 -0.61,0.76 l 4.16,9.11 0.79,-0.44 2.35,-1.31" /><path
         id="path40"
         style="fill:#ffffff;fill-opacity:1;fill-rule:nonzero;stroke:none"
         d="m 1174.64,1318.71 -17.04,-22.98 c -1.21,-1.65 -2.14,-3.17 -2.75,-4.56 -0.65,-1.41 -0.31,-2.66 0.97,-3.75 0.61,-0.39 1.39,-0.76 2.35,-1.13 0.96,-0.38 1.95,-0.72 2.99,-1.04 0.75,-0.19 1.48,-0.38 2.2,-0.57 0.72,-0.2 1.42,-0.33 2.12,-0.4 0.52,-0.1 1.02,-0.18 1.49,-0.26 0.46,-0.08 0.88,-0.11 1.27,-0.1 l 10.88,14.68 c 0.56,0.77 0.8,1.4 0.68,1.9 -0.12,0.5 -0.33,0.89 -0.63,1.19 -0.09,0.08 -0.2,0.15 -0.3,0.22 -0.09,0.07 -0.18,0.14 -0.28,0.22 l -1.73,1.28 1.6,2.17 c 2.31,-1.33 4.66,-1.98 7.07,-1.94 2.42,0.04 4.87,0.56 7.34,1.57 l 0.72,-0.54 3.25,-2.41 -22.13,-29.87 c -0.72,-0.96 -0.99,-1.76 -0.86,-2.43 0.14,-0.67 0.73,-1.37 1.74,-2.12 l 1.15,-0.86 -1.88,-2.53 -0.72,0.53 -12.87,9.54 3.48,4.7 c -5.31,0.2 -9.39,0.9 -12.27,2.1 -2.89,1.2 -4.96,2.27 -6.21,3.2 l -0.78,0.45 c 0.04,0.06 0.03,0.1 -0.02,0.14 -0.33,0.25 -0.78,0.6 -1.33,1.05 -0.57,0.45 -1.09,1.01 -1.58,1.66 -0.73,0.92 -1.19,2.1 -1.35,3.53 -0.18,1.43 0.44,3.1 1.83,4.98 l 13.88,18.72 c 0.08,0.1 0.16,0.22 0.26,0.36 0.11,0.15 0.2,0.31 0.26,0.49 0.16,0.32 0.2,0.73 0.1,1.2 -0.08,0.48 -0.49,0.99 -1.22,1.53 l -1.74,1.29 1.62,2.17 c 1.51,-0.98 3.09,-1.56 4.76,-1.74 1.64,-0.19 3.2,-0.17 4.62,0.04 1.26,0.18 2.34,0.42 3.27,0.72 0.92,0.28 1.51,0.49 1.74,0.61 l 0.72,-0.54 3.33,-2.47" /><path
         id="path42"
         style="fill:#ffffff;fill-opacity:1;fill-rule:nonzero;stroke:none"
         d="m 1246.4,1255.04 c 1.98,-0.54 3.64,-1.45 4.98,-2.74 l 0.66,-0.62 c 1.51,-1.47 2.3,-3.05 2.4,-4.77 0.1,-1.72 -0.46,-3.2 -1.67,-4.45 -0.96,-1 -2.06,-1.43 -3.31,-1.3 -1.26,0.12 -2.37,0.56 -3.3,1.3 -0.05,0.04 -0.1,0.09 -0.17,0.16 -0.06,0.06 -0.12,0.12 -0.16,0.16 l -0.65,0.62 c -0.43,0.42 -0.84,0.91 -1.21,1.47 -0.36,0.57 -0.68,1.23 -0.95,1.99 -0.09,0.16 -0.17,0.37 -0.24,0.6 -0.07,0.24 -0.14,0.43 -0.23,0.61 -0.08,0.24 -0.17,0.52 -0.26,0.82 -0.1,0.29 -0.2,0.57 -0.27,0.82 -0.14,0.21 -0.24,0.42 -0.34,0.64 -0.08,0.2 -0.21,0.38 -0.39,0.56 -0.9,0.78 -1.95,1.18 -3.14,1.15 -1.19,-0.02 -2.44,-0.72 -3.78,-2.1 l -15.81,-16.39 c -0.83,-0.87 -1.22,-1.63 -1.17,-2.32 0.06,-0.67 0.53,-1.45 1.45,-2.32 l 1.03,-1 -2.19,-2.27 -0.64,0.62 -14.9,14.38 2.19,2.27 0.9,-0.88 c 0.92,-0.88 1.7,-1.33 2.38,-1.36 0.68,-0.03 1.44,0.39 2.28,1.25 l 16.48,17.1 c 0.84,0.87 1.2,1.59 1.09,2.15 -0.12,0.57 -0.4,1.06 -0.83,1.48 -0.04,0.04 -0.07,0.08 -0.09,0.1 -0.03,0.02 -0.06,0.05 -0.1,0.09 l -1.49,1.44 1.87,1.94 c 1.82,-1.67 3.85,-2.68 6.14,-3.04 2.28,-0.36 4.87,-0.15 7.79,0.61 l 0.64,-0.62 2.98,-2.87 -4.06,-4.21 c 2.08,-0.18 4.11,-0.53 6.09,-1.07" /><path
         id="path44"
         style="fill:#ffffff;fill-opacity:1;fill-rule:nonzero;stroke:none"
         d="m 1287.49,1188.93 c 0.04,0.03 0.1,0.09 0.17,0.14 0.08,0.06 0.13,0.11 0.18,0.14 0.04,0.04 0.1,0.09 0.17,0.14 0.07,0.06 0.13,0.11 0.17,0.14 2.2,1.78 3.58,3.37 4.18,4.79 0.59,1.41 0.83,2.61 0.71,3.6 -0.08,0.39 -0.18,0.76 -0.29,1.09 -0.12,0.33 -0.28,0.62 -0.45,0.85 -0.25,0.28 -0.53,0.54 -0.89,0.79 -0.36,0.25 -0.76,0.47 -1.21,0.63 -1.03,0.41 -2.36,0.46 -4.01,0.17 -1.65,-0.3 -3.77,-1.34 -6.34,-3.12 l 7.61,-9.36 z m -4.43,-21.23 c -1.89,-0.15 -3.63,-0.21 -5.2,-0.18 -1.59,0.04 -3.01,0.15 -4.32,0.33 -2.3,0.45 -4.28,1.2 -5.9,2.27 -1.64,1.06 -3.22,2.52 -4.73,4.39 l -0.64,0.64 c -3.75,4.69 -5.12,9.87 -4.13,15.55 1,5.68 3.98,10.54 8.95,14.6 5.09,4.12 10.2,5.92 15.35,5.39 5.14,-0.53 9.44,-2.91 12.89,-7.15 l 0.56,-0.7 c 3.33,-4.1 4.67,-8.19 4.02,-12.29 -0.67,-4.09 -2.17,-7.59 -4.51,-10.5 -0.55,-0.75 -1.13,-1.44 -1.75,-2.06 -0.62,-0.62 -1.25,-1.2 -1.9,-1.72 l -15.5,19.07 c -3.69,-3 -6.29,-6.32 -7.85,-9.98 -1.54,-3.66 -1.22,-6.98 0.99,-9.98 1.04,-1.09 2.24,-1.86 3.6,-2.29 1.36,-0.45 2.91,-0.73 4.65,-0.87 0.72,-0.03 1.48,-0.06 2.27,-0.07 0.78,-0.02 1.6,-0.02 2.45,-0.04 l 0.56,-0.69 0.14,-3.72" /><path
         id="path46"
         style="fill:#ffffff;fill-opacity:1;fill-rule:nonzero;stroke:none"
         d="m 1395,1081.34 -4.06,-1.92 -0.82,1.71 c -0.89,1.89 -1.78,2.97 -2.65,3.21 -0.88,0.25 -1.71,0.22 -2.5,-0.09 -0.16,-0.07 -0.33,-0.15 -0.49,-0.23 -0.17,-0.08 -0.32,-0.16 -0.49,-0.23 -0.06,-0.02 -0.1,-0.05 -0.12,-0.06 -0.03,-0.01 -0.07,-0.02 -0.12,-0.05 l -17.24,-8.18 0.03,-0.07 23.47,-7.3 c 1.55,-0.47 2.65,-0.71 3.3,-0.74 0.64,-0.03 1.15,0.04 1.53,0.23 0.65,0.31 0.92,0.74 0.81,1.33 -0.11,0.58 -0.3,1.16 -0.59,1.76 l -0.43,0.9 4.09,1.93 0.38,-0.82 8.13,-17.16 -4.07,-1.93 c -1.14,1.99 -2.47,3.51 -3.98,4.6 -1.5,1.08 -3.28,1.96 -5.33,2.65 -0.13,0 -0.26,0.02 -0.39,0.07 -0.12,0.03 -0.21,0.07 -0.29,0.1 l -12.79,3.9 -15.73,-22.09 c -0.48,-0.69 -1.02,-1.47 -1.66,-2.32 -0.6,-0.87 -1.24,-1.81 -1.87,-2.84 -0.98,-1.46 -1.84,-2.96 -2.6,-4.52 -0.76,-1.55 -1.19,-2.98 -1.3,-4.3 -0.01,-0.4 0.01,-0.79 0.06,-1.17 0.04,-0.37 0.14,-0.73 0.3,-1.05 l 0.8,-1.7 -4.07,-1.94 -0.38,0.82 -11.67,24.64 4.07,1.93 0.49,-1.05 c 0.06,-0.12 0.12,-0.23 0.18,-0.37 0.06,-0.14 0.15,-0.25 0.25,-0.33 0.22,-0.3 0.5,-0.55 0.85,-0.74 0.36,-0.2 0.81,-0.17 1.36,0.09 0.21,0.1 0.47,0.31 0.76,0.61 0.28,0.29 0.58,0.62 0.88,0.97 0.08,0.1 0.16,0.2 0.26,0.27 0.1,0.09 0.16,0.16 0.2,0.24 0.24,0.31 0.47,0.61 0.67,0.87 0.21,0.26 0.36,0.49 0.48,0.67 l 12.74,17.9 -7,2.15 -13.9,-6.58 c -0.17,-0.09 -0.33,-0.15 -0.49,-0.24 -0.17,-0.08 -0.33,-0.16 -0.49,-0.23 -0.77,-0.5 -1.36,-1.18 -1.78,-2.03 -0.42,-0.87 -0.18,-2.22 0.68,-4.07 l 0.81,-1.71 -4.07,-1.92 -0.38,0.82 -12.1,25.54 4.07,1.92 0.77,-1.62 c 1.04,-2.23 2.09,-3.36 3.1,-3.41 1.02,-0.05 2.13,0.21 3.32,0.77 l 39.2,18.57 c 1.19,0.57 2.1,1.27 2.71,2.07 0.6,0.82 0.38,2.35 -0.67,4.57 l -0.77,1.63 4.06,1.93 0.4,-0.82 12.08,-25.54" /><path
         id="path48"
         style="fill:#ffffff;fill-opacity:1;fill-rule:nonzero;stroke:none"
         d="m 1397.77,969.848 10.25,3.09 c 1.15,0.347 1.87,0.828 2.15,1.445 0.28,0.621 0.25,1.527 -0.12,2.742 l -0.42,1.375 3.03,0.906 0.26,-0.855 6.01,-19.996 -3.02,-0.91 -0.41,1.378 c -0.37,1.204 -0.84,1.993 -1.41,2.348 -0.59,0.359 -1.45,0.359 -2.59,0.02 l -27.76,-8.348 c -1.14,-0.355 -1.86,-0.832 -2.13,-1.445 -0.3,-0.618 -0.26,-1.535 0.1,-2.743 l 0.42,-1.375 -3.02,-0.91 -0.26,0.864 -6.01,19.992 3.01,0.91 0.42,-1.379 c 0.36,-1.211 0.83,-1.992 1.41,-2.348 0.59,-0.355 1.44,-0.371 2.59,-0.015 l 13.01,3.906 -4.08,13.535 -13,-3.918 c -1.16,-0.351 -1.86,-0.824 -2.15,-1.441 -0.29,-0.625 -0.25,-1.535 0.12,-2.738 l 0.41,-1.379 -3.01,-0.907 -0.26,0.864 -6.02,19.988 3.02,0.906 0.42,-1.375 c 0.36,-1.211 0.83,-1.992 1.4,-2.347 0.58,-0.36 1.44,-0.368 2.59,-0.02 l 27.75,8.344 c 1.16,0.355 1.88,0.836 2.15,1.457 0.29,0.611 0.25,1.531 -0.12,2.731 l -0.41,1.38 3.01,0.9 0.27,-0.85 6.01,-20.001 -3.02,-0.902 -0.41,1.378 c -0.37,1.2 -0.84,1.989 -1.4,2.344 -0.59,0.356 -1.45,0.371 -2.6,0.02 l -10.25,-3.086 4.07,-13.535" /><path
         id="path50"
         style="fill:#ffffff;fill-opacity:1;fill-rule:nonzero;stroke:none"
         d="m 1426.95,885.492 1.06,0.156 c 0.59,0.086 0.99,0.352 1.16,0.774 0.18,0.418 0.26,0.867 0.25,1.355 0.03,0.243 0.02,0.489 -0.01,0.723 -0.04,0.242 -0.07,0.445 -0.1,0.625 -0.01,0.059 -0.02,0.117 -0.03,0.176 l -0.21,1.426 3.11,0.468 0.13,-0.89 3.14,-20.727 -3.1,-0.48 -0.22,1.429 c -0.25,1.661 -0.65,2.59 -1.2,2.778 -0.53,0.191 -1.14,0.234 -1.78,0.133 l -1.37,-0.02 -27.23,-4.137 c -0.06,-0.011 -0.1,-0.011 -0.13,-0.019 -0.03,-0.004 -0.07,-0.008 -0.14,-0.02 -0.06,-0.012 -0.16,-0.039 -0.29,-0.094 -0.15,-0.046 -0.41,-0.132 -0.74,-0.25 -0.6,-0.085 -1.14,-0.308 -1.64,-0.656 -0.49,-0.347 -0.61,-1.351 -0.36,-3.015 l 0.22,-1.422 -3.12,-0.469 -0.14,0.887 -3.14,20.73 3.11,0.481 0.22,-1.426 c 0.18,-1.25 0.55,-2.086 1.06,-2.531 0.53,-0.426 1.38,-0.567 2.57,-0.379 l 20.29,3.082 -21.68,11.449 -1.32,-0.195 c -1.15,-0.176 -1.81,-0.547 -2.02,-1.125 -0.23,-0.586 -0.24,-1.434 -0.07,-2.555 0.04,-0.242 0.07,-0.5 0.11,-0.766 0.04,-0.265 0.08,-0.515 0.11,-0.761 l -3.1,-0.465 -0.14,0.886 -3.14,20.645 3.11,0.473 0.23,-1.426 c 0.18,-1.242 0.53,-2.082 1.06,-2.52 0.52,-0.437 1.37,-0.566 2.56,-0.39 l 28.65,4.351 c 1.19,0.188 1.97,0.563 2.33,1.133 0.37,0.574 0.46,1.481 0.27,2.727 l -0.21,1.422 3.11,0.468 0.14,-0.886 3.13,-20.645 -3.12,-0.469 -0.21,1.422 c -0.2,1.242 -0.54,2.082 -1.06,2.524 -0.53,0.441 -1.37,0.566 -2.56,0.39 l -19.32,-2.937 21.77,-11.438" /><path
         id="path52"
         style="fill:#ffffff;fill-opacity:1;fill-rule:nonzero;stroke:none"
         d="m 1400.67,806.195 -0.02,-1.527 c 0,-0.836 0.12,-1.617 0.35,-2.34 0.25,-0.723 1.02,-1.086 2.33,-1.09 l 8.82,-0.035 4.97,4.563 -12.39,6.172 c -0.12,0.062 -0.21,0.125 -0.3,0.183 -0.11,0.059 -0.2,0.125 -0.32,0.188 -0.12,0.058 -0.24,0.117 -0.36,0.175 -0.12,0.071 -0.24,0.121 -0.37,0.188 -0.23,0.113 -0.48,0.207 -0.71,0.269 -0.24,0.063 -0.48,0.094 -0.72,0.09 -0.42,0.012 -0.73,-0.066 -0.95,-0.215 -0.21,-0.156 -0.31,-0.382 -0.31,-0.675 l -0.02,-2.34 -3.15,0.008 0.01,0.91 0.09,20.515 3.15,-0.019 0,-0.266 c -0.01,-1.742 0.54,-3.269 1.64,-4.597 1.11,-1.329 2.64,-2.469 4.63,-3.438 l 18.85,-9.258 5.25,4.922 c 0.29,0.305 0.56,0.57 0.81,0.813 0.24,0.23 0.45,0.437 0.62,0.625 0.01,0.054 0.04,0.105 0.1,0.132 0.06,0.032 0.09,0.079 0.09,0.129 0.06,0.004 0.1,0.036 0.14,0.098 0.02,0.059 0.06,0.117 0.13,0.176 0.18,0.179 0.39,0.398 0.64,0.672 0.24,0.273 0.48,0.644 0.72,1.125 0.36,0.593 0.71,1.328 1.04,2.199 0.34,0.867 0.53,1.875 0.6,3.008 l 3.15,-0.012 -0.01,-0.898 -0.06,-15.477 -3.15,0.008 c 0,0.179 -0.02,0.312 -0.04,0.41 -0.04,0.09 -0.06,0.168 -0.05,0.219 0,0.062 0,0.125 0,0.179 0.01,0.071 0.01,0.129 0,0.188 0,0.652 -0.12,1.125 -0.39,1.394 -0.28,0.278 -0.58,0.442 -0.94,0.497 -0.06,0.003 -0.13,0.003 -0.18,0.003 -0.07,0 -0.31,-0.07 -0.72,-0.222 -0.43,-0.149 -1.04,-0.582 -1.82,-1.301 l -12.46,-11.375 13.4,-0.063 c 1.21,0 2.03,0.223 2.49,0.676 0.45,0.442 0.67,1.36 0.69,2.739 l 0,1.437 3.16,-0.012 -0.01,-0.902 -0.1,-20.879 -3.15,0.012 0.01,1.351 c 0,1.321 -0.21,2.239 -0.66,2.754 -0.44,0.508 -1.28,0.766 -2.47,0.774 l -13.32,0.05 12.27,-11.484 c 0.06,-0.051 0.15,-0.137 0.28,-0.273 0.3,-0.293 0.62,-0.547 0.98,-0.762 0.36,-0.215 0.79,-0.344 1.26,-0.41 0.06,0 0.12,0 0.19,0 l 0.18,0 c 0.11,0 0.21,0 0.26,0 0.07,0 0.11,0.008 0.15,0.039 0.02,0.039 0.06,0.078 0.12,0.137 0.19,0.058 0.33,0.222 0.46,0.488 0.12,0.273 0.18,0.652 0.18,1.133 0,0.058 0.01,0.117 0.01,0.175 0,0.059 -0.01,0.125 -0.01,0.176 0,0.059 0.02,0.137 0.05,0.227 0.03,0.086 0.05,0.222 0.05,0.41 l 3.15,-0.012 0,-0.898 -0.07,-15.488 -3.15,0.019 c -0.11,1.926 -0.6,3.586 -1.47,5 -0.86,1.406 -1.98,2.781 -3.36,4.109 l -5.2,4.875 -18.94,-9.101 c -1.85,-0.938 -3.38,-2.031 -4.56,-3.262 -1.17,-1.223 -1.76,-2.82 -1.77,-4.805 l 0,-0.175 -3.15,0.007 0,0.903 0.1,20.613 3.14,-0.019 c 0,-0.176 0,-0.364 0,-0.539 0,-0.184 0,-0.321 0,-0.45 0,-0.957 0.09,-1.59 0.26,-1.89 0.17,-0.305 0.54,-0.453 1.09,-0.453 0.29,0 0.53,0.031 0.7,0.089 0.19,0.059 0.33,0.149 0.46,0.262 l 0.72,0.352 0.9,0.363 12.36,6.074 -4.94,4.606 -8.81,0.039 c -1.33,0.004 -2.1,-0.36 -2.35,-1.071 -0.24,-0.718 -0.37,-1.504 -0.37,-2.343 l 0,-1.438 -3.15,0.012 0,0.898 0.09,20.977 3.16,-0.02" /><path
         id="path54"
         style="fill:#ffffff;fill-opacity:1;fill-rule:nonzero;stroke:none"
         d="m 1413.13,692.34 10.57,-1.692 c 1.19,-0.183 2.05,-0.058 2.56,0.372 0.52,0.429 0.89,1.269 1.09,2.507 l 0.22,1.426 3.12,-0.496 -0.14,-0.891 -3.29,-20.613 -3.11,0.488 0.23,1.426 c 0.2,1.25 0.12,2.156 -0.25,2.735 -0.38,0.566 -1.15,0.957 -2.33,1.14 l -28.61,4.563 c -1.19,0.195 -2.05,0.066 -2.58,-0.364 -0.52,-0.437 -0.88,-1.265 -1.07,-2.507 l -0.24,-1.426 -3.1,0.488 0.13,0.899 3.29,20.617 3.12,-0.5 -0.24,-1.426 c -0.19,-1.238 -0.1,-2.148 0.26,-2.727 0.37,-0.574 1.14,-0.945 2.32,-1.14 l 13.42,-2.141 2.23,13.945 -13.42,2.141 c -1.19,0.195 -2.04,0.066 -2.57,-0.359 -0.52,-0.434 -0.89,-1.274 -1.08,-2.524 l -0.23,-1.414 -3.1,0.496 0.13,0.891 3.29,20.613 3.11,-0.496 -0.22,-1.418 c -0.21,-1.25 -0.12,-2.148 0.24,-2.723 0.37,-0.578 1.14,-0.957 2.32,-1.152 l 28.63,-4.562 c 1.18,-0.196 2.04,-0.067 2.56,0.363 0.52,0.43 0.88,1.269 1.09,2.519 l 0.22,1.415 3.11,-0.497 -0.14,-0.886 -3.29,-20.617 -3.1,0.496 0.22,1.418 c 0.2,1.25 0.12,2.16 -0.25,2.734 -0.36,0.566 -1.14,0.957 -2.33,1.133 l -10.57,1.699 -2.22,-13.953" /><path
         id="path56"
         style="fill:#ffffff;fill-opacity:1;fill-rule:nonzero;stroke:none"
         d="m 1406.19,619.895 c -1.85,2.218 -5.83,4.25 -11.99,6.093 -4.14,1.25 -8.01,1.867 -11.66,1.828 -3.65,-0.031 -6.02,-1.574 -7.12,-4.621 -0.65,-2.754 0.19,-5.066 2.5,-6.961 2.32,-1.875 5,-3.41 8.02,-4.582 0.63,-0.183 1.25,-0.379 1.84,-0.593 0.59,-0.215 1.18,-0.403 1.76,-0.567 5.97,-1.808 10.29,-2.324 12.96,-1.562 2.68,0.761 4.45,1.953 5.32,3.574 0.04,0.105 0.08,0.234 0.15,0.359 0.07,0.141 0.14,0.305 0.19,0.473 0.53,2.168 -0.14,4.344 -1.97,6.559 z m -25.93,17.355 c 4.25,2.168 8.51,3.047 12.77,2.637 0.85,-0.078 1.68,-0.176 2.49,-0.332 0.79,-0.149 1.57,-0.332 2.33,-0.547 0.91,-0.285 1.84,-0.625 2.78,-1.035 0.95,-0.41 1.86,-0.91 2.75,-1.485 3.5,-2.129 6.37,-5.234 8.62,-9.316 2.24,-4.094 2.5,-9.004 0.77,-14.754 l -0.26,-0.871 c -1.72,-5.734 -4.67,-9.699 -8.79,-11.875 -4.14,-2.168 -8.25,-3.164 -12.33,-2.996 -1.05,0.008 -2.1,0.094 -3.1,0.281 -1.02,0.176 -2,0.398 -2.9,0.676 -0.7,0.215 -1.4,0.457 -2.13,0.73 -0.74,0.293 -1.44,0.625 -2.14,1.028 -3.86,1.968 -6.98,5.047 -9.4,9.214 -2.41,4.172 -2.68,9.336 -0.84,15.481 l 0.18,0.898 c 1.87,6.004 4.94,10.098 9.2,12.266" /><path
         id="path58"
         style="fill:#ffffff;fill-opacity:1;fill-rule:nonzero;stroke:none"
         d="m 1367.82,536.281 c 0.06,-0.031 0.12,-0.051 0.2,-0.082 0.09,-0.039 0.15,-0.078 0.21,-0.097 0.06,-0.02 0.12,-0.051 0.2,-0.09 0.08,-0.043 0.16,-0.071 0.21,-0.09 2.58,-1.152 4.63,-1.672 6.15,-1.563 1.53,0.11 2.71,0.442 3.54,0.993 0.32,0.257 0.59,0.5 0.84,0.757 0.24,0.25 0.42,0.512 0.54,0.789 0.15,0.332 0.26,0.704 0.31,1.141 0.07,0.43 0.08,0.891 0.02,1.371 -0.09,1.102 -0.66,2.309 -1.67,3.649 -1,1.339 -2.9,2.761 -5.65,4.242 l -4.9,-11.02 z m -20.94,-5.652 c -0.99,1.633 -1.82,3.141 -2.5,4.57 -0.69,1.422 -1.24,2.742 -1.68,3.992 -0.62,2.258 -0.85,4.348 -0.63,6.297 0.2,1.942 0.79,4.012 1.77,6.192 l 0.29,0.859 c 2.5,5.473 6.5,9.039 12.01,10.723 5.52,1.687 11.2,1.218 17.05,-1.403 5.98,-2.66 9.9,-6.398 11.76,-11.23 1.85,-4.84 1.67,-9.75 -0.55,-14.738 l -0.37,-0.821 c -2.15,-4.82 -5.2,-7.859 -9.14,-9.129 -3.95,-1.261 -7.75,-1.5 -11.41,-0.73 -0.92,0.16 -1.8,0.359 -2.63,0.621 -0.83,0.277 -1.64,0.578 -2.4,0.93 l 9.99,22.437 c -4.32,1.942 -8.46,2.77 -12.44,2.481 -3.95,-0.258 -6.78,-2.059 -8.46,-5.391 -0.49,-1.398 -0.62,-2.828 -0.41,-4.238 0.23,-1.422 0.67,-2.93 1.33,-4.539 0.29,-0.653 0.63,-1.332 0.97,-2.063 0.34,-0.699 0.69,-1.437 1.07,-2.187 l -0.36,-0.832 -3.26,-1.801" /><path
         id="path60"
         style="fill:#ffffff;fill-opacity:1;fill-rule:nonzero;stroke:none"
         d="m 1308.52,414.531 0.38,0.489 c 0.04,0.058 0.08,0.109 0.11,0.152 0.08,0.109 0.16,0.219 0.27,0.359 0.11,0.149 0.22,0.289 0.32,0.43 0.21,0.367 0.35,0.758 0.42,1.148 0.07,0.403 -0.1,0.762 -0.53,1.09 -0.1,0.082 -0.25,0.133 -0.42,0.199 -0.19,0.051 -0.36,0.122 -0.54,0.184 -0.05,0.039 -0.09,0.059 -0.11,0.078 -0.03,0.02 -0.08,0.02 -0.16,0.012 -0.18,0.047 -0.34,0.109 -0.5,0.148 -0.16,0.051 -0.26,0.078 -0.3,0.121 l -25.31,7.098 12.29,-17.809 c 0.06,-0.121 0.19,-0.339 0.41,-0.652 0.21,-0.308 0.47,-0.68 0.74,-1.117 0.06,-0.109 0.14,-0.231 0.24,-0.352 0.1,-0.109 0.18,-0.23 0.24,-0.339 0.26,-0.36 0.53,-0.692 0.79,-0.989 0.25,-0.301 0.51,-0.551 0.74,-0.722 l 0.07,-0.059 c 0.05,-0.039 0.11,-0.09 0.19,-0.141 0.06,-0.05 0.12,-0.097 0.17,-0.14 0.42,-0.239 0.93,-0.278 1.54,-0.129 0.59,0.14 1.42,0.922 2.47,2.308 l 0.21,0.293 2.51,-1.902 -0.54,-0.707 -8.98,-11.953 -2.52,1.902 c 1.35,2.078 1.85,3.668 1.54,4.801 -0.31,1.148 -0.84,2.219 -1.58,3.227 -0.06,0.121 -0.14,0.23 -0.24,0.351 -0.1,0.11 -0.18,0.231 -0.24,0.352 l -22.87,33.078 c -3.49,5.031 -5.32,9.101 -5.48,12.18 -0.15,3.089 0.65,5.8 2.42,8.152 l 0.47,0.769 c 2,2.559 3.93,4.008 5.81,4.348 1.88,0.371 3.44,0.109 4.66,-0.75 0.06,-0.039 0.1,-0.07 0.12,-0.078 0.03,-0.012 0.06,-0.039 0.11,-0.07 0.96,-0.731 1.51,-1.52 1.65,-2.379 0.14,-0.864 0.09,-1.653 -0.15,-2.364 -0.08,-0.316 -0.19,-0.578 -0.3,-0.789 -0.13,-0.211 -0.26,-0.41 -0.4,-0.597 l -0.62,-0.66 c -0.16,-0.321 -0.43,-0.633 -0.77,-0.883 -0.34,-0.27 -0.79,-0.5 -1.32,-0.707 -0.44,-0.192 -0.94,-0.34 -1.48,-0.461 -0.53,-0.121 -1.11,-0.192 -1.7,-0.18 -0.14,0.027 -0.29,0.039 -0.49,0.027 -0.19,-0.007 -0.39,-0.046 -0.59,-0.117 -0.34,-0.043 -0.69,-0.16 -1.05,-0.34 -0.35,-0.171 -0.68,-0.421 -0.99,-0.711 -0.31,-0.519 -0.29,-1.421 0.06,-2.699 0.35,-1.269 1.32,-3.222 2.87,-5.832 l 40.76,-11.39 c 0.13,-0.028 0.25,-0.071 0.37,-0.118 0.11,-0.05 0.24,-0.082 0.37,-0.109 1.77,-0.441 3.21,-0.492 4.29,-0.191 1.11,0.308 2.33,1.148 3.67,2.539 l 2.52,-1.891 -0.54,-0.719 -12.56,-16.691 -2.52,1.902" /><path
         id="path62"
         style="fill:#ffffff;fill-opacity:1;fill-rule:nonzero;stroke:none"
         d="m 1249.61,349.211 c 0.55,0.141 1.07,0.437 1.53,0.91 l 2.83,2.891 c 0.9,0.898 1.17,1.668 0.84,2.328 -0.31,0.66 -0.96,1.48 -1.89,2.5 -0.04,0.031 -0.1,0.09 -0.16,0.148 -0.06,0.071 -0.14,0.141 -0.23,0.231 -0.04,0.043 -0.08,0.082 -0.12,0.121 -0.05,0.039 -0.1,0.082 -0.13,0.129 -0.05,0.043 -0.09,0.09 -0.14,0.133 -0.04,0.039 -0.08,0.078 -0.12,0.109 -0.77,0.848 -1.94,2.211 -3.5,4.09 -1.57,1.871 -3.18,3.918 -4.86,6.16 -1.54,2.121 -2.98,4.18 -4.32,6.199 -1.33,2.031 -2.19,3.692 -2.58,5.012 l -0.64,0.629 -7.26,-7.379 c -0.76,-0.774 -1.14,-1.481 -1.16,-2.141 -0.01,-0.66 0.13,-1.222 0.43,-1.691 0.18,-0.238 0.33,-0.469 0.48,-0.66 0.14,-0.192 0.29,-0.34 0.42,-0.469 l 18.28,-17.992 c 0.99,-0.969 1.76,-1.379 2.3,-1.258 z m -11.01,-14.02 c 0.04,0.047 0.08,0.09 0.13,0.129 0.02,0.039 0.07,0.078 0.12,0.121 0.04,0.047 0.08,0.09 0.12,0.129 0.05,0.051 0.08,0.09 0.13,0.129 1.34,1.36 2,2.321 1.98,2.852 -0.03,0.539 -0.25,1.039 -0.68,1.558 l -0.06,0.063 -0.07,0.066 c -0.18,0.231 -0.32,0.461 -0.45,0.621 -0.13,0.18 -0.25,0.321 -0.39,0.442 l -20.52,20.199 c -0.09,0.09 -0.18,0.16 -0.27,0.25 -0.08,0.09 -0.19,0.148 -0.31,0.191 -0.56,0.391 -1.25,0.547 -2.08,0.52 -0.83,-0.02 -1.67,-0.461 -2.5,-1.32 l -2.28,-2.313 -11.19,8.371 0.62,0.653 1.9,1.918 c 4.3,-1.622 7.83,-2.219 10.6,-1.801 2.79,0.429 5.69,2.179 8.72,5.269 l 6.12,6.231 c 0.63,0.633 1.32,1.351 2.05,2.14 0.73,0.801 1.38,1.672 1.92,2.653 1.17,1.886 1.89,4.058 2.14,6.539 0.25,2.488 -0.65,5.211 -2.7,8.16 l 0.56,0.711 1.96,1.976 8.74,-10.867 -0.19,-0.191 c -1.05,-1.059 -1.67,-2.192 -1.86,-3.36 -0.17,-1.171 -0.19,-2.242 -0.05,-3.21 0.13,-0.641 0.29,-1.211 0.51,-1.711 0.22,-0.508 0.39,-0.911 0.52,-1.207 0.3,-0.641 0.74,-1.454 1.33,-2.442 0.58,-0.988 1.26,-2.07 2.02,-3.269 1.3,-2.02 2.86,-4.27 4.71,-6.762 1.84,-2.488 3.89,-4.93 6.18,-7.34 0.17,-0.16 0.32,-0.32 0.47,-0.469 0.15,-0.14 0.29,-0.281 0.42,-0.41 l 0.46,-0.441 c 1.23,-1.047 2.21,-1.571 2.97,-1.528 0.74,0.028 1.71,0.668 2.93,1.899 l 0.64,0.64 2.25,-2.21 -0.64,-0.641 -24.75,-25.16 -2.23,2.222" /><path
         id="path64"
         style="fill:#ffffff;fill-opacity:1;fill-rule:nonzero;stroke:none"
         d="m 1191.63,300.43 c -0.22,2.871 -2.3,6.851 -6.24,11.922 -2.65,3.41 -5.47,6.148 -8.47,8.238 -2.98,2.09 -5.81,2.211 -8.48,0.351 -2.12,-1.863 -2.77,-4.242 -1.98,-7.121 0.79,-2.879 2.09,-5.672 3.89,-8.379 0.4,-0.511 0.79,-1.031 1.15,-1.55 0.36,-0.52 0.73,-1.02 1.1,-1.481 3.83,-4.93 7.05,-7.859 9.67,-8.789 2.62,-0.922 4.75,-0.98 6.4,-0.16 0.08,0.078 0.2,0.16 0.35,0.219 0.13,0.058 0.26,0.152 0.41,0.269 1.68,1.449 2.41,3.61 2.2,6.481 z m -11.1,29.16 c 4.71,-0.692 8.7,-2.442 11.95,-5.238 0.65,-0.551 1.26,-1.122 1.82,-1.711 0.58,-0.582 1.11,-1.18 1.58,-1.801 0.59,-0.75 1.16,-1.57 1.68,-2.449 0.54,-0.879 0.99,-1.801 1.38,-2.801 1.63,-3.75 2.17,-7.949 1.63,-12.59 -0.55,-4.629 -3.17,-8.801 -7.92,-12.469 l -0.71,-0.562 c -4.73,-3.68 -9.42,-5.207 -14.03,-4.59 -4.62,0.621 -8.57,2.191 -11.79,4.691 -0.87,0.621 -1.66,1.301 -2.38,2.032 -0.73,0.738 -1.37,1.476 -1.97,2.238 -0.44,0.57 -0.88,1.172 -1.31,1.832 -0.43,0.648 -0.82,1.328 -1.15,2.066 -1.99,3.832 -2.77,8.153 -2.32,12.961 0.46,4.789 3.21,9.16 8.28,13.102 l 0.65,0.621 c 5.02,3.808 9.89,5.379 14.61,4.668" /><path
         id="path66"
         style="fill:#ffffff;fill-opacity:1;fill-rule:nonzero;stroke:none"
         d="m 1114.97,260.379 c -0.37,-0.199 -0.77,-0.481 -1.23,-0.828 -0.46,-0.332 -0.9,-0.731 -1.33,-1.192 -0.73,-0.777 -1.25,-1.718 -1.58,-2.808 -0.35,-1.102 -0.2,-2.41 0.42,-3.93 0.05,-0.09 0.1,-0.199 0.11,-0.289 0.03,-0.094 0.07,-0.191 0.13,-0.293 0.06,-0.109 0.12,-0.199 0.17,-0.269 0.03,-0.079 0.08,-0.168 0.14,-0.282 0.07,-0.097 0.13,-0.187 0.17,-0.269 0.05,-0.078 0.09,-0.137 0.11,-0.199 0.11,-0.071 0.19,-0.141 0.24,-0.211 0.05,-0.09 0.09,-0.161 0.12,-0.2 0.88,-1.007 1.74,-1.668 2.64,-1.937 0.9,-0.274 1.75,-0.383 2.55,-0.332 0.56,0.109 1.05,0.242 1.49,0.398 0.43,0.141 0.81,0.321 1.12,0.5 0.98,0.571 1.74,1.184 2.26,1.801 0.55,0.641 0.52,1.441 -0.05,2.422 l -5.38,9.16 -2.1,-1.242 z m -6.29,15.519 c -0.31,0.524 -0.74,0.911 -1.27,1.184 -0.55,0.277 -1.54,0.02 -2.97,-0.75 -2.35,-1.441 -3.75,-2.941 -4.21,-4.453 -0.46,-1.527 -0.48,-2.938 -0.07,-4.219 0.12,-0.57 0.29,-1.058 0.52,-1.519 0.24,-0.461 0.46,-0.86 0.67,-1.219 1.21,-2.082 2.83,-3.024 4.85,-2.852 2.02,0.18 4,0.801 5.95,1.879 0.1,0.063 0.22,0.129 0.35,0.199 0.12,0.071 0.26,0.172 0.42,0.262 l 1.87,1.09 -6.11,10.398 z m 12.14,-32.738 c -0.78,-0.461 -1.71,-1 -2.82,-1.609 -1.1,-0.61 -2.27,-1.153 -3.53,-1.602 -2.3,-0.859 -4.67,-1.179 -7.16,-0.98 -2.49,0.211 -4.6,1.793 -6.33,4.73 -0.24,0.422 -0.47,0.883 -0.66,1.383 -0.2,0.527 -0.35,1.098 -0.44,1.738 -0.15,1.168 0.17,2.571 0.92,4.2 0.76,1.621 2.35,3.441 4.8,5.429 l -0.23,0.383 c -3.11,-1.344 -5.72,-1.961 -7.82,-1.883 -2.11,0.09 -3.81,0.473 -5.12,1.172 -0.93,0.5 -1.68,1.07 -2.29,1.738 -0.58,0.661 -1.03,1.25 -1.34,1.762 -0.28,0.461 -0.57,1.16 -0.87,2.098 -0.31,0.941 -0.43,2.011 -0.38,3.23 0.07,1.77 0.78,3.762 2.11,5.981 1.34,2.218 3.93,4.449 7.76,6.699 l 0.78,0.461 21.49,12.629 1.6,-2.707 -1.25,-0.731 c -1.44,-0.851 -2.15,-1.57 -2.11,-2.191 0.04,-0.59 0.22,-1.16 0.52,-1.668 l 0.52,-1.262 13.96,-23.738 c 0.02,-0.051 0.06,-0.09 0.07,-0.121 0.01,-0.02 0.04,-0.063 0.07,-0.11 0.03,-0.05 0.1,-0.14 0.21,-0.25 0.09,-0.101 0.26,-0.312 0.49,-0.589 0.34,-0.571 0.75,-1.012 1.23,-1.313 0.49,-0.301 1.47,-0.027 2.92,0.82 l 1.25,0.731 1.59,-2.711 -0.77,-0.449 -19.17,-11.27" /><path
         id="path68"
         style="fill:#ffffff;fill-opacity:1;fill-rule:nonzero;stroke:none"
         d="m 1051.09,216.059 c 0.52,2.832 -0.48,7.211 -3,13.101 -1.7,3.981 -3.73,7.36 -6.09,10.129 -2.37,2.77 -5.06,3.609 -8.11,2.512 -2.53,-1.281 -3.78,-3.41 -3.74,-6.403 0.04,-2.968 0.59,-6 1.63,-9.089 0.27,-0.598 0.5,-1.2 0.72,-1.789 0.22,-0.59 0.44,-1.161 0.69,-1.711 2.44,-5.75 4.82,-9.387 7.12,-10.957 2.3,-1.551 4.34,-2.161 6.14,-1.782 0.11,0.051 0.24,0.09 0.39,0.121 0.16,0.028 0.31,0.09 0.47,0.149 2,0.992 3.26,2.898 3.78,5.719 z m -3.31,31.031 c 4.37,-1.871 7.78,-4.578 10.21,-8.11 0.49,-0.71 0.94,-1.41 1.34,-2.121 0.4,-0.711 0.76,-1.429 1.07,-2.14 0.37,-0.887 0.7,-1.821 1,-2.797 0.28,-0.992 0.49,-2.012 0.62,-3.07 0.62,-4.032 0.07,-8.231 -1.62,-12.582 -1.7,-4.34 -5.32,-7.7 -10.82,-10.059 l -0.83,-0.352 c -5.52,-2.347 -10.44,-2.64 -14.75,-0.871 -4.33,1.782 -7.73,4.293 -10.22,7.532 -0.67,0.82 -1.27,1.679 -1.78,2.562 -0.51,0.898 -0.96,1.789 -1.33,2.68 -0.28,0.648 -0.55,1.359 -0.81,2.097 -0.25,0.743 -0.44,1.5 -0.59,2.289 -0.94,4.223 -0.59,8.602 1.06,13.122 1.66,4.519 5.44,8.039 11.34,10.562 l 0.8,0.438 c 5.81,2.429 10.9,2.699 15.31,0.82" /><path
         id="path70"
         style="fill:#ffffff;fill-opacity:1;fill-rule:nonzero;stroke:none"
         d="m 957.535,215.621 -1.476,-0.402 c -1.211,-0.34 -1.993,-0.789 -2.364,-1.367 -0.379,-0.571 -0.41,-1.422 -0.086,-2.59 l 6.786,-24.453 c 0.039,-0.118 0.078,-0.25 0.109,-0.387 0.047,-0.152 0.117,-0.301 0.223,-0.461 0.039,-0.121 0.058,-0.191 0.078,-0.25 0.011,-0.063 0.031,-0.121 0.05,-0.18 0.008,-0.062 0.028,-0.133 0.059,-0.211 0.02,-0.09 0.039,-0.16 0.059,-0.218 0.242,-0.872 0.547,-1.481 0.925,-1.84 0.383,-0.371 0.774,-0.582 1.172,-0.66 0.254,-0.063 0.5,-0.082 0.723,-0.082 0.207,-0.008 0.383,0.011 0.488,0.039 0.176,0.05 0.313,0.089 0.391,0.121 0.098,0.019 0.207,0.019 0.332,-0.008 0.059,0.019 0.117,0.027 0.176,0.047 0.05,0.019 0.097,0.031 0.129,0.043 0.027,0.008 0.066,0.019 0.125,0.027 l 2.179,0.602 c 1.328,0.371 1.981,1.039 1.961,1.988 -0.019,0.973 -0.312,2.492 -0.898,4.57 -0.008,0.051 -0.028,0.11 -0.039,0.172 -0.02,0.059 -0.039,0.117 -0.047,0.18 l -2.766,9.98 c -0.027,0.047 -0.039,0.09 -0.039,0.117 -0.019,0.024 -0.027,0.071 -0.039,0.133 -1.394,5.028 -2.117,9.778 -2.187,14.239 -0.047,4.468 2.207,7.339 6.777,8.609 l 0.832,0.32 c 2.625,0.672 4.773,0.551 6.453,-0.359 1.692,-0.891 2.981,-2.09 3.899,-3.578 0.3,-0.41 0.554,-0.883 0.75,-1.383 0.207,-0.508 0.371,-0.981 0.5,-1.438 0.476,-1.742 0.457,-3.211 -0.098,-4.39 -0.539,-1.172 -1.281,-2.012 -2.199,-2.512 -0.145,-0.098 -0.34,-0.211 -0.567,-0.301 -0.215,-0.097 -0.418,-0.168 -0.593,-0.207 l -0.872,-0.25 c -0.164,-0.051 -0.359,-0.082 -0.574,-0.121 -0.207,-0.019 -0.402,-0.019 -0.597,-0.019 -0.79,-0.032 -1.59,0.218 -2.403,0.738 -0.801,0.519 -1.406,1.543 -1.816,3.043 -0.235,0.808 -0.301,1.457 -0.223,1.957 0.086,0.492 0.223,0.941 0.418,1.371 0.039,0.07 0.07,0.141 0.078,0.199 0.02,0.082 0.039,0.153 0.09,0.211 0.145,0.36 0.262,0.692 0.332,0.988 0.067,0.301 0.078,0.571 0.008,0.793 -0.059,0.239 -0.262,0.399 -0.606,0.489 -0.332,0.09 -0.691,0.148 -1.074,0.179 -0.058,-0.019 -0.117,-0.019 -0.176,-0.007 -0.066,0.007 -0.136,0.007 -0.183,-0.012 -1.672,-0.711 -2.559,-2.168 -2.668,-4.379 -0.098,-2.211 0.129,-4.539 0.683,-7 0.168,-1.082 0.411,-2.129 0.696,-3.18 0.281,-1.031 0.554,-1.992 0.789,-2.859 l 3.535,-12.742 c 0.039,-0.121 0.129,-0.36 0.254,-0.731 0.137,-0.359 0.293,-0.769 0.488,-1.211 0.129,-0.289 0.274,-0.566 0.41,-0.867 0.157,-0.312 0.313,-0.531 0.481,-0.672 0.508,-0.48 1.113,-0.668 1.824,-0.558 0.723,0.097 1.555,0.289 2.473,0.539 0.117,0.039 0.234,0.058 0.34,0.101 0.128,0.028 0.234,0.071 0.351,0.098 l 0.852,-3.039 -0.871,-0.238 -34.61,-9.614 -0.84,3.043 1.387,0.399 c 1.211,0.332 2.012,0.781 2.383,1.34 0.371,0.582 0.391,1.441 0.07,2.589 l -7.746,27.93 c -0.32,1.16 -0.789,1.891 -1.406,2.18 -0.613,0.293 -1.524,0.269 -2.735,-0.059 l -1.394,-0.39 -0.832,3.05 0.859,0.231 20.207,5.609 0.84,-3.039" /><path
         id="path72"
         style="fill:#ffffff;fill-opacity:1;fill-rule:nonzero;stroke:none"
         d="m 884.359,196.051 c -0.086,0.59 -0.3,1.14 -0.644,1.64 -0.332,0.5 -1.113,0.688 -2.305,0.59 -0.41,-0.062 -0.984,-0.191 -1.719,-0.39 -0.73,-0.18 -1.484,-0.481 -2.285,-0.891 -1.113,-0.648 -2.09,-1.539 -2.89,-2.68 -0.821,-1.14 -1.075,-2.699 -0.821,-4.648 0.325,-2.262 1.27,-3.981 2.864,-5.152 1.57,-1.18 3.601,-1.622 6.043,-1.34 0.175,0.019 0.371,0.05 0.578,0.082 0.203,0.019 0.398,0.047 0.574,0.07 0.41,0.129 0.812,0.227 1.191,0.309 0.383,0.078 0.743,0.199 1.075,0.379 l -1.661,12.031 z m 0.989,-31.301 c 1.707,0.23 2.683,0.719 2.879,1.449 0.207,0.723 0.253,1.473 0.136,2.242 l 0,0.079 -0.019,0.101 -0.008,0.078 -1.477,10.61 c -0.586,-0.137 -1.23,-0.27 -1.933,-0.399 -0.723,-0.129 -1.453,-0.238 -2.227,-0.359 -0.644,-0.141 -1.297,-0.27 -1.953,-0.36 -0.644,-0.082 -1.25,-0.171 -1.777,-0.25 l -0.899,-0.113 c -4.812,-0.68 -8.554,-0.207 -11.23,1.383 -2.676,1.598 -4.531,3.508 -5.567,5.73 -0.253,0.571 -0.468,1.149 -0.644,1.719 -0.176,0.59 -0.293,1.141 -0.371,1.672 -0.078,0.547 -0.078,1.316 0,2.328 0.078,1 0.383,2.102 0.957,3.27 0.801,1.679 2.324,3.34 4.57,4.949 2.266,1.609 5.774,2.742 10.528,3.41 l 0.89,0.133 22.996,3.187 0.442,-3.129 -1.438,-0.191 c -1.355,-0.18 -2.226,-0.539 -2.617,-1.051 -0.379,-0.488 -0.496,-1.347 -0.332,-2.539 l 3.945,-28.34 c 0.207,-1.55 0.508,-2.449 0.91,-2.699 0.391,-0.238 1.024,-0.371 1.875,-0.371 0.059,0.012 0.125,0.02 0.215,0.02 0.086,0.019 0.164,0.043 0.223,0.043 0.058,0.019 0.117,0.019 0.176,0.019 0.058,0.008 0.129,0.02 0.187,0.039 0.242,-0.031 0.496,-0.031 0.762,0 0.262,0.039 0.586,0.09 0.937,0.129 l 0.438,-3.109 -0.899,-0.129 -20.761,-2.891 -0.438,3.121 1.524,0.219" /><path
         id="path74"
         style="fill:#ffffff;fill-opacity:1;fill-rule:nonzero;stroke:none"
         d="m 786.781,190.551 c 2.383,2.199 4.504,3.847 6.367,4.937 1.887,1.114 3.723,1.852 5.528,2.231 0.469,0.133 0.969,0.211 1.476,0.242 0.508,0.039 1.004,0.07 1.473,0.07 l 0.91,0.098 c 6.356,0.019 11.551,-1.617 15.586,-4.93 4.031,-3.308 6.082,-7.879 6.152,-13.699 0.02,-0.719 -0.011,-1.449 -0.058,-2.211 -0.051,-0.738 -0.129,-1.508 -0.246,-2.289 -0.711,-5.051 -2.832,-9.691 -6.348,-13.941 -3.516,-4.239 -8.633,-6.411 -15.359,-6.508 l -0.899,0 c -3.664,-0.039 -6.504,0.59 -8.527,1.918 -2.02,1.332 -3.406,2.832 -4.148,4.492 -0.305,0.551 -0.528,1.09 -0.657,1.66 -0.125,0.57 -0.195,1.09 -0.195,1.578 -0.02,0.961 0.344,1.832 1.035,2.621 0.715,0.782 1.68,1.192 2.883,1.211 l 0.898,0.008 c 1.317,0.012 2.371,-0.219 3.153,-0.73 0.781,-0.5 1.418,-1.079 1.914,-1.727 0.246,-0.363 0.449,-0.703 0.597,-1.031 0.145,-0.332 0.262,-0.61 0.321,-0.852 0.07,-0.179 0.136,-0.328 0.187,-0.449 0.067,-0.121 0.125,-0.27 0.196,-0.441 0.359,-0.957 0.82,-1.778 1.335,-2.457 0.508,-0.692 1.407,-1.051 2.668,-1.102 2.332,0.211 4.09,1.422 5.262,3.621 1.172,2.211 1.926,4.598 2.258,7.188 0.105,0.839 0.184,1.66 0.223,2.48 0.058,0.801 0.078,1.602 0.07,2.391 -0.07,5.281 -1.035,9.66 -2.91,13.14 -1.875,3.5 -4.738,5.27 -8.574,5.34 -1.985,-0.14 -3.782,-0.719 -5.383,-1.73 -1.602,-1.008 -3.125,-2.18 -4.539,-3.52 l -0.899,-0.012 -1.75,2.403" /><path
         id="path76"
         style="fill:#ffffff;fill-opacity:1;fill-rule:nonzero;stroke:none"
         d="m 709.613,173.762 0.899,-0.09 2.676,-0.301 c 1.691,-3.851 3.3,-6.199 4.804,-7.031 1.504,-0.84 2.707,-1.36 3.594,-1.57 l 0.078,-0.008 c 0.488,-0.051 0.899,0.078 1.223,0.367 0.34,0.293 0.566,1.07 0.703,2.32 L 726.578,195 c 0.137,1.199 -0.039,2.039 -0.5,2.539 -0.449,0.512 -1.336,0.832 -2.644,0.981 l -1.438,0.16 0.344,3.121 0.887,-0.102 20.851,-2.25 -0.344,-3.14 -1.425,0.171 c -1.25,0.129 -2.149,0 -2.715,-0.39 -0.547,-0.391 -0.899,-1.18 -1.024,-2.391 l -3.117,-28.719 c -0.066,-0.589 0.012,-1.031 0.215,-1.32 0.215,-0.308 0.469,-0.488 0.754,-0.59 0.066,0.051 0.137,0.078 0.195,0.078 0.059,-0.007 0.117,-0.019 0.176,-0.019 0.117,-0.02 0.789,0.043 2.012,0.18 1.218,0.14 2.586,0.8 4.109,1.961 0.645,0.468 1.328,1.07 2.051,1.812 0.715,0.738 1.367,1.617 1.953,2.637 l 0.898,-0.098 2.774,-0.301 -4.539,-11.91 -0.91,0.102 -33.731,3.66 -1.797,12.59" /><path
         id="path78"
         style="fill:#ffffff;fill-opacity:1;fill-rule:nonzero;stroke:none"
         d="m 661.488,205.41 c 0.149,0.602 0.11,1.18 -0.097,1.738 -0.196,0.582 -1.094,1.082 -2.657,1.512 -2.695,0.578 -4.726,0.469 -6.121,-0.308 -1.386,-0.782 -2.375,-1.774 -2.968,-2.993 -0.305,-0.48 -0.528,-0.968 -0.676,-1.468 -0.145,-0.481 -0.274,-0.942 -0.36,-1.352 -0.558,-2.32 -0.039,-4.117 1.543,-5.398 1.571,-1.262 3.446,-2.192 5.586,-2.75 0.125,-0.032 0.242,-0.059 0.399,-0.09 0.136,-0.039 0.304,-0.082 0.48,-0.121 l 2.098,-0.489 2.773,11.719 z m -6.172,-15.539 c -0.41,0.09 -0.898,0.18 -1.464,0.25 -0.567,0.07 -1.161,0.09 -1.797,0.051 -1.055,-0.051 -2.09,-0.371 -3.086,-0.934 -0.996,-0.558 -1.797,-1.609 -2.403,-3.129 -0.019,-0.121 -0.066,-0.218 -0.117,-0.3 -0.039,-0.079 -0.086,-0.18 -0.117,-0.297 -0.027,-0.121 -0.059,-0.211 -0.066,-0.301 -0.032,-0.09 -0.051,-0.191 -0.071,-0.301 -0.039,-0.121 -0.058,-0.219 -0.078,-0.32 -0.019,-0.07 -0.039,-0.149 -0.047,-0.211 0.028,-0.141 0.039,-0.238 0.02,-0.328 -0.031,-0.09 -0.051,-0.16 -0.059,-0.231 -0.07,-1.34 0.117,-2.41 0.574,-3.218 0.45,-0.821 0.989,-1.481 1.602,-2 0.488,-0.313 0.938,-0.551 1.359,-0.743 0.418,-0.187 0.801,-0.328 1.161,-0.41 1.093,-0.258 2.062,-0.359 2.882,-0.269 0.829,0.09 1.368,0.679 1.629,1.789 l 2.442,10.34 -2.364,0.562 z m -7.695,-16.5 c -0.867,0.207 -1.922,0.469 -3.133,0.777 -1.222,0.332 -2.453,0.762 -3.683,1.301 -2.227,0.961 -4.18,2.371 -5.828,4.242 -1.661,1.879 -2.102,4.469 -1.309,7.789 0.117,0.481 0.273,0.961 0.488,1.469 0.215,0.512 0.496,1.02 0.867,1.539 0.723,0.953 1.915,1.75 3.575,2.403 1.672,0.66 4.074,0.847 7.226,0.609 l 0.098,0.441 c -3.172,1.18 -5.488,2.528 -6.953,4.039 -1.465,1.52 -2.422,2.981 -2.891,4.391 -0.32,0.988 -0.469,1.938 -0.437,2.828 0.019,0.879 0.105,1.621 0.242,2.211 0.117,0.52 0.402,1.231 0.82,2.11 0.43,0.878 1.074,1.75 1.953,2.589 1.289,1.243 3.176,2.2 5.684,2.871 2.48,0.668 5.898,0.489 10.226,-0.519 l 0.879,-0.211 24.246,-5.73 -0.711,-3.071 -1.406,0.332 c -1.633,0.391 -2.648,0.348 -3.039,-0.109 -0.379,-0.473 -0.644,-1 -0.781,-1.57 l -0.488,-1.282 -6.328,-26.8 c -0.02,-0.059 -0.028,-0.098 -0.04,-0.129 0,-0.032 -0.019,-0.071 -0.027,-0.121 -0.012,-0.059 -0.019,-0.168 -0.031,-0.329 0,-0.152 -0.02,-0.41 -0.039,-0.781 -0.156,-0.629 -0.156,-1.23 -0.02,-1.789 0.157,-0.562 1.035,-1.031 2.676,-1.422 l 1.398,-0.328 -0.714,-3.07 -0.879,0.219 -21.641,5.101" /><path
         id="path80"
         style="fill:#ffffff;fill-opacity:1;fill-rule:nonzero;stroke:none"
         d="m 562.516,206.621 -0.391,-1.012 c -0.207,-0.558 -0.176,-1.019 0.086,-1.39 0.293,-0.36 0.637,-0.649 1.066,-0.887 0.203,-0.133 0.418,-0.25 0.645,-0.344 0.223,-0.078 0.41,-0.148 0.586,-0.218 0.047,-0.02 0.105,-0.051 0.164,-0.071 l 1.348,-0.508 -1.133,-2.953 -0.84,0.332 -19.57,7.52 1.125,2.941 1.336,-0.511 c 1.574,-0.61 2.578,-0.731 3.007,-0.348 0.43,0.379 0.782,0.887 1.008,1.5 l 0.652,1.187 9.883,25.723 c 0.02,0.047 0.039,0.098 0.039,0.117 0.02,0.039 0.039,0.082 0.051,0.141 0.027,0.051 0.047,0.148 0.067,0.301 0.039,0.14 0.089,0.398 0.156,0.757 0.215,0.563 0.293,1.141 0.234,1.75 -0.058,0.59 -0.867,1.204 -2.441,1.801 l -1.348,0.512 1.133,2.937 0.84,-0.308 19.57,-7.52 -1.133,-2.949 -1.336,0.52 c -1.172,0.461 -2.082,0.558 -2.715,0.32 -0.636,-0.231 -1.171,-0.922 -1.601,-2.031 l -7.356,-19.16 20.665,13.16 0.488,1.269 c 0.41,1.071 0.41,1.84 0.019,2.313 -0.398,0.468 -1.132,0.918 -2.187,1.328 -0.223,0.082 -0.457,0.172 -0.711,0.269 -0.266,0.102 -0.5,0.18 -0.715,0.27 l 1.125,2.941 0.84,-0.32 19.5,-7.48 -1.141,-2.95 -1.34,0.52 c -1.171,0.461 -2.078,0.558 -2.714,0.32 -0.645,-0.23 -1.172,-0.922 -1.602,-2.031 L 587.484,197.32 c -0.437,-1.121 -0.496,-1.98 -0.175,-2.582 0.312,-0.609 1.054,-1.129 2.226,-1.578 l 1.36,-0.519 -1.145,-2.942 -0.84,0.321 -19.48,7.48 1.121,2.949 1.347,-0.519 c 1.172,-0.45 2.09,-0.559 2.727,-0.321 0.633,0.243 1.16,0.922 1.59,2.032 l 7.012,18.238 -20.711,-13.258" /><path
         id="path82"
         style="fill:#ffffff;fill-opacity:1;fill-rule:nonzero;stroke:none"
         d="m 491.801,249.309 c -0.028,-0.047 -0.067,-0.118 -0.106,-0.188 -0.05,-0.082 -0.07,-0.152 -0.109,-0.211 -0.039,-0.051 -0.066,-0.121 -0.117,-0.199 -0.028,-0.07 -0.078,-0.141 -0.098,-0.191 -1.348,-2.481 -2.031,-4.481 -2.039,-6.02 -0.012,-1.52 0.223,-2.719 0.703,-3.602 0.223,-0.328 0.457,-0.617 0.692,-0.886 0.234,-0.262 0.488,-0.473 0.742,-0.602 0.312,-0.18 0.683,-0.32 1.113,-0.41 0.43,-0.102 0.879,-0.141 1.367,-0.129 1.106,0.02 2.364,0.481 3.77,1.391 1.406,0.886 2.98,2.66 4.679,5.289 l -10.597,5.758 z m -3.965,21.32 c 1.68,0.859 3.262,1.57 4.746,2.133 1.465,0.558 2.844,1.019 4.113,1.359 2.293,0.438 4.403,0.488 6.328,0.129 1.915,-0.359 3.934,-1.109 6.043,-2.262 l 0.832,-0.359 c 5.235,-2.918 8.485,-7.18 9.715,-12.82 1.25,-5.618 0.332,-11.25 -2.734,-16.887 -3.125,-5.742 -7.168,-9.352 -12.137,-10.82 -4.972,-1.473 -9.844,-0.891 -14.64,1.718 l -0.789,0.43 c -4.641,2.52 -7.434,5.801 -8.379,9.832 -0.95,4.027 -0.891,7.84 0.175,11.438 0.215,0.902 0.496,1.75 0.829,2.562 0.343,0.809 0.703,1.59 1.113,2.328 l 21.582,-11.75 c 2.265,4.16 3.418,8.219 3.457,12.199 0.051,3.973 -1.524,6.922 -4.695,8.86 -1.379,0.613 -2.786,0.863 -4.211,0.761 -1.426,-0.121 -2.957,-0.441 -4.618,-0.98 -0.675,-0.23 -1.398,-0.5 -2.121,-0.781 -0.742,-0.289 -1.504,-0.598 -2.293,-0.918 l -0.793,0.429 -1.523,3.399" /><path
         id="path84"
         style="fill:#ffffff;fill-opacity:1;fill-rule:nonzero;stroke:none"
         d="m 391.508,341.488 c 0.89,0.973 1.465,1.934 1.738,2.864 0.274,0.929 -0.476,2.238 -2.266,3.929 -2.832,2.41 -5.507,3.66 -8.015,3.75 -2.512,0.078 -4.719,-0.351 -6.633,-1.281 -0.789,-0.43 -1.504,-0.891 -2.156,-1.391 -0.656,-0.5 -1.223,-1.019 -1.711,-1.55 -0.399,-0.438 -0.867,-1.098 -1.395,-1.95 -0.539,-0.859 -0.949,-1.879 -1.222,-3.089 -0.379,-1.75 -0.223,-3.84 0.468,-6.25 0.684,-2.411 2.579,-5.04 5.645,-7.899 0.324,-0.289 0.676,-0.59 1.066,-0.91 0.399,-0.32 0.789,-0.621 1.2,-0.891 l 13.281,14.668 z m -17.215,-19.019 c -0.129,0.133 -0.254,0.261 -0.371,0.402 -0.109,0.141 -0.234,0.277 -0.363,0.399 -0.086,0.082 -0.204,0.171 -0.332,0.3 -0.137,0.129 -0.274,0.239 -0.411,0.371 -3.066,2.68 -6.015,4.34 -8.847,4.969 -2.832,0.621 -5.418,-0.351 -7.754,-2.93 -0.399,-0.449 -0.848,-1.019 -1.348,-1.699 -0.496,-0.679 -0.918,-1.422 -1.258,-2.25 -0.597,-1.57 -0.773,-3.34 -0.527,-5.351 0.242,-2.008 1.543,-4.121 3.914,-6.34 1.77,-1.531 3.106,-2.078 3.996,-1.68 0.899,0.41 1.758,1.07 2.617,2.012 l 10.684,11.797 z m -21.797,-15.348 c -0.051,0.039 -0.09,0.09 -0.129,0.117 -0.039,0.051 -0.086,0.09 -0.125,0.133 -1.074,0.961 -2.324,2.141 -3.762,3.5 -1.425,1.379 -2.781,2.899 -4.101,4.578 -2.266,2.852 -3.836,6.039 -4.707,9.551 -0.879,3.5 0.207,6.941 3.281,10.328 2.012,2.211 4.336,3.453 7.004,3.723 2.664,0.25 5.145,0 7.441,-0.781 0.86,-0.301 1.668,-0.629 2.43,-1 0.762,-0.36 1.426,-0.758 2.004,-1.211 l 0.535,0.601 c -0.351,0.41 -0.703,0.801 -1.035,1.199 -0.332,0.391 -0.664,0.813 -0.984,1.262 -1.926,2.789 -3.067,6.051 -3.418,9.758 -0.352,3.723 0.976,7.262 4.004,10.601 0.644,0.7 1.386,1.399 2.246,2.079 0.867,0.679 1.843,1.293 2.968,1.8 2.657,1.231 5.985,1.59 9.989,1.039 4.004,-0.546 8.574,-3.16 13.742,-7.82 l 0.652,-0.617 24.231,-21.922 -3.028,-3.328 -1.339,1.211 c -1.551,1.398 -2.852,2.019 -3.907,1.828 -1.054,-0.168 -2.324,-1.078 -3.808,-2.73 l -27.547,-30.418 c -0.207,-0.231 -0.344,-0.372 -0.391,-0.43 -0.07,-0.07 -0.117,-0.133 -0.156,-0.184 l 0.059,-0.047 c -0.04,-0.043 -0.09,-0.113 -0.176,-0.203 -0.078,-0.09 -0.235,-0.258 -0.481,-0.539 -0.047,-0.039 -0.097,-0.078 -0.117,-0.129 -0.137,-0.129 -0.234,-0.281 -0.34,-0.429 -0.097,-0.161 -0.226,-0.321 -0.39,-0.5 -0.352,-0.571 -0.489,-1.282 -0.403,-2.121 0.09,-0.848 0.84,-1.899 2.266,-3.2 l 1.262,-1.148 -3.02,-3.34 -0.664,0.609 -20.086,18.18" /><path
         id="path86"
         style="fill:#ffffff;fill-opacity:1;fill-rule:nonzero;stroke:none"
         d="m 313.539,387.09 c 2.863,0.32 6.77,2.519 11.711,6.621 3.309,2.758 5.977,5.668 7.957,8.73 1.992,3.047 2.012,5.879 0.078,8.489 -1.933,2.05 -4.336,2.64 -7.187,1.75 -2.852,-0.891 -5.594,-2.27 -8.243,-4.16 -0.507,-0.418 -1.015,-0.821 -1.523,-1.2 -0.508,-0.379 -0.977,-0.761 -1.445,-1.14 -4.805,-3.989 -7.617,-7.309 -8.457,-9.969 -0.84,-2.641 -0.828,-4.77 0.039,-6.391 0.09,-0.09 0.156,-0.211 0.234,-0.34 0.078,-0.128 0.168,-0.269 0.274,-0.41 1.523,-1.621 3.711,-2.289 6.562,-1.98 z m 28.789,12.039 c -0.547,-4.738 -2.156,-8.77 -4.851,-12.098 -0.539,-0.691 -1.086,-1.312 -1.653,-1.91 -0.566,-0.59 -1.14,-1.121 -1.758,-1.621 -0.73,-0.609 -1.523,-1.199 -2.39,-1.762 -0.871,-0.547 -1.77,-1.047 -2.754,-1.468 -3.703,-1.75 -7.871,-2.418 -12.52,-2.032 -4.66,0.391 -8.898,2.883 -12.734,7.5 l -0.578,0.692 c -3.828,4.609 -5.508,9.25 -5.039,13.89 0.469,4.641 1.906,8.621 4.297,11.93 0.597,0.891 1.25,1.699 1.953,2.449 0.715,0.731 1.437,1.422 2.168,2.031 0.558,0.461 1.152,0.918 1.789,1.372 0.633,0.449 1.316,0.859 2.031,1.218 3.777,2.121 8.074,3.039 12.879,2.731 4.805,-0.289 9.258,-2.91 13.359,-7.84 l 0.645,-0.629 c 3.984,-4.883 5.703,-9.711 5.156,-14.453" /><path
         id="path88"
         style="fill:#ffffff;fill-opacity:1;fill-rule:nonzero;stroke:none"
         d="m 264.645,453.148 c 2.878,-0.058 7.039,1.633 12.46,5.063 3.653,2.301 6.661,4.84 9.024,7.609 2.371,2.782 2.762,5.578 1.191,8.41 -1.672,2.301 -3.965,3.18 -6.906,2.668 -2.937,-0.507 -5.848,-1.527 -8.719,-3.058 -0.558,-0.352 -1.105,-0.68 -1.652,-0.981 -0.547,-0.328 -1.082,-0.64 -1.59,-0.961 -5.273,-3.316 -8.508,-6.257 -9.68,-8.769 -1.171,-2.52 -1.425,-4.641 -0.769,-6.348 0.059,-0.101 0.117,-0.23 0.164,-0.371 0.059,-0.14 0.137,-0.289 0.234,-0.449 1.282,-1.813 3.36,-2.75 6.243,-2.813 z m 30.105,8.223 c -1.152,-4.633 -3.281,-8.43 -6.387,-11.383 -0.605,-0.597 -1.238,-1.16 -1.863,-1.668 -0.645,-0.5 -1.289,-0.961 -1.953,-1.379 -0.813,-0.519 -1.672,-1 -2.609,-1.441 -0.926,-0.441 -1.895,-0.809 -2.918,-1.102 -3.899,-1.25 -8.118,-1.386 -12.688,-0.386 -4.559,0.968 -8.437,4 -11.641,9.078 l -0.488,0.762 c -3.203,5.07 -4.277,9.878 -3.203,14.429 1.074,4.539 3.008,8.297 5.801,11.27 0.703,0.808 1.457,1.519 2.246,2.168 0.812,0.652 1.613,1.222 2.422,1.742 0.617,0.391 1.269,0.758 1.953,1.121 0.695,0.367 1.418,0.688 2.168,0.949 4.023,1.617 8.398,1.957 13.125,1.059 4.726,-0.918 8.808,-4.102 12.246,-9.52 l 0.547,-0.718 C 294.82,471 295.902,466 294.75,461.371" /><path
         id="path90"
         style="fill:#ffffff;fill-opacity:1;fill-rule:nonzero;stroke:none"
         d="m 234.594,531.941 -15.469,5.547 c -0.125,0 -0.312,0.051 -0.547,0.141 -0.242,0.09 -0.527,0.191 -0.84,0.301 -0.215,0.039 -0.449,0.082 -0.703,0.121 -0.254,0.058 -0.488,0.097 -0.691,0.14 -0.188,-0.031 -0.352,-0.05 -0.481,-0.07 -0.117,-0.031 -0.222,-0.07 -0.332,-0.109 -0.554,-0.25 -0.828,-0.621 -0.847,-1.09 -0.012,-0.461 0.156,-1.09 0.515,-1.844 l -2.781,-1.289 -0.383,0.82 -6.453,13.973 2.781,1.289 c 0.559,-1.07 1.262,-1.992 2.11,-2.75 0.851,-0.769 1.875,-1.43 3.058,-2.012 0.449,-0.25 0.918,-0.468 1.395,-0.629 0.48,-0.191 0.988,-0.378 1.543,-0.589 l 6.133,-2.121 13.496,16.941 c 0.039,0.07 0.078,0.148 0.156,0.219 0.07,0.058 0.117,0.14 0.137,0.199 1.3,1.66 2.168,3.203 2.648,4.601 0.477,1.411 0.332,2.989 -0.422,4.758 l 2.863,1.332 0.379,-0.82 8.645,-18.711 -2.863,-1.32 -0.567,1.222 c -0.281,0.59 -0.515,0.95 -0.711,1.008 -0.195,0.071 -0.383,0.071 -0.547,0 l -0.324,-0.148 c -0.156,-0.082 -0.32,-0.199 -0.488,-0.379 -0.137,-0.16 -0.301,-0.352 -0.469,-0.563 -0.058,-0.019 -0.105,-0.089 -0.176,-0.168 -0.046,-0.089 -0.117,-0.203 -0.203,-0.312 -0.136,-0.117 -0.254,-0.258 -0.351,-0.41 -0.098,-0.129 -0.196,-0.258 -0.274,-0.367 l -9.054,-11.313 6.894,-2.469 7.598,3.512 c 1.086,0.496 1.738,1.066 1.926,1.727 0.183,0.652 0.027,1.55 -0.5,2.691 l -0.606,1.309 2.863,1.32 0.371,-0.82 8.797,-19.028 -2.859,-1.32 -0.617,1.301 c -0.547,1.199 -1.133,1.929 -1.746,2.207 -0.637,0.269 -1.485,0.16 -2.571,-0.34 l -40.859,-18.867 c -0.828,-0.383 -1.328,-0.782 -1.523,-1.203 -0.215,-0.43 -0.274,-0.848 -0.204,-1.27 0.028,-0.187 0.059,-0.398 0.125,-0.598 0.059,-0.203 0.11,-0.351 0.168,-0.461 l 0.868,-1.89 -2.461,-1.129 -0.235,0.488 c -1.25,2.723 -3.027,4.781 -5.351,6.153 -2.325,1.367 -4.727,2.109 -7.227,2.218 l -1.101,2.168 -0.372,0.821 38.739,17.882" /><path
         id="path92"
         style="fill:#ffffff;fill-opacity:1;fill-rule:nonzero;stroke:none"
         d="m 180.121,676.332 c -0.898,4.656 -2.547,7.852 -4.961,9.59 -2.402,1.738 -4.844,2.668 -7.324,2.801 -0.731,0.043 -1.484,0.043 -2.234,-0.02 -0.754,-0.058 -1.457,-0.137 -2.102,-0.262 -3.953,-0.761 -6.699,-2.121 -8.25,-4.062 -1.543,-1.953 -2.441,-3.926 -2.668,-5.918 -0.137,-0.891 -0.184,-1.738 -0.156,-2.559 0.051,-0.82 0.117,-1.543 0.246,-2.199 0.391,-1.687 0.945,-2.879 1.66,-3.562 0.711,-0.696 2.012,-0.86 3.895,-0.5 l 22.355,4.308 -0.461,2.383 z m 19.727,1.316 c 1.816,0.356 2.988,0.969 3.457,1.821 0.468,0.847 0.527,2.222 0.175,4.109 l -0.585,3.008 4.425,0.84 0.164,-0.879 5.559,-28.899 -4.414,-0.847 -0.324,1.679 c -0.34,1.766 -0.887,2.989 -1.668,3.661 -0.774,0.675 -2.071,0.839 -3.899,0.492 l -42.597,-8.195 c -1.825,-0.364 -2.969,-0.989 -3.438,-1.907 -0.469,-0.918 -0.527,-2.254 -0.183,-4.019 l 0.32,-1.684 -4.422,-0.848 -0.168,0.887 -5.254,27.317 c -0.027,0.109 -0.047,0.222 -0.066,0.339 -0.02,0.129 -0.051,0.239 -0.071,0.356 -0.046,0.242 -0.105,0.469 -0.183,0.699 -0.071,0.227 -0.098,0.473 -0.09,0.715 -1.648,8.547 -0.84,15.168 2.402,19.844 3.262,4.699 7.297,7.531 12.11,8.523 0.058,0.012 0.117,0.02 0.148,0.031 0.027,0 0.067,0 0.125,0.02 5.07,0.977 9.746,-0.234 14.035,-3.621 4.285,-3.391 7.449,-10.363 9.473,-20.91 l 1.004,-5.215 13.965,2.683" /><path
         id="path94"
         style="fill:#ffffff;fill-opacity:1;fill-rule:nonzero;stroke:none"
         d="m 191.801,763.715 c 1.191,0.09 2.004,0.371 2.422,0.879 0.41,0.508 0.617,1.25 0.625,2.207 -0.008,0.129 -0.02,0.234 -0.02,0.312 -0.019,0.086 -0.047,0.176 -0.105,0.227 -0.012,0.113 -0.02,0.223 -0.02,0.308 -0.012,0.098 -0.012,0.2 -0.019,0.325 l -0.071,0.886 3.145,0.207 0.058,-0.898 1.368,-20.918 -3.145,-0.215 -0.098,1.445 c -0.078,1.375 -0.359,2.278 -0.847,2.696 -0.481,0.422 -1.321,0.586 -2.512,0.508 l -44.91,-2.93 c -0.117,0 -0.266,-0.012 -0.449,-0.031 -0.176,-0.008 -0.364,-0.047 -0.528,-0.118 -0.422,-0.085 -0.812,-0.308 -1.183,-0.664 -0.352,-0.359 -0.516,-0.984 -0.449,-1.875 l 0.117,-2.07 -2.684,-0.176 c -0.246,2.805 -1.223,5.266 -2.961,7.348 -1.726,2.066 -3.555,3.562 -5.476,4.461 -0.059,0.059 -0.11,0.098 -0.149,0.129 -0.019,0.027 -0.078,0.039 -0.137,0.027 l -0.293,3.231 -0.058,0.902 58.379,3.797" /><path
         id="path96"
         style="fill:#ffffff;fill-opacity:1;fill-rule:nonzero;stroke:none"
         d="m 170.902,831.598 c -0.058,-0.008 -0.136,0 -0.222,0.004 -0.09,0.003 -0.168,0.003 -0.227,0.011 -0.058,0 -0.137,0.008 -0.223,0.012 -0.089,0 -0.175,0 -0.226,0.004 -2.813,0.133 -4.922,-0.133 -6.309,-0.785 -1.367,-0.664 -2.351,-1.399 -2.929,-2.203 -0.203,-0.356 -0.371,-0.7 -0.508,-1.02 -0.125,-0.32 -0.203,-0.637 -0.215,-0.933 -0.02,-0.36 0.02,-0.758 0.129,-1.18 0.098,-0.422 0.262,-0.852 0.476,-1.281 0.5,-0.981 1.465,-1.911 2.891,-2.789 1.438,-0.879 3.691,-1.512 6.797,-1.891 l 0.566,12.051 z m 17.442,12.879 c 1.515,-1.141 2.844,-2.266 3.984,-3.34 1.164,-1.074 2.16,-2.11 3.02,-3.106 1.414,-1.863 2.382,-3.746 2.879,-5.636 0.527,-1.883 0.722,-4.028 0.617,-6.422 l 0.047,-0.903 c -0.332,-5.984 -2.762,-10.769 -7.286,-14.343 -4.519,-3.579 -9.988,-5.223 -16.406,-4.922 -6.531,0.3 -11.543,2.363 -15.027,6.187 -3.488,3.832 -5.109,8.461 -4.856,13.918 l 0.039,0.899 c 0.254,5.281 1.973,9.218 5.196,11.836 3.215,2.621 6.672,4.226 10.363,4.843 0.899,0.196 1.797,0.317 2.664,0.364 0.879,0.054 1.731,0.058 2.57,0.019 l -1.125,-24.543 c 4.727,-0.219 8.887,0.516 12.493,2.219 3.582,1.687 5.554,4.394 5.906,8.101 -0.047,1.497 -0.438,2.875 -1.16,4.106 -0.715,1.238 -1.692,2.48 -2.891,3.738 -0.519,0.504 -1.055,1.028 -1.633,1.563 -0.586,0.539 -1.191,1.093 -1.824,1.664 l 0.047,0.894 2.383,2.864" /><path
         id="path98"
         style="fill:#ffffff;fill-opacity:1;fill-rule:nonzero;stroke:none"
         d="m 185.699,907.727 c 0.223,-3.274 1.172,-6.18 2.852,-8.731 1.687,-2.547 3.797,-4.051 6.347,-4.488 1.415,-0.25 2.665,0.051 3.711,0.894 1.063,0.852 1.786,2.004 2.168,3.457 0.047,0.305 0.078,0.598 0.067,0.911 -0.008,0.3 -0.047,0.609 -0.117,0.925 -0.086,0.813 -0.293,1.614 -0.575,2.395 -0.293,0.777 -0.656,1.543 -1.066,2.289 l -13.387,2.348 z m 20.633,16.57 c 1.555,-1.918 2.531,-3.832 2.91,-5.77 0.391,-1.922 0.422,-3.859 0.09,-5.808 l -0.07,-0.899 c -0.137,-0.468 -0.301,-1.007 -0.469,-1.617 -0.164,-0.605 -0.398,-1.25 -0.703,-1.93 -0.371,-0.726 -0.86,-1.414 -1.465,-2.07 -0.594,-0.66 -1.434,-1.105 -2.508,-1.34 1.055,-2.629 1.68,-4.945 1.836,-6.949 0.164,-2.016 0.106,-3.879 -0.195,-5.586 l -0.07,-0.898 c -0.125,-0.352 -0.235,-0.711 -0.333,-1.082 -0.085,-0.387 -0.175,-0.754 -0.234,-1.106 -0.742,-2.433 -1.992,-4.551 -3.769,-6.383 -1.786,-1.816 -4.325,-2.433 -7.637,-1.847 -3.789,0.664 -6.582,2.703 -8.379,6.129 -1.805,3.418 -3.047,7.043 -3.719,10.879 -0.324,1.945 -0.519,3.835 -0.597,5.675 -0.079,1.848 -0.106,3.465 -0.106,4.868 l -6.203,1.089 c -2.07,0.364 -3.516,0.11 -4.344,-0.754 -0.812,-0.855 -1.418,-2.199 -1.797,-4.019 -0.175,-1.379 -0.058,-2.453 0.34,-3.266 0.41,-0.8 0.918,-1.402 1.516,-1.808 0.437,-0.325 0.847,-0.563 1.238,-0.731 0.402,-0.152 0.723,-0.285 0.938,-0.39 0.175,-0.028 0.332,-0.071 0.488,-0.125 0.137,-0.059 0.285,-0.137 0.449,-0.219 0.91,-0.406 1.719,-1 2.441,-1.793 0.704,-0.801 0.93,-1.969 0.665,-3.5 l -0.165,-0.887 c -0.253,-1.48 -0.878,-2.527 -1.867,-3.144 -0.996,-0.625 -2.148,-0.821 -3.445,-0.59 -0.469,0.086 -0.977,0.25 -1.516,0.496 -0.527,0.242 -1.035,0.562 -1.523,0.957 -1.543,1.301 -2.774,3.363 -3.711,6.18 -0.938,2.808 -1.004,6.488 -0.215,11.043 l 0.156,0.886 c 0.871,4.907 2.207,8.285 4.016,10.121 1.824,1.852 3.672,2.942 5.566,3.282 0.743,0.105 1.493,0.144 2.247,0.101 0.75,-0.039 1.425,-0.117 2.019,-0.219 l 20.832,-3.64 c 1.297,-0.238 2.508,-0.324 3.602,-0.278 1.113,0.051 1.828,0.504 2.16,1.36 0.027,0.117 0.019,0.258 -0.02,0.414 -0.031,0.164 -0.07,0.301 -0.109,0.434 -0.02,0.246 -0.067,0.5 -0.176,0.761 -0.117,0.254 -0.203,0.489 -0.293,0.696 -0.086,0.195 -0.176,0.371 -0.273,0.546 -0.086,0.164 -0.157,0.317 -0.196,0.446 l 0.157,0.886 2.441,1.399" /><path
         id="path100"
         style="fill:#ffffff;fill-opacity:1;fill-rule:nonzero;stroke:none"
         d="m 207.75,963.961 c 2.449,0.254 4.852,1.133 7.156,2.66 2.317,1.52 3.965,3.676 4.934,6.449 0.605,2.196 0.691,4.004 0.281,5.414 -0.418,1.407 -1.308,2.329 -2.683,2.75 -0.637,0.196 -1.25,0.227 -1.856,0.098 -0.605,-0.133 -1.25,-0.406 -1.945,-0.828 -0.86,-0.551 -1.844,-1.359 -2.949,-2.434 -1.102,-1.074 -2.422,-2.418 -3.915,-4.027 -2.511,-2.691 -5.148,-5.016 -7.921,-6.996 -2.762,-1.981 -5.977,-2.406 -9.657,-1.289 -3.039,0.926 -5.285,2.957 -6.738,6.105 -1.465,3.141 -1.465,7.086 -0.019,11.852 l 0.261,0.863 c 0.449,1.488 1.153,3.11 2.102,4.863 0.926,1.754 2.156,3.461 3.679,5.133 0.098,0.156 0.227,0.297 0.352,0.414 0.129,0.114 0.254,0.25 0.363,0.407 l 7.918,-2.418 -0.261,-0.864 -0.782,-2.578 c -1.574,-0.019 -3.058,-0.519 -4.445,-1.465 -1.387,-0.957 -2.539,-2.09 -3.437,-3.379 -0.254,-0.429 -0.508,-0.859 -0.77,-1.312 -0.266,-0.453 -0.469,-0.914 -0.617,-1.379 -0.059,-0.23 -0.117,-0.473 -0.164,-0.73 -0.059,-0.274 -0.098,-0.563 -0.129,-0.868 -0.125,-1.035 -0.059,-2.039 0.207,-3.023 0.262,-0.988 0.945,-1.652 2.031,-1.984 1.152,-0.348 2.227,-0.235 3.211,0.339 0.988,0.579 1.992,1.403 3.008,2.473 0.254,0.223 0.539,0.508 0.82,0.824 0.293,0.328 0.567,0.629 0.84,0.922 1.387,1.461 2.656,2.785 3.801,3.977 1.152,1.187 2.265,2.238 3.359,3.156 2.176,1.977 4.278,3.309 6.309,4.012 2.031,0.695 4.363,0.64 7,-0.168 3.847,-1.168 6.308,-3.66 7.375,-7.465 1.062,-3.809 1.004,-7.66 -0.188,-11.563 l -0.176,-0.886 c -0.156,-0.328 -0.312,-0.661 -0.437,-0.993 -0.137,-0.343 -0.266,-0.707 -0.391,-1.109 -0.695,-1.668 -1.543,-3.269 -2.55,-4.816 -1.004,-1.551 -2,-2.918 -2.997,-4.129 -0.214,-0.309 -0.441,-0.586 -0.636,-0.832 -0.196,-0.254 -0.41,-0.508 -0.606,-0.754 l -9.793,2.129 0.274,0.863 0.781,2.586" /><path
         id="path102"
         style="fill:#ffffff;fill-opacity:1;fill-rule:nonzero;stroke:none"
         d="m 207.641,1054.89 26.086,-11.77 c 1.863,-0.83 3.543,-1.42 5.046,-1.73 1.497,-0.32 2.657,0.27 3.457,1.75 0.235,0.68 0.442,1.53 0.598,2.54 0.164,1.01 0.281,2.06 0.379,3.14 0.02,0.78 0.051,1.54 0.09,2.29 0.039,0.73 0.008,1.44 -0.07,2.14 -0.02,0.54 -0.039,1.04 -0.059,1.5 -0.02,0.48 -0.078,0.9 -0.176,1.27 l -16.66,7.51 c -0.859,0.39 -1.543,0.48 -1.992,0.26 -0.469,-0.22 -0.809,-0.5 -1.035,-0.86 -0.059,-0.12 -0.098,-0.22 -0.157,-0.33 -0.046,-0.12 -0.085,-0.22 -0.144,-0.33 l -0.891,-1.97 -2.461,1.1 c 0.813,2.54 0.95,4.98 0.391,7.33 -0.547,2.36 -1.582,4.63 -3.086,6.83 l 0.363,0.82 1.668,3.69 33.887,-15.27 c 1.094,-0.5 1.945,-0.61 2.57,-0.32 0.614,0.27 1.18,0.99 1.707,2.15 l 0.586,1.3 2.883,-1.29 -0.371,-0.82 -6.582,-14.61 -5.344,2.41 c 0.938,-5.23 1.125,-9.38 0.567,-12.45 -0.567,-3.06 -1.161,-5.31 -1.797,-6.73 l -0.293,-0.86 c -0.059,0.02 -0.098,0.01 -0.117,-0.05 -0.176,-0.38 -0.43,-0.9 -0.75,-1.55 -0.325,-0.64 -0.754,-1.26 -1.289,-1.87 -0.754,-0.92 -1.797,-1.61 -3.157,-2.08 -1.367,-0.48 -3.125,-0.23 -5.254,0.73 l -21.25,9.58 c -0.105,0.05 -0.242,0.11 -0.41,0.18 -0.156,0.08 -0.34,0.12 -0.527,0.15 -0.352,0.08 -0.75,0.04 -1.199,-0.15 -0.45,-0.2 -0.86,-0.7 -1.231,-1.53 l -0.89,-1.97 -2.461,1.11 c 0.636,1.69 0.859,3.38 0.683,5.03 -0.164,1.66 -0.515,3.16 -1.035,4.51 -0.437,1.19 -0.906,2.2 -1.387,3.04 -0.468,0.84 -0.8,1.36 -0.964,1.58 l 0.371,0.82 1.707,3.78" /><path
         id="path104"
         style="fill:#ffffff;fill-opacity:1;fill-rule:nonzero;stroke:none"
         d="m 254.586,1138.64 c 0.105,2.05 0.644,3.88 1.629,5.46 l 0.469,0.76 c 1.093,1.78 2.472,2.91 4.132,3.37 1.661,0.47 3.223,0.23 4.707,-0.68 1.18,-0.73 1.844,-1.71 1.981,-2.96 0.148,-1.25 -0.047,-2.42 -0.574,-3.51 -0.032,-0.05 -0.071,-0.11 -0.129,-0.19 -0.039,-0.07 -0.078,-0.13 -0.106,-0.19 l -0.48,-0.77 c -0.301,-0.51 -0.703,-1.01 -1.18,-1.49 -0.469,-0.49 -1.047,-0.94 -1.73,-1.35 -0.145,-0.13 -0.332,-0.25 -0.547,-0.37 -0.215,-0.11 -0.379,-0.23 -0.528,-0.35 -0.234,-0.15 -0.476,-0.29 -0.75,-0.44 -0.265,-0.15 -0.519,-0.3 -0.742,-0.43 -0.187,-0.18 -0.363,-0.34 -0.558,-0.47 -0.176,-0.12 -0.332,-0.3 -0.457,-0.51 -0.578,-1.04 -0.735,-2.15 -0.461,-3.31 0.285,-1.15 1.23,-2.23 2.871,-3.24 l 19.387,-11.94 c 1.023,-0.63 1.855,-0.85 2.5,-0.65 0.652,0.2 1.316,0.84 1.972,1.91 l 0.75,1.22 2.688,-1.65 -0.469,-0.76 -10.859,-17.63 -2.688,1.65 0.664,1.08 c 0.664,1.07 0.93,1.94 0.82,2.61 -0.117,0.67 -0.691,1.32 -1.718,1.95 l -20.223,12.46 c -1.016,0.63 -1.797,0.83 -2.324,0.6 -0.539,-0.24 -0.957,-0.62 -1.281,-1.12 -0.028,-0.05 -0.047,-0.1 -0.067,-0.12 -0.019,-0.03 -0.031,-0.06 -0.07,-0.12 l -1.094,-1.75 -2.293,1.42 c 1.25,2.11 1.797,4.33 1.668,6.64 -0.137,2.29 -0.898,4.78 -2.273,7.46 l 0.476,0.77 2.168,3.53 4.981,-3.07 c -0.274,2.06 -0.36,4.14 -0.262,6.18" /><path
         id="path106"
         style="fill:#ffffff;fill-opacity:1;fill-rule:nonzero;stroke:none"
         d="m 310.316,1192.82 c -0.058,0.04 -0.117,0.08 -0.183,0.14 -0.07,0.06 -0.129,0.1 -0.176,0.14 -0.039,0.04 -0.109,0.09 -0.176,0.15 -0.07,0.05 -0.129,0.1 -0.176,0.13 -2.207,1.76 -4.062,2.78 -5.566,3.05 -1.504,0.28 -2.726,0.26 -3.672,-0.06 -0.371,-0.17 -0.703,-0.35 -0.996,-0.53 -0.305,-0.18 -0.547,-0.4 -0.734,-0.63 -0.235,-0.28 -0.43,-0.62 -0.586,-1.03 -0.176,-0.4 -0.293,-0.84 -0.371,-1.32 -0.176,-1.09 0.07,-2.4 0.715,-3.95 0.652,-1.55 2.117,-3.39 4.402,-5.53 l 7.519,9.44 z m 21.68,0.23 c 0.547,-1.82 0.977,-3.5 1.27,-5.04 0.312,-1.55 0.519,-2.98 0.625,-4.29 0.05,-2.34 -0.274,-4.43 -0.957,-6.26 -0.684,-1.82 -1.778,-3.68 -3.27,-5.56 l -0.5,-0.76 c -3.769,-4.65 -8.555,-7.11 -14.297,-7.36 -5.762,-0.24 -11.152,1.63 -16.179,5.63 -5.118,4.07 -7.969,8.68 -8.547,13.82 -0.586,5.15 0.82,9.85 4.218,14.13 l 0.559,0.69 c 3.289,4.14 7,6.32 11.141,6.56 4.132,0.23 7.871,-0.48 11.222,-2.15 0.86,-0.37 1.649,-0.8 2.383,-1.27 0.742,-0.47 1.434,-0.97 2.098,-1.49 l -15.293,-19.22 c 3.691,-2.96 7.511,-4.8 11.406,-5.53 3.906,-0.73 7.09,0.31 9.551,3.1 0.84,1.25 1.328,2.59 1.465,4.01 0.136,1.43 0.078,3 -0.157,4.73 -0.125,0.7 -0.261,1.45 -0.418,2.23 -0.148,0.77 -0.304,1.57 -0.488,2.4 l 0.555,0.71 3.613,0.92" /><path
         id="path108"
         style="fill:#ffffff;fill-opacity:1;fill-rule:nonzero;stroke:none"
         d="m 1346.3,1130.12 c 0,-10.12 -8.2,-18.33 -18.33,-18.33 -10.12,0 -18.33,8.21 -18.33,18.33 0,10.12 8.21,18.33 18.33,18.33 10.13,0 18.33,-8.21 18.33,-18.33" /><path
         id="path110"
         style="fill:#ffffff;fill-opacity:1;fill-rule:nonzero;stroke:none"
         d="m 382.477,1255.07 c 0,-10.12 -8.204,-18.33 -18.332,-18.33 -10.125,0 -18.329,8.21 -18.329,18.33 0,10.13 8.204,18.33 18.329,18.33 10.128,0 18.332,-8.2 18.332,-18.33" /><path
         id="path112"
         style="fill:#ffffff;fill-opacity:1;fill-rule:nonzero;stroke:none"
         d="m 450.805,277.699 c 0,-10.117 -8.203,-18.32 -18.328,-18.32 -10.129,0 -18.332,8.203 -18.332,18.32 0,10.129 8.203,18.34 18.332,18.34 10.125,0 18.328,-8.211 18.328,-18.34" /></g></g></svg>