<?xml version="1.0" encoding="UTF-8" standalone="no"?>
<svg
   xmlns:dc="http://purl.org/dc/elements/1.1/"
   xmlns:cc="http://creativecommons.org/ns#"
   xmlns:rdf="http://www.w3.org/1999/02/22-rdf-syntax-ns#"
   xmlns:svg="http://www.w3.org/2000/svg"
   xmlns="http://www.w3.org/2000/svg"
   viewBox="0 0 200.85001 202.83749"
   height="202.83749"
   width="200.85001"
   xml:space="preserve"
   version="1.1"
   id="svg2"><metadata
     id="metadata8"><rdf:RDF><cc:Work
         rdf:about=""><dc:format>image/svg+xml</dc:format><dc:type
           rdf:resource="http://purl.org/dc/dcmitype/StillImage" /></cc:Work></rdf:RDF></metadata><defs
     id="defs6" /><g
     transform="matrix(1.25,0,0,-1.25,0,202.8375)"
     id="g10"><g
       transform="scale(0.1,0.1)"
       id="g12"><path
         id="path14"
         style="fill:#141212;fill-opacity:1;fill-rule:nonzero;stroke:none"
         d="M 644.508,1162.11 587.555,943.621 c 3.593,0.149 7.187,0.531 10.789,1.152 15.871,2.774 34.238,13.727 55.129,32.915 26.257,23.922 46.609,48.172 61.023,72.732 14.414,24.57 21.602,47.33 21.484,68.27 -0.175,43.45 -21.835,61.43 -64.988,53.94 -11.984,-2.09 -20.812,-5.61 -26.484,-10.52 z M 577.633,905.609 c -1.203,-4.339 -2.403,-9.148 -3.594,-14.449 -1.223,-5.293 -2.402,-10.254 -3.605,-14.902 C 556.332,823.309 543.395,780.07 531.645,746.586 519.906,713.07 507.465,684.223 494.32,660.023 486.852,645.375 476.09,629.359 462.016,612 c 36.437,-5.43 62.402,-8.559 77.902,-9.359 15.496,-0.789 30.906,0.14 46.219,2.789 17.726,3.09 33.41,8.59 47.043,16.531 13.633,7.926 26.425,19.129 38.406,33.609 17.629,21.493 31.945,45.926 42.961,73.262 10.976,27.336 16.453,52.93 16.336,76.738 -0.098,26.043 -8.719,46.645 -25.86,61.778 -8.445,7.437 -17.82,12.632 -28.183,15.605 -10.34,2.965 -24.656,4.457 -42.93,4.457 -16.797,0.563 -28.496,1.852 -35.097,3.86 -6.59,2.003 -13.653,6.789 -21.18,14.339 z m -196.797,-96.574 52.059,180.641 c 10.089,32.464 22.296,64.514 36.621,96.184 -1.504,-0.58 -4.961,-2.92 -10.352,-7.04 -20.691,-12.49 -35.371,-19.5 -44.043,-20.99 -12.246,-2.14 -18.379,1.72 -18.437,11.57 -0.039,10.49 4.718,26.43 14.25,47.81 9.539,21.38 19.121,37.84 28.699,49.38 21.875,25.12 55.273,47.77 100.195,67.99 44.914,20.21 95.215,35.16 150.879,44.84 33.691,5.85 64.172,8.13 91.418,6.85 27.254,-1.31 50.555,-6.22 69.852,-14.76 19.289,-8.52 34.015,-20.32 44.171,-35.37 10.157,-15.05 15.274,-32.87 15.36,-53.45 0.129,-28.85 -5.488,-55.52 -16.824,-80.01 -11.329,-24.48 -29.289,-48.69 -53.868,-72.62 -27.285,-26.32 -53.086,-45.08 -77.421,-56.279 -2.696,-1.41 -7.364,-3.176 -13.965,-5.285 l 0.008,-2.375 c 105.421,4.016 158.3,-32.91 158.632,-110.758 0.071,-15.574 -2.343,-32.211 -7.234,-49.91 -4.895,-17.715 -12.063,-35.488 -21.465,-53.34 -9.394,-17.851 -20.703,-34.609 -33.887,-50.254 -28.468,-34.531 -62.265,-67.89 -101.425,-100.16 -39.161,-32.219 -78.575,-59.59 -118.223,-82.07 -39.648,-22.457 -73.613,-36.16 -101.887,-41.078 -23.777,-4.129 -46.59,-5.25 -68.426,-3.321 -21.847,1.911 -39.257,6.43 -52.218,13.5 -12.977,7.11 -19.481,16.059 -19.52,26.84 -0.051,9.821 2.547,19.469 7.762,28.942 5.226,9.476 14.875,21.777 28.976,36.91 l -1.808,1.59 c -8.113,-4.731 -16.074,-7.774 -23.906,-9.133 -16.524,-2.867 -29.911,-0.109 -40.145,8.312 -10.246,8.418 -15.41,21.391 -15.48,38.911 -0.039,9.859 4.074,33.57 12.343,71.058 8.274,37.5 18.039,76.477 29.309,116.875" /><path
         id="path16"
         style="fill:#141212;fill-opacity:1;fill-rule:nonzero;stroke:none"
         d="m 966.547,898.68 6.242,17.754 c -9.934,-1.727 -18.371,-4.043 -25.273,-6.922 -6.907,-2.887 -15.02,-6.973 -24.317,-12.239 -11.445,-6.257 -19.238,-9.746 -23.457,-10.48 -5.129,-0.887 -9.347,0.418 -12.656,3.977 -3.34,3.539 -5.02,8.32 -5.051,14.335 -0.039,12.364 4.641,25.922 14.055,40.715 9.422,14.805 21.055,26.094 34.89,33.875 18.008,10.731 41.211,20.875 69.64,30.425 28.42,9.53 56.62,16.74 84.6,21.6 31.6,5.49 59.96,8.03 85.11,7.64 25.14,-0.4 47.53,-4.13 67.13,-11.21 19.61,-7.08 36.81,-17.1 51.61,-30.084 14.8,-12.996 26.24,-29.121 34.3,-48.355 8.07,-19.246 12.14,-40.453 12.24,-63.617 0.11,-20.953 -3.79,-45.121 -11.64,-72.528 -7.86,-27.429 -18.78,-54.734 -32.81,-81.941 -14.04,-27.219 -29.41,-50.859 -46.16,-70.918 -19.47,-23.398 -44.1,-44.586 -73.95,-63.598 -29.83,-19 -57.07,-30.64 -81.72,-34.918 -10.54,-1.832 -19.77,-1.461 -27.74,1.11 -7.98,2.597 -11.99,6.738 -12.01,12.469 -0.03,8.859 3.07,17.73 9.36,26.621 6.25,8.859 17.77,20.464 34.54,34.82 14.37,11.387 27.84,24.355 40.39,38.926 14.93,20.058 25.88,40.527 32.84,61.426 6.99,20.898 10.42,45 10.32,72.277 -0.12,26.008 -4.4,47.332 -12.83,63.969 -8.42,16.621 -22.08,30.449 -40.92,41.464 L 1062.1,693.09 1050.94,653.969 c -4.78,-15.449 -11.17,-41.637 -19.16,-78.61 C 1017.22,511.512 1003.52,466.57 990.699,440.512 985.023,429.051 977.691,417.449 968.707,405.711 954.32,389.859 936.078,375.012 914,361.172 c -22.082,-13.84 -41.086,-22.16 -57.043,-24.934 -10.527,-1.816 -18.906,-0.027 -25.086,5.41 -6.191,5.442 -9.308,14.043 -9.367,25.801 -0.059,13 2.961,32.582 9.016,58.711 6.054,26.129 18.574,73.238 37.546,141.301 l 8.02,28.051 8.445,30.515 81.016,272.653" /><path
         id="path18"
         style="fill:none;stroke:#141212;stroke-width:30;stroke-linecap:butt;stroke-linejoin:miter;stroke-miterlimit:4;stroke-dasharray:none;stroke-opacity:1"
         d="m 15.0938,818.41 c 1.6601,66.668 55.8203,149.168 79.1601,199.17 23.3401,50 14.1801,190.83 57.5081,247.5 43.332,56.66 113.332,93.33 113.332,93.33 0,0 50.008,106.67 136.668,130 86.66,23.33 185.82,18.33 242.492,61.67 56.668,43.33 114.695,58.85 185,57.5 130,-2.5 159.18,-55.84 232.506,-82.5 73.33,-26.67 163.34,-13.33 220,-56.67 56.66,-43.33 80,-110 80,-110 0,0 86.66,-26.67 123.33,-86.67 36.67,-60 33.33,-173.33 53.33,-230 20,-56.662 83.35,-151.631 83.34,-236.658 -0.01,-97.5 -66.66,-153.34 -80,-206.672 -13.34,-53.332 -30,-193.34 -66.67,-246.672 -36.67,-53.328 -113.33,-83.328 -113.33,-83.328 0,0 -33.34,-80 -96.67,-113.328 -63.33,-33.344 -166.67,-26.684 -216.67,-43.344 -49.998,-16.656 -119.1,-99.5974 -243.326,-96.656 -105.84,2.5 -160,66.6563 -220,86.656 -60,20 -156.067,13.262 -226.672,53.344 -61.668,35 -90,113.328 -90,113.328 0,0 -103.32,49.988 -126.66,123.328 -23.34,73.34 -3.34,133.34 -43.3401,203.34 -40,70.004 -85.7422,126.469 -83.3281,223.332 z" /><path
         id="path20"
         style="fill:none;stroke:#141212;stroke-width:10;stroke-linecap:butt;stroke-linejoin:miter;stroke-miterlimit:4;stroke-dasharray:none;stroke-opacity:1"
         d="m 61.5781,818.008 c 1.5625,62.801 52.5979,140.527 74.5899,187.632 21.98,47.11 13.348,179.79 54.18,233.18 40.82,53.39 106.765,87.93 106.765,87.93 0,0 47.121,100.5 128.762,122.48 81.641,21.98 175.059,17.27 228.457,58.09 53.387,40.83 108.055,55.45 174.297,54.18 122.469,-2.36 149.961,-52.61 219.051,-77.73 69.09,-25.12 153.89,-12.56 207.27,-53.38 53.38,-40.83 75.36,-103.64 75.36,-103.64 0,0 81.65,-25.12 116.2,-81.65 34.55,-56.53 31.4,-163.3 50.24,-216.69 18.84,-53.387 78.53,-142.859 78.52,-222.976 -0.01,-91.856 -62.8,-144.454 -75.37,-194.696 -12.57,-50.25 -28.26,-182.156 -62.82,-232.398 -34.54,-50.25 -106.77,-78.512 -106.77,-78.512 0,0 -31.4,-75.367 -91.07,-106.769 C 1179.58,161.641 1082.21,167.93 1035.11,152.23 988.004,136.531 922.895,58.3906 805.863,61.1602 706.148,63.5117 655.121,123.969 598.59,142.809 c -56.524,18.832 -147.024,12.492 -213.547,50.25 -58.094,32.98 -84.793,106.769 -84.793,106.769 0,0 -97.344,47.113 -119.328,116.192 -21.992,69.101 -3.152,125.621 -40.84,191.57 -37.676,65.949 -80.7695,119.152 -78.5039,210.418 z" /><path
         id="path22"
         style="fill:#141212;fill-opacity:1;fill-rule:nonzero;stroke:none"
         d="m 455.941,1305.61 c 0.774,-1.07 1.575,-1.84 2.422,-2.31 0.86,-0.46 2.285,0 4.336,1.38 2.949,2.25 4.739,4.6 5.371,7.03 0.618,2.43 0.676,4.68 0.157,6.75 -0.254,0.86 -0.536,1.66 -0.879,2.41 -0.352,0.74 -0.731,1.41 -1.153,1.99 -0.351,0.5 -0.886,1.09 -1.609,1.79 -0.723,0.7 -1.641,1.32 -2.746,1.85 -1.641,0.75 -3.711,1.04 -6.211,0.88 -2.508,-0.17 -5.488,-1.44 -8.934,-3.83 -0.343,-0.24 -0.715,-0.52 -1.113,-0.84 -0.402,-0.33 -0.773,-0.65 -1.133,-0.98 l 11.492,-16.12 z m -14.882,20.89 c 0.136,0.1 0.293,0.19 0.461,0.27 0.164,0.09 0.32,0.18 0.468,0.28 0.098,0.08 0.215,0.15 0.36,0.26 0.148,0.1 0.304,0.21 0.441,0.31 3.289,2.42 5.535,4.94 6.758,7.58 1.211,2.65 0.82,5.37 -1.211,8.21 -0.344,0.48 -0.801,1.04 -1.359,1.68 -0.567,0.63 -1.211,1.2 -1.942,1.71 -1.398,0.92 -3.097,1.47 -5.109,1.66 -2.012,0.19 -4.356,-0.64 -7.031,-2.46 -1.864,-1.41 -2.704,-2.6 -2.5,-3.55 0.207,-0.96 0.675,-1.96 1.406,-2.98 l 9.258,-12.97 z m -10.352,24.57 c 0.051,0.04 0.109,0.07 0.156,0.11 0.051,0.03 0.098,0.06 0.149,0.1 1.172,0.83 2.586,1.8 4.226,2.9 1.641,1.11 3.43,2.12 5.344,3.04 3.281,1.6 6.727,2.46 10.34,2.56 3.605,0.11 6.738,-1.69 9.375,-5.41 1.75,-2.44 2.461,-4.99 2.148,-7.65 -0.312,-2.65 -1.101,-5.02 -2.351,-7.09 -0.481,-0.78 -0.969,-1.5 -1.496,-2.17 -0.516,-0.67 -1.055,-1.24 -1.602,-1.7 l 0.469,-0.66 c 0.469,0.26 0.937,0.52 1.387,0.78 0.449,0.24 0.937,0.47 1.437,0.68 3.145,1.29 6.563,1.71 10.281,1.26 3.711,-0.46 6.868,-2.52 9.473,-6.18 0.566,-0.78 1.086,-1.66 1.562,-2.65 0.481,-0.98 0.86,-2.07 1.125,-3.28 0.645,-2.86 0.274,-6.19 -1.125,-9.98 -1.386,-3.78 -4.91,-7.7 -10.574,-11.74 l -0.734,-0.52 -26.602,-18.97 -2.605,3.66 1.465,1.04 c 1.707,1.23 2.578,2.37 2.636,3.44 0.047,1.07 -0.578,2.5 -1.867,4.31 l -23.816,33.41 c -0.176,0.25 -0.293,0.41 -0.344,0.48 -0.047,0.07 -0.098,0.14 -0.137,0.18 l -0.066,-0.05 c -0.031,0.05 -0.09,0.12 -0.156,0.22 -0.071,0.09 -0.215,0.3 -0.422,0.58 -0.039,0.05 -0.067,0.11 -0.098,0.16 -0.105,0.14 -0.222,0.28 -0.351,0.41 -0.137,0.13 -0.262,0.29 -0.411,0.48 -0.476,0.47 -1.14,0.75 -1.98,0.86 -0.852,0.09 -2.051,-0.42 -3.605,-1.53 l -1.407,-0.99 -2.597,3.66 0.722,0.53 22.051,15.72" /><path
         id="path24"
         style="fill:#141212;fill-opacity:1;fill-rule:nonzero;stroke:none"
         d="m 517.496,1372.34 c -0.344,-2.86 0.938,-7.16 3.836,-12.88 1.934,-3.86 4.18,-7.1 6.719,-9.72 2.519,-2.62 5.273,-3.28 8.254,-1.98 2.429,1.42 3.535,3.63 3.308,6.61 -0.215,2.98 -0.957,5.97 -2.195,8.97 -0.305,0.59 -0.578,1.17 -0.832,1.75 -0.262,0.57 -0.527,1.12 -0.801,1.66 -2.801,5.58 -5.41,9.06 -7.801,10.48 -2.402,1.41 -4.472,1.88 -6.242,1.38 -0.105,-0.05 -0.234,-0.09 -0.379,-0.13 -0.156,-0.05 -0.312,-0.1 -0.468,-0.19 -1.926,-1.11 -3.067,-3.09 -3.399,-5.95 z m 5.281,-30.75 c -4.492,1.6 -8.066,4.07 -10.711,7.45 -0.539,0.66 -1.027,1.35 -1.476,2.02 -0.438,0.68 -0.84,1.37 -1.192,2.07 -0.437,0.86 -0.828,1.76 -1.179,2.73 -0.352,0.96 -0.625,1.98 -0.813,3.02 -0.879,4 -0.605,8.21 0.821,12.66 1.418,4.44 4.796,8.02 10.156,10.73 l 0.801,0.41 c 5.351,2.7 10.254,3.29 14.668,1.8 4.425,-1.5 7.98,-3.79 10.675,-6.87 0.723,-0.77 1.368,-1.58 1.934,-2.45 0.574,-0.85 1.074,-1.71 1.504,-2.57 0.32,-0.64 0.633,-1.32 0.937,-2.05 0.293,-0.72 0.536,-1.47 0.723,-2.24 1.219,-4.16 1.16,-8.55 -0.215,-13.17 -1.359,-4.62 -4.902,-8.37 -10.637,-11.27 l -0.769,-0.48 c -5.637,-2.79 -10.715,-3.39 -15.227,-1.79" /><path
         id="path26"
         style="fill:#141212;fill-opacity:1;fill-rule:nonzero;stroke:none"
         d="m 592.133,1406 c -0.664,-2.79 0.097,-7.22 2.324,-13.23 1.484,-4.06 3.32,-7.54 5.539,-10.43 2.215,-2.91 4.871,-3.88 7.969,-2.93 2.586,1.14 3.945,3.19 4.07,6.18 0.117,2.98 -0.262,6.05 -1.152,9.17 -0.235,0.62 -0.438,1.22 -0.633,1.83 -0.187,0.6 -0.383,1.18 -0.586,1.75 -2.148,5.85 -4.328,9.62 -6.543,11.3 -2.219,1.68 -4.23,2.39 -6.035,2.1 -0.129,-0.04 -0.246,-0.06 -0.402,-0.1 -0.157,-0.03 -0.313,-0.07 -0.477,-0.12 -2.043,-0.88 -3.41,-2.72 -4.074,-5.52 z m 1.691,-31.15 c -4.277,2.1 -7.551,4.98 -9.777,8.63 -0.457,0.73 -0.867,1.45 -1.231,2.19 -0.371,0.73 -0.683,1.46 -0.945,2.19 -0.332,0.91 -0.617,1.85 -0.851,2.86 -0.243,0.99 -0.399,2.02 -0.469,3.08 -0.399,4.06 0.351,8.23 2.285,12.48 1.926,4.25 5.703,7.42 11.328,9.48 l 0.852,0.31 c 5.625,2.06 10.554,2.09 14.773,0.09 4.219,-2 7.481,-4.68 9.805,-8.05 0.625,-0.86 1.183,-1.74 1.64,-2.66 0.469,-0.91 0.871,-1.82 1.204,-2.72 0.242,-0.68 0.476,-1.4 0.683,-2.15 0.203,-0.75 0.371,-1.53 0.469,-2.32 0.73,-4.27 0.144,-8.62 -1.738,-13.05 -1.887,-4.44 -5.852,-7.75 -11.875,-9.96 l -0.813,-0.39 c -5.945,-2.11 -11.055,-2.12 -15.34,-0.01" /><path
         id="path28"
         style="fill:#141212;fill-opacity:1;fill-rule:nonzero;stroke:none"
         d="m 675.551,1418.72 8.722,13.92 c 0.028,0.13 0.106,0.3 0.243,0.52 0.136,0.22 0.293,0.46 0.48,0.75 0.078,0.2 0.164,0.42 0.274,0.65 0.085,0.24 0.183,0.46 0.261,0.66 0.02,0.19 0.039,0.35 0.039,0.47 0,0.12 -0.007,0.25 -0.039,0.36 -0.117,0.59 -0.418,0.93 -0.867,1.05 -0.461,0.11 -1.094,0.09 -1.914,-0.09 l -0.664,2.98 0.879,0.2 15.019,3.32 0.672,-2.99 c -1.172,-0.31 -2.207,-0.81 -3.133,-1.47 -0.937,-0.67 -1.796,-1.52 -2.617,-2.56 -0.343,-0.38 -0.656,-0.79 -0.929,-1.22 -0.274,-0.43 -0.567,-0.9 -0.887,-1.4 l -3.391,-5.55 13.672,-16.78 c 0.07,-0.05 0.137,-0.11 0.195,-0.19 0.039,-0.08 0.098,-0.15 0.176,-0.19 1.34,-1.61 2.637,-2.79 3.918,-3.56 1.27,-0.77 2.852,-0.96 4.735,-0.61 l 0.683,-3.08 -0.879,-0.19 -20.117,-4.45 -0.684,3.07 1.321,0.3 c 0.633,0.14 1.023,0.29 1.133,0.48 0.117,0.18 0.156,0.36 0.117,0.52 l -0.078,0.36 c -0.039,0.18 -0.129,0.36 -0.254,0.55 -0.137,0.18 -0.293,0.38 -0.461,0.59 -0.02,0.05 -0.059,0.12 -0.137,0.2 -0.078,0.07 -0.164,0.16 -0.234,0.27 -0.098,0.16 -0.215,0.3 -0.332,0.43 -0.118,0.13 -0.223,0.24 -0.313,0.34 l -9.121,11.26 -3.875,-6.2 1.797,-8.18 c 0.262,-1.17 0.691,-1.92 1.277,-2.25 0.606,-0.33 1.516,-0.36 2.746,-0.08 l 1.407,0.3 0.672,-3.07 -0.868,-0.2 -20.48,-4.53 -0.684,3.08 1.407,0.31 c 1.3,0.29 2.14,0.7 2.539,1.25 0.402,0.56 0.468,1.41 0.214,2.59 l -9.726,43.93 c -0.184,0.88 -0.469,1.47 -0.84,1.75 -0.371,0.29 -0.781,0.45 -1.219,0.47 -0.187,0.02 -0.383,0.02 -0.597,0 -0.215,-0.01 -0.379,-0.03 -0.489,-0.05 l -2.019,-0.46 -0.586,2.65 0.527,0.1 c 2.918,0.65 5.313,1.97 7.149,3.94 1.836,1.97 3.066,4.16 3.711,6.58 l 2.343,0.61 0.887,0.2 9.219,-41.66" /><path
         id="path30"
         style="fill:#141212;fill-opacity:1;fill-rule:nonzero;stroke:none"
         d="m 828.129,1441.02 c 4.738,-0.12 8.223,0.81 10.43,2.79 2.207,1.99 3.652,4.17 4.308,6.55 0.196,0.73 0.352,1.45 0.457,2.21 0.11,0.74 0.176,1.44 0.188,2.1 0.105,4.01 -0.625,7.01 -2.199,8.92 -1.571,1.94 -3.309,3.23 -5.215,3.87 -0.828,0.33 -1.66,0.55 -2.461,0.7 -0.801,0.14 -1.532,0.22 -2.196,0.23 -1.738,-0.01 -3.027,-0.3 -3.839,-0.84 -0.829,-0.55 -1.27,-1.79 -1.317,-3.71 l -0.586,-22.76 2.43,-0.06 z m -2.93,-19.56 c -0.039,-1.86 0.305,-3.11 1.035,-3.75 0.735,-0.66 2.063,-1 3.985,-1.05 l 3.047,-0.08 -0.106,-4.49 -0.898,0.01 -29.426,0.76 0.117,4.49 1.711,-0.04 c 1.805,-0.05 3.113,0.24 3.934,0.84 0.832,0.62 1.269,1.84 1.308,3.71 l 1.114,43.36 c 0.039,1.87 -0.332,3.12 -1.122,3.77 -0.793,0.65 -2.089,0.99 -3.898,1.04 l -1.707,0.04 0.105,4.5 0.918,-0.02 27.793,-0.7 c 0.118,-0.01 0.235,-0.02 0.364,-0.02 0.117,0 0.234,0 0.359,-0.01 0.234,0 0.469,0 0.723,0.03 0.234,0.02 0.468,0 0.715,-0.06 8.699,-0.22 14.988,-2.43 18.867,-6.6 3.886,-4.19 5.801,-8.73 5.742,-13.65 -0.012,-0.06 -0.012,-0.11 -0.012,-0.14 0,-0.03 0,-0.08 0,-0.13 -0.137,-5.16 -2.312,-9.47 -6.543,-12.93 -4.226,-3.47 -11.719,-5.06 -22.441,-4.79 l -5.313,0.14 -0.371,-14.23" /><path
         id="path32"
         style="fill:#141212;fill-opacity:1;fill-rule:nonzero;stroke:none"
         d="m 910.824,1410.99 c -0.176,-1.18 -0.066,-2.04 0.352,-2.55 0.402,-0.51 1.074,-0.88 2.023,-1.08 0.117,-0.01 0.215,-0.03 0.313,-0.04 0.086,-0.02 0.164,0 0.234,0.05 0.117,-0.01 0.223,-0.04 0.313,-0.05 0.086,-0.01 0.183,-0.02 0.312,-0.04 l 0.887,-0.14 -0.469,-3.11 -0.887,0.13 -20.742,3.12 0.469,3.11 1.426,-0.21 c 1.355,-0.21 2.293,-0.12 2.812,0.26 0.508,0.38 0.867,1.16 1.035,2.35 l 6.688,44.49 c 0.019,0.13 0.039,0.27 0.07,0.46 0.028,0.16 0.02,0.35 -0.012,0.53 0,0.44 -0.125,0.87 -0.398,1.29 -0.273,0.44 -0.84,0.73 -1.738,0.85 l -2.051,0.32 0.41,2.67 c 2.793,-0.36 5.399,0.08 7.793,1.33 2.402,1.24 4.246,2.7 5.535,4.4 0.071,0.05 0.117,0.09 0.156,0.11 0.04,0.03 0.059,0.07 0.059,0.13 l 3.215,-0.39 0.898,-0.14 -8.703,-57.85" /><path
         id="path34"
         style="fill:#141212;fill-opacity:1;fill-rule:nonzero;stroke:none"
         d="m 981.898,1416.93 c 0.012,0.05 0.032,0.12 0.059,0.22 0.02,0.09 0.039,0.16 0.059,0.22 0.011,0.06 0.039,0.12 0.058,0.22 0.02,0.08 0.039,0.15 0.051,0.21 0.73,2.73 0.918,4.83 0.574,6.33 -0.351,1.48 -0.859,2.59 -1.531,3.33 -0.305,0.27 -0.598,0.5 -0.891,0.7 -0.293,0.2 -0.574,0.35 -0.867,0.42 -0.344,0.09 -0.734,0.13 -1.172,0.13 -0.441,0 -0.898,-0.08 -1.359,-0.2 -1.074,-0.28 -2.176,-1.02 -3.34,-2.23 -1.172,-1.22 -2.266,-3.3 -3.289,-6.25 l 11.648,-3.1 z m 8.887,-19.78 c -1.433,-1.23 -2.812,-2.29 -4.101,-3.19 -1.297,-0.9 -2.528,-1.66 -3.68,-2.28 -2.129,-0.99 -4.172,-1.54 -6.113,-1.63 -1.953,-0.1 -4.094,0.15 -6.407,0.77 l -0.89,0.14 c -5.789,1.6 -9.942,4.99 -12.489,10.17 -2.531,5.17 -2.968,10.87 -1.32,17.07 1.68,6.32 4.766,10.78 9.25,13.37 4.473,2.61 9.356,3.2 14.629,1.78 l 0.867,-0.22 c 5.098,-1.36 8.594,-3.89 10.461,-7.58 1.875,-3.7 2.723,-7.42 2.528,-11.15 0,-0.94 -0.059,-1.83 -0.204,-2.7 -0.148,-0.86 -0.312,-1.7 -0.539,-2.52 l -23.73,6.33 c -1.219,-4.58 -1.387,-8.81 -0.488,-12.67 0.89,-3.88 3.105,-6.38 6.66,-7.52 1.476,-0.26 2.902,-0.17 4.258,0.28 1.367,0.44 2.793,1.12 4.269,2.03 0.606,0.39 1.231,0.82 1.875,1.27 0.652,0.44 1.317,0.91 2.012,1.42 l 0.867,-0.24 2.285,-2.93" /><path
         id="path36"
         style="fill:#141212;fill-opacity:1;fill-rule:nonzero;stroke:none"
         d="m 1053.12,1386.36 c -3.24,0.48 -6.29,0.16 -9.13,-0.95 -2.85,-1.11 -4.76,-2.85 -5.73,-5.24 -0.55,-1.33 -0.52,-2.61 0.08,-3.83 0.61,-1.22 1.59,-2.16 2.93,-2.84 0.29,-0.11 0.57,-0.2 0.86,-0.26 0.31,-0.05 0.63,-0.08 0.94,-0.08 0.81,-0.08 1.63,-0.06 2.46,0.07 0.82,0.11 1.64,0.29 2.46,0.54 l 5.13,12.59 z m 11.83,-23.67 c -2.2,-1.12 -4.28,-1.65 -6.24,-1.63 -1.99,0.02 -3.88,0.4 -5.71,1.15 l -0.87,0.25 c -0.43,0.25 -0.91,0.5 -1.46,0.81 -0.57,0.29 -1.15,0.65 -1.75,1.09 -0.63,0.51 -1.2,1.14 -1.72,1.86 -0.52,0.73 -0.77,1.64 -0.78,2.75 -2.78,-0.48 -5.18,-0.59 -7.18,-0.33 -2,0.26 -3.81,0.72 -5.41,1.38 l -0.88,0.26 c -0.3,0.18 -0.63,0.37 -0.98,0.54 -0.34,0.18 -0.7,0.33 -1.02,0.47 -2.22,1.23 -4.04,2.9 -5.44,5.03 -1.4,2.13 -1.46,4.74 -0.2,7.86 1.45,3.56 4.04,5.85 7.77,6.9 3.72,1.04 7.53,1.47 11.42,1.31 1.97,-0.08 3.86,-0.29 5.68,-0.6 1.81,-0.32 3.4,-0.62 4.78,-0.93 l 2.37,5.84 c 0.78,1.94 0.86,3.41 0.18,4.39 -0.67,0.98 -1.84,1.86 -3.54,2.62 -1.31,0.46 -2.39,0.58 -3.26,0.34 -0.88,-0.22 -1.57,-0.59 -2.1,-1.09 -0.4,-0.35 -0.72,-0.7 -0.97,-1.05 -0.23,-0.36 -0.43,-0.64 -0.57,-0.83 -0.08,-0.18 -0.16,-0.32 -0.24,-0.45 -0.09,-0.13 -0.18,-0.26 -0.31,-0.41 -0.59,-0.79 -1.34,-1.45 -2.27,-1.99 -0.92,-0.53 -2.12,-0.5 -3.56,0.09 l -0.83,0.35 c -1.39,0.56 -2.28,1.39 -2.68,2.49 -0.39,1.1 -0.34,2.26 0.16,3.48 0.18,0.45 0.46,0.91 0.8,1.38 0.36,0.47 0.77,0.9 1.25,1.28 1.61,1.23 3.89,2.01 6.84,2.33 2.94,0.32 6.55,-0.39 10.84,-2.14 l 0.83,-0.34 c 4.6,-1.87 7.62,-3.89 9.04,-6.06 1.41,-2.16 2.09,-4.21 2.03,-6.12 -0.06,-0.76 -0.18,-1.5 -0.37,-2.23 -0.21,-0.72 -0.42,-1.37 -0.65,-1.93 l -7.98,-19.59 c -0.49,-1.22 -0.83,-2.38 -1.02,-3.46 -0.2,-1.1 0.11,-1.9 0.87,-2.4 0.12,-0.04 0.24,-0.07 0.42,-0.07 0.15,0 0.29,0.01 0.43,0.01 0.25,-0.03 0.51,-0.02 0.79,0.02 0.27,0.06 0.53,0.1 0.73,0.14 0.22,0.04 0.41,0.1 0.6,0.15 0.18,0.05 0.34,0.08 0.48,0.1 l 0.83,-0.35 0.85,-2.67" /><path
         id="path38"
         style="fill:#141212;fill-opacity:1;fill-rule:nonzero;stroke:none"
         d="m 1103.12,1353.08 c -0.27,-2.46 0.09,-4.98 1.09,-7.56 1,-2.59 2.75,-4.64 5.26,-6.19 2.02,-1.06 3.76,-1.53 5.24,-1.43 1.47,0.12 2.54,0.81 3.24,2.06 0.34,0.58 0.49,1.17 0.49,1.79 0,0.62 -0.12,1.31 -0.39,2.07 -0.35,0.96 -0.94,2.09 -1.76,3.4 -0.82,1.32 -1.85,2.87 -3.1,4.68 -2.1,3.02 -3.82,6.09 -5.17,9.22 -1.35,3.12 -1.08,6.36 0.77,9.71 1.57,2.78 4.02,4.55 7.41,5.31 3.37,0.76 7.23,-0.07 11.59,-2.5 l 0.78,-0.44 c 1.36,-0.75 2.8,-1.78 4.32,-3.07 1.5,-1.3 2.92,-2.86 4.22,-4.69 0.14,-0.14 0.25,-0.28 0.34,-0.44 0.07,-0.15 0.19,-0.29 0.32,-0.43 l -4.03,-7.23 -0.8,0.43 -2.35,1.32 c 0.31,1.54 0.15,3.09 -0.5,4.65 -0.64,1.56 -1.49,2.92 -2.58,4.06 -0.36,0.35 -0.73,0.69 -1.12,1.05 -0.38,0.35 -0.78,0.65 -1.2,0.88 -0.2,0.12 -0.45,0.23 -0.69,0.33 -0.26,0.11 -0.52,0.21 -0.81,0.3 -0.99,0.34 -1.99,0.49 -3,0.44 -1.03,-0.04 -1.82,-0.57 -2.36,-1.57 -0.59,-1.04 -0.72,-2.12 -0.37,-3.21 0.37,-1.09 0.95,-2.25 1.79,-3.46 0.18,-0.31 0.39,-0.63 0.64,-0.97 0.26,-0.35 0.49,-0.69 0.72,-1.02 1.14,-1.67 2.16,-3.18 3.07,-4.56 0.92,-1.37 1.71,-2.69 2.39,-3.95 1.46,-2.54 2.32,-4.88 2.58,-7.01 0.26,-2.12 -0.3,-4.4 -1.65,-6.82 -1.95,-3.5 -4.9,-5.37 -8.84,-5.62 -3.95,-0.23 -7.71,0.64 -11.27,2.63 l -0.82,0.36 c -0.29,0.23 -0.59,0.44 -0.88,0.64 -0.3,0.21 -0.64,0.41 -1.01,0.62 -1.48,1.03 -2.88,2.19 -4.17,3.5 -1.3,1.32 -2.43,2.57 -3.4,3.8 -0.25,0.29 -0.47,0.55 -0.68,0.8 -0.2,0.25 -0.41,0.5 -0.61,0.76 l 4.16,9.11 0.79,-0.44 2.35,-1.31" /><path
         id="path40"
         style="fill:#141212;fill-opacity:1;fill-rule:nonzero;stroke:none"
         d="m 1192.28,1333.71 -17.04,-22.98 c -1.21,-1.65 -2.14,-3.17 -2.75,-4.56 -0.65,-1.41 -0.32,-2.66 0.96,-3.75 0.62,-0.39 1.4,-0.76 2.36,-1.13 0.95,-0.38 1.95,-0.72 2.98,-1.04 0.76,-0.19 1.49,-0.38 2.21,-0.57 0.71,-0.2 1.42,-0.33 2.12,-0.4 0.52,-0.1 1.02,-0.18 1.48,-0.26 0.46,-0.08 0.88,-0.11 1.27,-0.1 l 10.88,14.68 c 0.57,0.77 0.8,1.4 0.69,1.9 -0.12,0.5 -0.34,0.89 -0.64,1.19 -0.09,0.08 -0.19,0.15 -0.29,0.22 -0.09,0.07 -0.19,0.14 -0.28,0.22 l -1.73,1.28 1.6,2.17 c 2.3,-1.33 4.66,-1.98 7.07,-1.94 2.42,0.04 4.86,0.56 7.33,1.57 l 0.73,-0.54 3.25,-2.41 -22.13,-29.87 c -0.72,-0.96 -1,-1.76 -0.86,-2.43 0.14,-0.67 0.72,-1.37 1.74,-2.12 l 1.15,-0.86 -1.88,-2.53 -0.73,0.53 -12.86,9.54 3.48,4.7 c -5.31,0.2 -9.4,0.9 -12.28,2.1 -2.88,1.2 -4.95,2.27 -6.2,3.2 l -0.78,0.45 c 0.04,0.06 0.03,0.1 -0.02,0.14 -0.33,0.25 -0.78,0.6 -1.34,1.05 -0.56,0.45 -1.08,1.01 -1.57,1.66 -0.73,0.92 -1.19,2.1 -1.36,3.53 -0.17,1.43 0.44,3.1 1.84,4.98 l 13.88,18.72 c 0.07,0.1 0.15,0.22 0.26,0.36 0.11,0.15 0.19,0.31 0.25,0.49 0.17,0.32 0.21,0.73 0.11,1.2 -0.09,0.48 -0.5,0.99 -1.22,1.53 l -1.74,1.29 1.61,2.17 c 1.52,-0.98 3.1,-1.56 4.77,-1.74 1.64,-0.19 3.19,-0.17 4.62,0.04 1.26,0.18 2.34,0.42 3.27,0.72 0.92,0.28 1.5,0.49 1.74,0.61 l 0.72,-0.54 3.33,-2.47" /><path
         id="path42"
         style="fill:#141212;fill-opacity:1;fill-rule:nonzero;stroke:none"
         d="m 1264.04,1270.04 c 1.98,-0.54 3.64,-1.45 4.98,-2.74 l 0.65,-0.62 c 1.52,-1.47 2.31,-3.05 2.41,-4.77 0.09,-1.72 -0.46,-3.2 -1.67,-4.45 -0.96,-1 -2.07,-1.43 -3.32,-1.3 -1.26,0.12 -2.36,0.56 -3.3,1.3 -0.04,0.04 -0.09,0.09 -0.16,0.16 -0.06,0.06 -0.12,0.12 -0.17,0.16 l -0.64,0.62 c -0.43,0.42 -0.84,0.91 -1.21,1.47 -0.36,0.57 -0.69,1.23 -0.95,1.99 -0.09,0.16 -0.18,0.37 -0.24,0.6 -0.07,0.24 -0.14,0.43 -0.23,0.61 -0.09,0.24 -0.18,0.52 -0.26,0.82 -0.1,0.29 -0.2,0.57 -0.28,0.82 -0.13,0.21 -0.23,0.42 -0.33,0.64 -0.09,0.2 -0.21,0.38 -0.39,0.56 -0.91,0.78 -1.95,1.18 -3.14,1.15 -1.2,-0.02 -2.45,-0.72 -3.78,-2.1 l -15.81,-16.39 c -0.83,-0.87 -1.22,-1.63 -1.18,-2.32 0.06,-0.67 0.54,-1.45 1.46,-2.32 l 1.02,-1 -2.18,-2.27 -0.65,0.62 -14.89,14.38 2.19,2.27 0.9,-0.88 c 0.91,-0.88 1.7,-1.33 2.38,-1.36 0.67,-0.03 1.43,0.39 2.27,1.25 l 16.49,17.1 c 0.84,0.87 1.2,1.59 1.08,2.15 -0.11,0.57 -0.4,1.06 -0.83,1.48 -0.04,0.04 -0.07,0.08 -0.09,0.1 -0.02,0.02 -0.05,0.05 -0.09,0.09 l -1.5,1.44 1.88,1.94 c 1.81,-1.67 3.85,-2.68 6.14,-3.04 2.28,-0.36 4.86,-0.15 7.78,0.61 l 0.65,-0.62 2.98,-2.87 -4.07,-4.21 c 2.08,-0.18 4.12,-0.53 6.1,-1.07" /><path
         id="path44"
         style="fill:#141212;fill-opacity:1;fill-rule:nonzero;stroke:none"
         d="m 1305.12,1203.93 c 0.05,0.03 0.11,0.09 0.18,0.14 0.08,0.06 0.12,0.11 0.17,0.14 0.04,0.04 0.11,0.09 0.18,0.14 0.07,0.06 0.13,0.11 0.17,0.14 2.19,1.78 3.58,3.37 4.18,4.79 0.59,1.41 0.83,2.61 0.71,3.6 -0.08,0.39 -0.19,0.76 -0.29,1.09 -0.12,0.33 -0.28,0.62 -0.45,0.85 -0.25,0.28 -0.53,0.54 -0.89,0.79 -0.36,0.25 -0.76,0.47 -1.21,0.63 -1.03,0.41 -2.37,0.46 -4.02,0.17 -1.65,-0.3 -3.77,-1.34 -6.34,-3.12 l 7.61,-9.36 z m -4.42,-21.23 c -1.9,-0.15 -3.63,-0.21 -5.21,-0.18 -1.58,0.04 -3,0.15 -4.31,0.33 -2.31,0.45 -4.28,1.2 -5.9,2.27 -1.64,1.06 -3.22,2.52 -4.74,4.39 l -0.63,0.64 c -3.75,4.69 -5.12,9.87 -4.13,15.55 0.99,5.68 3.98,10.54 8.95,14.6 5.09,4.12 10.2,5.92 15.34,5.39 5.15,-0.53 9.45,-2.91 12.89,-7.15 l 0.57,-0.7 c 3.33,-4.1 4.67,-8.19 4.01,-12.29 -0.66,-4.09 -2.16,-7.59 -4.51,-10.5 -0.54,-0.75 -1.12,-1.44 -1.75,-2.06 -0.61,-0.62 -1.25,-1.2 -1.89,-1.72 l -15.51,19.07 c -3.68,-3 -6.29,-6.32 -7.84,-9.98 -1.54,-3.66 -1.22,-6.98 0.99,-9.98 1.04,-1.09 2.23,-1.86 3.6,-2.29 1.36,-0.45 2.91,-0.73 4.65,-0.87 0.72,-0.03 1.47,-0.06 2.26,-0.07 0.79,-0.02 1.61,-0.02 2.46,-0.04 l 0.56,-0.69 0.14,-3.72" /><path
         id="path46"
         style="fill:#141212;fill-opacity:1;fill-rule:nonzero;stroke:none"
         d="m 1412.64,1096.34 -4.06,-1.92 -0.82,1.71 c -0.89,1.89 -1.78,2.97 -2.66,3.21 -0.88,0.25 -1.71,0.22 -2.5,-0.09 -0.15,-0.07 -0.32,-0.15 -0.49,-0.23 -0.16,-0.08 -0.32,-0.16 -0.48,-0.23 -0.06,-0.02 -0.1,-0.05 -0.12,-0.06 -0.03,-0.01 -0.07,-0.02 -0.13,-0.05 l -17.23,-8.18 0.02,-0.07 23.48,-7.3 c 1.54,-0.47 2.65,-0.71 3.29,-0.74 0.65,-0.03 1.15,0.04 1.54,0.23 0.65,0.31 0.91,0.74 0.81,1.33 -0.11,0.58 -0.31,1.16 -0.59,1.76 l -0.43,0.9 4.08,1.93 0.38,-0.82 8.14,-17.16 -4.07,-1.93 c -1.15,1.99 -2.47,3.51 -3.98,4.6 -1.5,1.08 -3.28,1.96 -5.33,2.65 -0.14,0 -0.26,0.02 -0.39,0.07 -0.12,0.03 -0.22,0.07 -0.29,0.1 l -12.8,3.9 -15.72,-22.09 c -0.49,-0.69 -1.03,-1.47 -1.66,-2.32 -0.61,-0.87 -1.24,-1.81 -1.88,-2.84 -0.97,-1.46 -1.83,-2.96 -2.59,-4.52 -0.76,-1.55 -1.19,-2.98 -1.3,-4.3 -0.01,-0.4 0.01,-0.79 0.06,-1.17 0.04,-0.37 0.13,-0.73 0.3,-1.05 l 0.8,-1.7 -4.07,-1.94 -0.38,0.82 -11.67,24.64 4.07,1.93 0.49,-1.05 c 0.06,-0.12 0.12,-0.23 0.17,-0.37 0.06,-0.14 0.16,-0.25 0.26,-0.33 0.21,-0.3 0.5,-0.55 0.85,-0.74 0.36,-0.2 0.81,-0.17 1.35,0.09 0.22,0.1 0.47,0.31 0.77,0.61 0.28,0.29 0.57,0.62 0.88,0.97 0.07,0.1 0.16,0.2 0.26,0.27 0.1,0.09 0.16,0.16 0.19,0.24 0.25,0.31 0.47,0.61 0.68,0.87 0.2,0.26 0.36,0.49 0.48,0.67 l 12.74,17.9 -7,2.15 -13.91,-6.58 c -0.16,-0.09 -0.32,-0.15 -0.49,-0.24 -0.16,-0.08 -0.33,-0.16 -0.48,-0.23 -0.78,-0.5 -1.36,-1.18 -1.78,-2.03 -0.42,-0.87 -0.19,-2.22 0.67,-4.07 l 0.81,-1.71 -4.06,-1.92 -0.38,0.82 -12.1,25.54 4.06,1.92 0.77,-1.62 c 1.05,-2.23 2.09,-3.36 3.11,-3.41 1.02,-0.05 2.13,0.21 3.32,0.77 l 39.2,18.57 c 1.19,0.57 2.1,1.27 2.7,2.07 0.61,0.82 0.39,2.35 -0.66,4.57 l -0.77,1.63 4.06,1.93 0.39,-0.82 12.09,-25.54" /><path
         id="path48"
         style="fill:#141212;fill-opacity:1;fill-rule:nonzero;stroke:none"
         d="m 1415.41,984.848 10.25,3.09 c 1.14,0.347 1.86,0.828 2.15,1.445 0.28,0.621 0.24,1.527 -0.12,2.742 l -0.42,1.375 3.03,0.906 0.25,-0.855 6.02,-19.996 -3.02,-0.91 -0.41,1.378 c -0.37,1.204 -0.84,1.993 -1.42,2.348 -0.58,0.359 -1.44,0.359 -2.58,0.02 l -27.77,-8.348 c -1.13,-0.355 -1.85,-0.832 -2.13,-1.445 -0.29,-0.618 -0.25,-1.535 0.11,-2.743 l 0.42,-1.375 -3.03,-0.91 -0.25,0.864 -6.02,19.992 3.02,0.91 0.42,-1.379 c 0.35,-1.211 0.83,-1.992 1.41,-2.348 0.58,-0.355 1.43,-0.371 2.59,-0.015 l 13,3.906 -4.07,13.535 -13.01,-3.918 c -1.15,-0.351 -1.85,-0.824 -2.15,-1.441 -0.28,-0.625 -0.24,-1.535 0.12,-2.738 l 0.42,-1.379 -3.02,-0.907 -0.25,0.864 -6.03,19.984 3.02,0.91 0.42,-1.37 c 0.36,-1.22 0.83,-2 1.41,-2.35 0.57,-0.36 1.43,-0.37 2.59,-0.02 l 27.75,8.34 c 1.15,0.36 1.88,0.84 2.15,1.46 0.28,0.61 0.24,1.53 -0.12,2.73 l -0.41,1.38 3.01,0.9 0.26,-0.85 6.02,-20.001 -3.02,-0.902 -0.41,1.378 c -0.37,1.195 -0.84,1.985 -1.41,2.345 -0.58,0.35 -1.44,0.37 -2.59,0.02 l -10.26,-3.087 4.08,-13.535" /><path
         id="path50"
         style="fill:#141212;fill-opacity:1;fill-rule:nonzero;stroke:none"
         d="m 1444.58,900.492 1.07,0.156 c 0.59,0.086 0.99,0.352 1.16,0.774 0.18,0.418 0.26,0.867 0.25,1.355 0.02,0.243 0.02,0.489 -0.01,0.723 -0.04,0.242 -0.07,0.445 -0.1,0.625 -0.01,0.059 -0.02,0.117 -0.03,0.176 l -0.22,1.426 3.12,0.468 0.13,-0.89 3.14,-20.727 -3.1,-0.48 -0.22,1.429 c -0.25,1.661 -0.65,2.59 -1.2,2.778 -0.54,0.191 -1.14,0.234 -1.79,0.133 l -1.36,-0.02 -27.23,-4.137 c -0.06,-0.011 -0.1,-0.011 -0.14,-0.019 -0.03,-0.004 -0.07,-0.008 -0.13,-0.02 -0.06,-0.012 -0.16,-0.039 -0.3,-0.094 -0.14,-0.046 -0.4,-0.132 -0.73,-0.25 -0.61,-0.085 -1.14,-0.308 -1.64,-0.656 -0.49,-0.347 -0.62,-1.351 -0.36,-3.015 l 0.21,-1.422 -3.11,-0.469 -0.14,0.887 -3.14,20.73 3.11,0.481 0.22,-1.426 c 0.18,-1.25 0.54,-2.086 1.06,-2.531 0.53,-0.426 1.38,-0.567 2.57,-0.379 l 20.28,3.082 -21.68,11.449 -1.32,-0.195 c -1.14,-0.176 -1.8,-0.547 -2.02,-1.125 -0.22,-0.586 -0.23,-1.434 -0.07,-2.555 0.04,-0.242 0.07,-0.5 0.12,-0.766 0.04,-0.265 0.08,-0.515 0.11,-0.761 l -3.11,-0.465 -0.13,0.886 -3.15,20.645 3.12,0.473 0.22,-1.426 c 0.19,-1.242 0.54,-2.082 1.07,-2.52 0.51,-0.437 1.36,-0.566 2.56,-0.39 l 28.65,4.351 c 1.19,0.188 1.97,0.563 2.33,1.133 0.36,0.574 0.46,1.481 0.27,2.727 l -0.21,1.422 3.11,0.468 0.13,-0.886 3.14,-20.645 -3.12,-0.469 -0.21,1.422 c -0.2,1.242 -0.54,2.082 -1.07,2.524 -0.52,0.441 -1.36,0.566 -2.56,0.39 l -19.31,-2.937 21.76,-11.438" /><path
         id="path52"
         style="fill:#141212;fill-opacity:1;fill-rule:nonzero;stroke:none"
         d="m 1418.31,821.195 -0.02,-1.527 c 0,-0.836 0.11,-1.617 0.35,-2.34 0.24,-0.723 1.01,-1.086 2.33,-1.09 l 8.82,-0.035 4.97,4.563 -12.39,6.172 c -0.12,0.062 -0.22,0.125 -0.3,0.183 -0.11,0.059 -0.2,0.125 -0.33,0.188 -0.11,0.058 -0.23,0.117 -0.35,0.175 -0.13,0.071 -0.24,0.121 -0.37,0.188 -0.23,0.113 -0.49,0.207 -0.71,0.269 -0.25,0.063 -0.48,0.094 -0.73,0.09 -0.41,0.012 -0.73,-0.066 -0.94,-0.215 -0.22,-0.156 -0.31,-0.382 -0.31,-0.675 l -0.02,-2.34 -3.15,0.008 0.01,0.91 0.09,20.515 3.14,-0.019 0,-0.266 c -0.01,-1.742 0.55,-3.269 1.64,-4.597 1.12,-1.329 2.65,-2.469 4.63,-3.438 l 18.86,-9.258 5.24,4.922 c 0.3,0.305 0.57,0.57 0.81,0.813 0.25,0.23 0.45,0.437 0.63,0.625 0.01,0.054 0.04,0.105 0.1,0.132 0.06,0.032 0.09,0.079 0.09,0.129 0.05,0.004 0.09,0.036 0.13,0.098 0.03,0.059 0.07,0.117 0.14,0.176 0.17,0.179 0.39,0.398 0.63,0.672 0.25,0.273 0.48,0.644 0.73,1.125 0.36,0.593 0.71,1.328 1.04,2.199 0.33,0.867 0.53,1.875 0.6,3.008 l 3.15,-0.012 -0.01,-0.898 -0.07,-15.477 -3.14,0.008 c 0,0.179 -0.02,0.312 -0.04,0.41 -0.04,0.09 -0.06,0.168 -0.05,0.219 0,0.062 0,0.125 0,0.179 0.01,0.071 0.01,0.129 0,0.188 0,0.652 -0.13,1.125 -0.39,1.394 -0.28,0.278 -0.59,0.442 -0.95,0.497 -0.06,0.003 -0.12,0.003 -0.17,0.003 -0.07,0 -0.32,-0.07 -0.73,-0.222 -0.43,-0.149 -1.03,-0.582 -1.81,-1.301 l -12.46,-11.375 13.4,-0.063 c 1.21,0 2.03,0.223 2.49,0.676 0.44,0.442 0.67,1.36 0.69,2.739 l 0,1.437 3.15,-0.012 -0.01,-0.902 -0.09,-20.879 -3.15,0.012 0.01,1.355 c 0,1.317 -0.21,2.235 -0.66,2.754 -0.44,0.508 -1.28,0.762 -2.47,0.77 l -13.32,0.05 12.27,-11.484 c 0.06,-0.051 0.15,-0.137 0.27,-0.273 0.31,-0.293 0.63,-0.547 0.99,-0.762 0.35,-0.215 0.78,-0.344 1.26,-0.41 0.06,0 0.12,0 0.19,0 l 0.17,0 c 0.12,0 0.22,0 0.27,0 0.06,0 0.1,0.008 0.14,0.039 0.02,0.039 0.07,0.078 0.13,0.137 0.19,0.058 0.33,0.222 0.46,0.488 0.12,0.273 0.17,0.652 0.17,1.133 0,0.058 0.01,0.117 0.01,0.175 0,0.059 -0.01,0.125 -0.01,0.176 0,0.059 0.02,0.137 0.05,0.227 0.03,0.086 0.05,0.222 0.05,0.41 l 3.16,-0.012 0,-0.898 -0.07,-15.488 -3.16,0.019 c -0.1,1.926 -0.59,3.586 -1.46,5 -0.86,1.406 -1.98,2.781 -3.36,4.109 l -5.21,4.875 -18.93,-9.101 c -1.86,-0.938 -3.38,-2.031 -4.56,-3.262 -1.17,-1.223 -1.76,-2.82 -1.77,-4.805 l 0,-0.175 -3.15,0.007 0,0.903 0.09,20.613 3.15,-0.019 c 0,-0.176 0,-0.364 0,-0.539 0,-0.184 0,-0.321 0,-0.45 0,-0.957 0.09,-1.59 0.25,-1.89 0.18,-0.305 0.55,-0.453 1.1,-0.453 0.29,0 0.52,0.031 0.7,0.089 0.18,0.059 0.33,0.149 0.46,0.262 l 0.72,0.352 0.9,0.363 12.35,6.074 -4.93,4.61 -8.82,0.039 c -1.33,0 -2.1,-0.364 -2.34,-1.075 -0.25,-0.722 -0.37,-1.504 -0.37,-2.343 l 0,-1.438 -3.16,0.012 0,0.898 0.1,20.977 3.16,-0.02" /><path
         id="path54"
         style="fill:#141212;fill-opacity:1;fill-rule:nonzero;stroke:none"
         d="m 1430.77,707.34 10.56,-1.692 c 1.19,-0.183 2.05,-0.058 2.57,0.372 0.52,0.429 0.89,1.269 1.09,2.507 l 0.22,1.426 3.12,-0.496 -0.14,-0.891 -3.29,-20.613 -3.12,0.488 0.24,1.426 c 0.19,1.25 0.11,2.156 -0.26,2.735 -0.37,0.566 -1.14,0.957 -2.32,1.14 l -28.61,4.563 c -1.2,0.195 -2.06,0.066 -2.58,-0.364 -0.52,-0.437 -0.88,-1.265 -1.08,-2.507 l -0.23,-1.426 -3.11,0.488 0.14,0.899 3.29,20.617 3.12,-0.5 -0.24,-1.426 c -0.19,-1.238 -0.11,-2.148 0.26,-2.727 0.37,-0.574 1.14,-0.945 2.32,-1.14 l 13.42,-2.141 2.22,13.945 -13.41,2.141 c -1.2,0.195 -2.04,0.066 -2.57,-0.359 -0.52,-0.434 -0.89,-1.274 -1.09,-2.524 l -0.22,-1.414 -3.11,0.496 0.14,0.891 3.29,20.613 3.11,-0.496 -0.23,-1.418 c -0.2,-1.25 -0.11,-2.148 0.25,-2.723 0.37,-0.578 1.14,-0.957 2.32,-1.152 l 28.62,-4.562 c 1.19,-0.196 2.04,-0.067 2.56,0.363 0.53,0.43 0.89,1.269 1.1,2.519 l 0.22,1.415 3.11,-0.497 -0.14,-0.886 -3.29,-20.617 -3.11,0.496 0.23,1.418 c 0.19,1.25 0.11,2.16 -0.26,2.734 -0.36,0.566 -1.13,0.957 -2.32,1.133 l -10.58,1.699 -2.21,-13.953" /><path
         id="path56"
         style="fill:#141212;fill-opacity:1;fill-rule:nonzero;stroke:none"
         d="m 1423.82,634.895 c -1.84,2.218 -5.83,4.25 -11.98,6.093 -4.14,1.25 -8.02,1.867 -11.66,1.828 -3.65,-0.031 -6.02,-1.574 -7.13,-4.621 -0.64,-2.754 0.2,-5.066 2.51,-6.961 2.32,-1.875 4.99,-3.41 8.02,-4.582 0.62,-0.183 1.25,-0.379 1.84,-0.593 0.59,-0.215 1.18,-0.403 1.75,-0.567 5.98,-1.808 10.3,-2.324 12.97,-1.562 2.68,0.761 4.44,1.953 5.31,3.574 0.04,0.105 0.08,0.234 0.16,0.359 0.07,0.141 0.14,0.305 0.19,0.473 0.52,2.168 -0.14,4.344 -1.98,6.559 z m -25.92,17.355 c 4.24,2.168 8.51,3.047 12.77,2.637 0.85,-0.078 1.68,-0.176 2.49,-0.332 0.79,-0.149 1.57,-0.332 2.32,-0.547 0.92,-0.285 1.85,-0.625 2.79,-1.035 0.94,-0.41 1.85,-0.91 2.75,-1.485 3.5,-2.129 6.37,-5.234 8.61,-9.316 2.25,-4.094 2.5,-9.004 0.78,-14.754 l -0.26,-0.871 c -1.73,-5.738 -4.68,-9.695 -8.8,-11.875 -4.13,-2.172 -8.24,-3.16 -12.32,-3 -1.06,0.008 -2.1,0.098 -3.11,0.289 -1.01,0.168 -1.99,0.398 -2.9,0.668 -0.69,0.223 -1.39,0.461 -2.13,0.73 -0.73,0.301 -1.43,0.629 -2.14,1.032 -3.85,1.968 -6.98,5.05 -9.39,9.214 -2.41,4.172 -2.69,9.336 -0.84,15.481 l 0.18,0.898 c 1.87,6.004 4.94,10.098 9.2,12.266" /><path
         id="path58"
         style="fill:#141212;fill-opacity:1;fill-rule:nonzero;stroke:none"
         d="m 1385.45,551.281 c 0.06,-0.031 0.13,-0.051 0.21,-0.082 0.09,-0.039 0.15,-0.078 0.2,-0.097 0.06,-0.02 0.13,-0.051 0.21,-0.09 0.08,-0.043 0.16,-0.071 0.2,-0.09 2.58,-1.152 4.63,-1.672 6.16,-1.563 1.53,0.11 2.71,0.442 3.54,0.993 0.31,0.257 0.59,0.5 0.83,0.757 0.25,0.25 0.43,0.512 0.55,0.789 0.15,0.332 0.25,0.704 0.31,1.141 0.07,0.43 0.08,0.891 0.02,1.371 -0.1,1.102 -0.66,2.309 -1.67,3.649 -1.01,1.339 -2.9,2.761 -5.65,4.242 l -4.91,-11.02 z m -20.93,-5.652 c -0.99,1.633 -1.82,3.141 -2.5,4.57 -0.7,1.422 -1.24,2.742 -1.68,3.992 -0.63,2.258 -0.85,4.348 -0.64,6.297 0.21,1.942 0.79,4.012 1.78,6.192 l 0.28,0.859 c 2.5,5.473 6.51,9.039 12.01,10.723 5.52,1.687 11.21,1.218 17.06,-1.403 5.97,-2.66 9.9,-6.398 11.75,-11.23 1.86,-4.84 1.67,-9.75 -0.54,-14.738 l -0.37,-0.821 c -2.15,-4.82 -5.2,-7.859 -9.15,-9.129 -3.94,-1.261 -7.74,-1.5 -11.4,-0.73 -0.92,0.16 -1.8,0.359 -2.63,0.621 -0.83,0.277 -1.64,0.578 -2.4,0.93 l 9.99,22.437 c -4.33,1.942 -8.47,2.77 -12.44,2.481 -3.96,-0.258 -6.78,-2.059 -8.46,-5.391 -0.5,-1.398 -0.62,-2.828 -0.41,-4.238 0.23,-1.422 0.66,-2.93 1.33,-4.539 0.29,-0.653 0.62,-1.332 0.97,-2.063 0.34,-0.699 0.69,-1.437 1.07,-2.187 l -0.36,-0.832 -3.26,-1.801" /><path
         id="path60"
         style="fill:#141212;fill-opacity:1;fill-rule:nonzero;stroke:none"
         d="m 1326.16,429.531 0.38,0.489 c 0.04,0.058 0.08,0.109 0.11,0.152 0.07,0.109 0.16,0.219 0.27,0.359 0.11,0.149 0.21,0.289 0.32,0.43 0.21,0.367 0.34,0.758 0.42,1.148 0.07,0.403 -0.11,0.762 -0.54,1.09 -0.09,0.082 -0.24,0.133 -0.42,0.199 -0.18,0.051 -0.36,0.122 -0.53,0.184 -0.05,0.039 -0.09,0.059 -0.11,0.078 -0.03,0.02 -0.08,0.02 -0.17,0.012 -0.17,0.047 -0.34,0.109 -0.49,0.148 -0.16,0.051 -0.27,0.078 -0.31,0.121 l -25.3,7.098 12.29,-17.809 c 0.05,-0.121 0.19,-0.339 0.41,-0.652 0.21,-0.308 0.46,-0.68 0.74,-1.117 0.06,-0.109 0.13,-0.231 0.24,-0.352 0.1,-0.109 0.18,-0.23 0.24,-0.339 0.26,-0.36 0.52,-0.692 0.79,-0.989 0.25,-0.301 0.5,-0.551 0.74,-0.722 l 0.07,-0.059 c 0.05,-0.039 0.11,-0.09 0.18,-0.141 0.07,-0.05 0.13,-0.097 0.18,-0.14 0.42,-0.239 0.93,-0.278 1.53,-0.129 0.6,0.14 1.43,0.922 2.47,2.308 l 0.22,0.293 2.51,-1.902 -0.54,-0.707 -8.98,-11.953 -2.52,1.902 c 1.34,2.078 1.84,3.668 1.54,4.801 -0.31,1.148 -0.84,2.219 -1.58,3.227 -0.06,0.121 -0.14,0.23 -0.25,0.351 -0.09,0.11 -0.17,0.231 -0.23,0.352 l -22.87,33.078 c -3.49,5.031 -5.32,9.101 -5.48,12.18 -0.16,3.089 0.64,5.8 2.42,8.152 l 0.47,0.769 c 1.99,2.559 3.93,4.008 5.81,4.348 1.88,0.371 3.44,0.109 4.66,-0.75 0.06,-0.039 0.1,-0.07 0.12,-0.078 0.03,-0.012 0.05,-0.039 0.1,-0.07 0.97,-0.731 1.52,-1.52 1.65,-2.379 0.15,-0.864 0.1,-1.653 -0.14,-2.364 -0.08,-0.316 -0.19,-0.578 -0.31,-0.789 -0.12,-0.211 -0.25,-0.41 -0.4,-0.597 l -0.61,-0.66 c -0.17,-0.321 -0.43,-0.633 -0.77,-0.883 -0.34,-0.27 -0.79,-0.5 -1.32,-0.707 -0.44,-0.192 -0.94,-0.34 -1.49,-0.461 -0.52,-0.121 -1.1,-0.192 -1.69,-0.18 -0.14,0.027 -0.3,0.039 -0.49,0.027 -0.2,-0.007 -0.39,-0.046 -0.59,-0.117 -0.34,-0.043 -0.69,-0.16 -1.05,-0.34 -0.36,-0.171 -0.69,-0.421 -0.99,-0.711 -0.31,-0.519 -0.29,-1.421 0.06,-2.699 0.35,-1.269 1.32,-3.222 2.87,-5.832 l 40.75,-11.39 c 0.14,-0.028 0.26,-0.071 0.37,-0.118 0.12,-0.05 0.25,-0.082 0.37,-0.109 1.78,-0.441 3.22,-0.492 4.3,-0.191 1.1,0.308 2.33,1.148 3.66,2.539 l 2.52,-1.891 -0.53,-0.719 -12.56,-16.691 -2.52,1.902" /><path
         id="path62"
         style="fill:#141212;fill-opacity:1;fill-rule:nonzero;stroke:none"
         d="m 1267.25,364.211 c 0.55,0.141 1.07,0.437 1.52,0.91 l 2.84,2.891 c 0.89,0.898 1.17,1.668 0.84,2.328 -0.32,0.66 -0.96,1.48 -1.9,2.5 -0.04,0.031 -0.1,0.09 -0.15,0.148 -0.06,0.071 -0.14,0.141 -0.23,0.231 -0.05,0.043 -0.09,0.082 -0.13,0.121 -0.04,0.039 -0.09,0.082 -0.12,0.129 -0.05,0.043 -0.09,0.09 -0.14,0.133 -0.04,0.039 -0.09,0.078 -0.13,0.109 -0.76,0.848 -1.93,2.211 -3.49,4.09 -1.58,1.871 -3.19,3.918 -4.87,6.16 -1.53,2.121 -2.97,4.18 -4.31,6.199 -1.33,2.031 -2.19,3.692 -2.58,5.012 l -0.65,0.629 -7.25,-7.379 c -0.76,-0.774 -1.14,-1.481 -1.16,-2.141 -0.01,-0.66 0.12,-1.222 0.43,-1.691 0.17,-0.238 0.33,-0.469 0.48,-0.66 0.14,-0.192 0.29,-0.34 0.42,-0.469 l 18.28,-17.992 c 0.98,-0.969 1.75,-1.379 2.3,-1.258 z m -11.01,-14.02 c 0.03,0.047 0.07,0.09 0.12,0.129 0.03,0.039 0.08,0.078 0.13,0.121 0.04,0.047 0.08,0.09 0.12,0.129 0.05,0.051 0.07,0.09 0.12,0.129 1.35,1.36 2.01,2.321 1.99,2.852 -0.03,0.539 -0.26,1.039 -0.69,1.558 l -0.06,0.063 -0.06,0.066 c -0.18,0.231 -0.33,0.461 -0.45,0.621 -0.13,0.18 -0.26,0.321 -0.39,0.442 l -20.52,20.199 c -0.09,0.09 -0.19,0.16 -0.28,0.25 -0.07,0.09 -0.18,0.148 -0.31,0.191 -0.55,0.391 -1.24,0.547 -2.07,0.52 -0.83,-0.02 -1.67,-0.461 -2.5,-1.32 l -2.28,-2.313 -11.19,8.371 0.62,0.653 1.89,1.918 c 4.31,-1.622 7.84,-2.219 10.61,-1.801 2.78,0.429 5.68,2.179 8.72,5.269 l 6.11,6.231 c 0.64,0.633 1.32,1.351 2.05,2.14 0.74,0.801 1.38,1.672 1.93,2.653 1.17,1.886 1.88,4.058 2.14,6.539 0.25,2.488 -0.66,5.211 -2.71,8.16 l 0.57,0.711 1.95,1.976 8.74,-10.867 -0.18,-0.191 c -1.06,-1.059 -1.67,-2.192 -1.86,-3.36 -0.17,-1.171 -0.19,-2.242 -0.06,-3.21 0.14,-0.641 0.3,-1.211 0.52,-1.711 0.21,-0.508 0.39,-0.911 0.52,-1.207 0.3,-0.641 0.74,-1.454 1.33,-2.442 0.58,-0.988 1.26,-2.07 2.02,-3.269 1.3,-2.02 2.86,-4.27 4.7,-6.762 1.85,-2.488 3.9,-4.93 6.19,-7.34 0.16,-0.16 0.32,-0.32 0.46,-0.469 0.16,-0.14 0.3,-0.281 0.42,-0.41 l 0.46,-0.441 c 1.23,-1.047 2.22,-1.571 2.97,-1.528 0.74,0.028 1.72,0.668 2.94,1.899 l 0.64,0.64 2.24,-2.21 -0.63,-0.641 -24.75,-25.16 -2.23,2.222" /><path
         id="path64"
         style="fill:#141212;fill-opacity:1;fill-rule:nonzero;stroke:none"
         d="m 1209.26,315.43 c -0.21,2.871 -2.29,6.851 -6.24,11.922 -2.64,3.41 -5.47,6.148 -8.46,8.238 -2.98,2.09 -5.81,2.211 -8.48,0.351 -2.12,-1.863 -2.77,-4.242 -1.98,-7.121 0.79,-2.879 2.09,-5.672 3.88,-8.379 0.4,-0.511 0.79,-1.031 1.16,-1.55 0.36,-0.52 0.73,-1.02 1.1,-1.481 3.83,-4.93 7.05,-7.859 9.67,-8.789 2.61,-0.922 4.74,-0.98 6.39,-0.16 0.09,0.078 0.21,0.16 0.36,0.219 0.12,0.058 0.26,0.152 0.41,0.269 1.68,1.449 2.41,3.61 2.19,6.481 z m -11.09,29.16 c 4.71,-0.692 8.7,-2.442 11.94,-5.238 0.66,-0.551 1.26,-1.122 1.83,-1.711 0.57,-0.582 1.1,-1.18 1.58,-1.801 0.59,-0.75 1.15,-1.57 1.68,-2.449 0.54,-0.879 0.99,-1.801 1.38,-2.801 1.63,-3.75 2.17,-7.949 1.63,-12.59 -0.55,-4.629 -3.18,-8.801 -7.92,-12.469 l -0.71,-0.562 c -4.73,-3.68 -9.42,-5.207 -14.04,-4.59 -4.62,0.621 -8.56,2.191 -11.79,4.691 -0.86,0.621 -1.66,1.301 -2.38,2.032 -0.72,0.738 -1.37,1.476 -1.96,2.238 -0.44,0.57 -0.88,1.172 -1.31,1.832 -0.43,0.648 -0.82,1.328 -1.15,2.066 -1.99,3.832 -2.78,8.153 -2.33,12.961 0.46,4.789 3.22,9.16 8.29,13.102 l 0.65,0.621 c 5.02,3.808 9.88,5.379 14.61,4.668" /><path
         id="path66"
         style="fill:#141212;fill-opacity:1;fill-rule:nonzero;stroke:none"
         d="m 1132.6,275.379 c -0.36,-0.199 -0.76,-0.481 -1.23,-0.828 -0.46,-0.332 -0.9,-0.731 -1.33,-1.192 -0.72,-0.777 -1.25,-1.718 -1.58,-2.808 -0.34,-1.102 -0.19,-2.41 0.42,-3.93 0.06,-0.09 0.11,-0.199 0.12,-0.289 0.03,-0.094 0.07,-0.191 0.13,-0.293 0.05,-0.109 0.11,-0.199 0.16,-0.269 0.04,-0.079 0.09,-0.168 0.15,-0.282 0.07,-0.097 0.13,-0.187 0.16,-0.269 0.05,-0.078 0.09,-0.137 0.12,-0.199 0.11,-0.071 0.19,-0.141 0.24,-0.211 0.04,-0.09 0.08,-0.161 0.11,-0.2 0.88,-1.007 1.75,-1.668 2.65,-1.937 0.9,-0.274 1.75,-0.383 2.55,-0.332 0.56,0.109 1.04,0.242 1.48,0.398 0.43,0.141 0.81,0.321 1.13,0.5 0.97,0.571 1.73,1.184 2.26,1.801 0.55,0.641 0.52,1.441 -0.06,2.422 l -5.38,9.16 -2.1,-1.242 z m -6.29,15.519 c -0.3,0.524 -0.73,0.911 -1.27,1.184 -0.54,0.277 -1.53,0.02 -2.96,-0.75 -2.35,-1.441 -3.75,-2.941 -4.21,-4.453 -0.46,-1.527 -0.48,-2.938 -0.07,-4.219 0.12,-0.57 0.29,-1.058 0.52,-1.519 0.24,-0.461 0.45,-0.86 0.67,-1.219 1.21,-2.082 2.83,-3.024 4.84,-2.852 2.02,0.18 4.01,0.801 5.96,1.879 0.1,0.063 0.21,0.129 0.34,0.199 0.13,0.071 0.27,0.172 0.43,0.262 l 1.87,1.09 -6.12,10.398 z m 12.14,-32.738 c -0.77,-0.461 -1.71,-1 -2.81,-1.609 -1.1,-0.61 -2.28,-1.153 -3.54,-1.602 -2.29,-0.859 -4.66,-1.179 -7.15,-0.98 -2.49,0.211 -4.6,1.793 -6.33,4.73 -0.25,0.422 -0.47,0.883 -0.67,1.383 -0.19,0.527 -0.35,1.098 -0.44,1.738 -0.14,1.168 0.18,2.571 0.92,4.2 0.76,1.621 2.36,3.441 4.81,5.429 l -0.24,0.383 c -3.1,-1.344 -5.71,-1.961 -7.81,-1.883 -2.11,0.09 -3.82,0.473 -5.13,1.172 -0.92,0.5 -1.68,1.07 -2.28,1.738 -0.59,0.661 -1.04,1.25 -1.34,1.762 -0.28,0.461 -0.58,1.16 -0.87,2.098 -0.31,0.941 -0.43,2.011 -0.38,3.23 0.07,1.77 0.77,3.762 2.11,5.981 1.34,2.218 3.93,4.449 7.75,6.699 l 0.78,0.461 21.5,12.629 1.6,-2.707 -1.25,-0.731 c -1.44,-0.851 -2.16,-1.57 -2.11,-2.191 0.04,-0.59 0.22,-1.16 0.52,-1.668 l 0.52,-1.262 13.96,-23.738 c 0.02,-0.051 0.06,-0.09 0.07,-0.121 0.01,-0.02 0.04,-0.063 0.07,-0.11 0.03,-0.05 0.1,-0.14 0.2,-0.25 0.1,-0.101 0.27,-0.312 0.5,-0.589 0.33,-0.571 0.74,-1.012 1.23,-1.313 0.49,-0.301 1.47,-0.027 2.92,0.82 l 1.24,0.731 1.59,-2.711 -0.77,-0.449 -19.17,-11.27" /><path
         id="path68"
         style="fill:#141212;fill-opacity:1;fill-rule:nonzero;stroke:none"
         d="m 1068.73,231.059 c 0.51,2.832 -0.48,7.211 -3,13.101 -1.7,3.981 -3.73,7.36 -6.1,10.129 -2.36,2.77 -5.05,3.609 -8.1,2.512 -2.53,-1.281 -3.78,-3.41 -3.74,-6.403 0.04,-2.968 0.58,-6 1.63,-9.089 0.26,-0.598 0.5,-1.2 0.72,-1.789 0.22,-0.59 0.44,-1.161 0.69,-1.711 2.44,-5.75 4.82,-9.387 7.11,-10.957 2.31,-1.551 4.35,-2.161 6.15,-1.782 0.1,0.051 0.24,0.09 0.39,0.121 0.15,0.028 0.31,0.09 0.47,0.149 2,0.992 3.26,2.898 3.78,5.719 z m -3.31,31.031 c 4.37,-1.871 7.78,-4.578 10.21,-8.11 0.49,-0.71 0.94,-1.41 1.34,-2.121 0.4,-0.711 0.76,-1.429 1.06,-2.14 0.37,-0.887 0.71,-1.821 1.01,-2.797 0.28,-0.992 0.49,-2.012 0.61,-3.07 0.63,-4.032 0.08,-8.231 -1.62,-12.582 -1.7,-4.34 -5.31,-7.7 -10.82,-10.059 l -0.83,-0.352 c -5.52,-2.347 -10.44,-2.64 -14.74,-0.871 -4.33,1.782 -7.73,4.293 -10.22,7.532 -0.67,0.82 -1.27,1.679 -1.79,2.562 -0.5,0.898 -0.95,1.789 -1.32,2.68 -0.29,0.648 -0.55,1.359 -0.81,2.097 -0.25,0.743 -0.44,1.5 -0.59,2.289 -0.95,4.223 -0.6,8.602 1.05,13.122 1.66,4.519 5.44,8.039 11.34,10.562 l 0.8,0.438 c 5.81,2.429 10.91,2.699 15.32,0.82" /><path
         id="path70"
         style="fill:#141212;fill-opacity:1;fill-rule:nonzero;stroke:none"
         d="m 975.172,230.621 -1.477,-0.402 c -1.211,-0.34 -1.992,-0.789 -2.363,-1.367 -0.379,-0.571 -0.41,-1.422 -0.086,-2.59 l 6.785,-24.453 c 0.039,-0.118 0.078,-0.25 0.11,-0.387 0.047,-0.152 0.117,-0.301 0.222,-0.461 0.039,-0.121 0.059,-0.191 0.078,-0.25 0.012,-0.063 0.032,-0.121 0.051,-0.18 0.008,-0.062 0.028,-0.133 0.059,-0.211 0.019,-0.09 0.039,-0.16 0.058,-0.218 0.243,-0.872 0.547,-1.481 0.926,-1.84 0.383,-0.371 0.774,-0.582 1.172,-0.66 0.254,-0.063 0.5,-0.082 0.723,-0.082 0.207,-0.008 0.383,0.011 0.488,0.039 0.176,0.05 0.312,0.089 0.391,0.121 0.097,0.019 0.207,0.019 0.332,-0.008 0.058,0.019 0.117,0.027 0.175,0.047 0.051,0.019 0.098,0.031 0.129,0.043 0.028,0.008 0.067,0.019 0.125,0.027 l 2.18,0.602 c 1.328,0.371 1.98,1.039 1.961,1.988 -0.02,0.973 -0.313,2.492 -0.898,4.57 -0.008,0.051 -0.028,0.11 -0.04,0.172 -0.019,0.059 -0.039,0.117 -0.046,0.18 l -2.766,9.98 c -0.027,0.047 -0.039,0.09 -0.039,0.117 -0.02,0.024 -0.027,0.071 -0.039,0.133 -1.395,5.028 -2.117,9.778 -2.188,14.239 -0.047,4.468 2.207,7.339 6.778,8.609 l 0.832,0.32 c 2.625,0.672 4.773,0.551 6.453,-0.359 1.691,-0.891 2.98,-2.09 3.898,-3.578 0.301,-0.41 0.555,-0.883 0.75,-1.383 0.204,-0.508 0.374,-0.981 0.504,-1.438 0.47,-1.742 0.45,-3.211 -0.1,-4.39 -0.54,-1.172 -1.283,-2.012 -2.201,-2.512 -0.144,-0.098 -0.339,-0.211 -0.566,-0.301 -0.215,-0.097 -0.418,-0.168 -0.594,-0.207 l -0.871,-0.25 c -0.164,-0.051 -0.359,-0.082 -0.574,-0.121 -0.207,-0.019 -0.402,-0.019 -0.598,-0.019 -0.789,-0.032 -1.59,0.218 -2.402,0.738 -0.801,0.519 -1.406,1.543 -1.816,3.043 -0.235,0.808 -0.301,1.457 -0.223,1.957 0.086,0.492 0.223,0.941 0.418,1.371 0.039,0.07 0.07,0.141 0.078,0.199 0.019,0.082 0.039,0.153 0.09,0.211 0.144,0.36 0.262,0.692 0.332,0.988 0.066,0.301 0.078,0.571 0.008,0.793 -0.059,0.239 -0.262,0.399 -0.606,0.489 -0.332,0.09 -0.691,0.148 -1.074,0.179 -0.059,-0.019 -0.117,-0.019 -0.176,-0.007 -0.066,0.007 -0.137,0.007 -0.183,-0.012 -1.672,-0.711 -2.559,-2.168 -2.668,-4.379 -0.098,-2.211 0.129,-4.539 0.683,-7 0.168,-1.082 0.41,-2.129 0.696,-3.18 0.281,-1.031 0.554,-1.992 0.789,-2.859 l 3.535,-12.742 c 0.039,-0.121 0.129,-0.36 0.254,-0.731 0.136,-0.359 0.293,-0.769 0.488,-1.211 0.129,-0.289 0.273,-0.566 0.41,-0.867 0.156,-0.312 0.313,-0.531 0.481,-0.672 0.507,-0.48 1.113,-0.668 1.824,-0.558 0.722,0.097 1.554,0.289 2.472,0.539 0.118,0.039 0.235,0.058 0.34,0.101 0.129,0.028 0.235,0.071 0.352,0.098 l 0.851,-3.039 -0.871,-0.238 -34.609,-9.614 -0.84,3.043 1.387,0.399 c 1.211,0.332 2.012,0.781 2.383,1.34 0.371,0.582 0.39,1.441 0.07,2.589 l -7.746,27.93 c -0.32,1.16 -0.789,1.891 -1.406,2.18 -0.614,0.293 -1.524,0.269 -2.735,-0.059 l -1.394,-0.39 -0.832,3.05 0.859,0.231 20.207,5.609 0.84,-3.039" /><path
         id="path72"
         style="fill:#141212;fill-opacity:1;fill-rule:nonzero;stroke:none"
         d="m 901.996,211.051 c -0.086,0.59 -0.301,1.14 -0.644,1.64 -0.332,0.5 -1.114,0.688 -2.305,0.59 -0.41,-0.062 -0.984,-0.191 -1.719,-0.39 -0.73,-0.18 -1.484,-0.481 -2.285,-0.891 -1.113,-0.648 -2.09,-1.539 -2.891,-2.68 -0.82,-1.14 -1.074,-2.699 -0.82,-4.648 0.324,-2.262 1.27,-3.981 2.863,-5.152 1.571,-1.18 3.602,-1.622 6.043,-1.34 0.176,0.019 0.371,0.05 0.578,0.082 0.204,0.019 0.399,0.047 0.575,0.07 0.41,0.129 0.812,0.227 1.191,0.309 0.383,0.078 0.742,0.199 1.074,0.379 l -1.66,12.031 z m 0.988,-31.301 c 1.707,0.23 2.684,0.719 2.879,1.449 0.207,0.723 0.254,1.473 0.137,2.242 l 0,0.079 -0.02,0.101 -0.007,0.078 -1.477,10.61 c -0.586,-0.137 -1.23,-0.27 -1.933,-0.399 -0.723,-0.129 -1.454,-0.238 -2.227,-0.359 -0.645,-0.141 -1.297,-0.27 -1.953,-0.36 -0.645,-0.082 -1.25,-0.171 -1.778,-0.25 l -0.898,-0.113 c -4.812,-0.68 -8.555,-0.207 -11.23,1.383 -2.676,1.598 -4.532,3.508 -5.567,5.73 -0.254,0.571 -0.469,1.149 -0.644,1.719 -0.176,0.59 -0.293,1.141 -0.371,1.672 -0.079,0.547 -0.079,1.316 0,2.328 0.078,1 0.382,2.102 0.957,3.27 0.8,1.679 2.324,3.34 4.57,4.949 2.266,1.609 5.773,2.742 10.527,3.41 l 0.891,0.133 22.996,3.187 0.441,-3.129 -1.437,-0.191 c -1.356,-0.18 -2.227,-0.539 -2.617,-1.051 -0.379,-0.488 -0.496,-1.347 -0.332,-2.539 l 3.945,-28.34 c 0.207,-1.55 0.508,-2.449 0.91,-2.699 0.391,-0.238 1.024,-0.371 1.875,-0.371 0.059,0.012 0.125,0.02 0.215,0.02 0.086,0.019 0.164,0.043 0.223,0.043 0.058,0.019 0.117,0.019 0.175,0.019 0.059,0.008 0.129,0.02 0.188,0.039 0.242,-0.031 0.496,-0.031 0.762,0 0.261,0.039 0.586,0.09 0.937,0.129 l 0.438,-3.109 -0.899,-0.129 -20.762,-2.891 -0.437,3.121 1.523,0.219" /><path
         id="path74"
         style="fill:#141212;fill-opacity:1;fill-rule:nonzero;stroke:none"
         d="m 804.418,205.551 c 2.383,2.199 4.504,3.847 6.367,4.937 1.887,1.114 3.723,1.852 5.528,2.231 0.468,0.133 0.968,0.211 1.476,0.242 0.508,0.039 1.004,0.07 1.473,0.07 l 0.91,0.098 c 6.355,0.019 11.551,-1.617 15.586,-4.93 4.031,-3.308 6.082,-7.879 6.152,-13.699 0.02,-0.719 -0.012,-1.449 -0.058,-2.211 -0.051,-0.738 -0.129,-1.508 -0.247,-2.289 -0.71,-5.051 -2.832,-9.691 -6.347,-13.941 -3.516,-4.239 -8.633,-6.411 -15.36,-6.508 l -0.898,0 c -3.664,-0.039 -6.504,0.59 -8.527,1.918 -2.02,1.332 -3.407,2.832 -4.149,4.492 -0.304,0.551 -0.527,1.09 -0.656,1.66 -0.125,0.57 -0.195,1.09 -0.195,1.578 -0.02,0.961 0.343,1.832 1.035,2.621 0.715,0.782 1.68,1.192 2.883,1.211 l 0.898,0.008 c 1.316,0.012 2.371,-0.219 3.152,-0.73 0.782,-0.5 1.418,-1.079 1.914,-1.727 0.247,-0.363 0.45,-0.703 0.598,-1.031 0.145,-0.332 0.262,-0.61 0.32,-0.852 0.071,-0.179 0.137,-0.328 0.188,-0.449 0.066,-0.121 0.125,-0.27 0.195,-0.441 0.36,-0.957 0.821,-1.778 1.336,-2.457 0.508,-0.692 1.406,-1.051 2.668,-1.102 2.332,0.211 4.09,1.422 5.262,3.621 1.172,2.211 1.926,4.598 2.258,7.188 0.105,0.839 0.183,1.66 0.222,2.48 0.059,0.801 0.078,1.602 0.071,2.391 -0.071,5.281 -1.035,9.66 -2.91,13.14 -1.875,3.5 -4.739,5.27 -8.575,5.34 -1.984,-0.14 -3.781,-0.719 -5.383,-1.73 -1.601,-1.008 -3.125,-2.18 -4.539,-3.52 l -0.898,-0.012 -1.75,2.403" /><path
         id="path76"
         style="fill:#141212;fill-opacity:1;fill-rule:nonzero;stroke:none"
         d="m 727.25,188.762 0.898,-0.09 2.676,-0.301 c 1.692,-3.851 3.301,-6.199 4.805,-7.031 1.504,-0.84 2.707,-1.36 3.594,-1.57 l 0.078,-0.008 c 0.488,-0.051 0.898,0.078 1.222,0.367 0.34,0.293 0.567,1.07 0.704,2.32 L 744.215,210 c 0.137,1.199 -0.039,2.039 -0.5,2.539 -0.449,0.512 -1.336,0.832 -2.645,0.981 l -1.437,0.16 0.344,3.121 0.886,-0.102 20.852,-2.25 -0.344,-3.14 -1.426,0.171 c -1.25,0.129 -2.148,0 -2.715,-0.39 -0.546,-0.391 -0.898,-1.18 -1.023,-2.391 L 753.09,179.98 c -0.067,-0.589 0.012,-1.031 0.215,-1.32 0.215,-0.308 0.468,-0.488 0.754,-0.59 0.066,0.051 0.136,0.078 0.195,0.078 0.059,-0.007 0.117,-0.019 0.176,-0.019 0.117,-0.02 0.789,0.043 2.011,0.18 1.219,0.14 2.586,0.8 4.11,1.961 0.644,0.468 1.328,1.07 2.051,1.812 0.714,0.738 1.367,1.617 1.953,2.637 l 0.898,-0.098 2.774,-0.301 -4.539,-11.91 -0.911,0.102 -33.73,3.66 -1.797,12.59" /><path
         id="path78"
         style="fill:#141212;fill-opacity:1;fill-rule:nonzero;stroke:none"
         d="m 679.125,220.41 c 0.148,0.602 0.109,1.18 -0.098,1.738 -0.195,0.582 -1.093,1.082 -2.656,1.512 -2.695,0.578 -4.726,0.469 -6.121,-0.308 -1.387,-0.782 -2.375,-1.774 -2.969,-2.993 -0.304,-0.48 -0.527,-0.968 -0.676,-1.468 -0.144,-0.481 -0.273,-0.942 -0.359,-1.352 -0.558,-2.32 -0.039,-4.117 1.543,-5.398 1.57,-1.262 3.445,-2.192 5.586,-2.75 0.125,-0.032 0.242,-0.059 0.398,-0.09 0.137,-0.039 0.305,-0.082 0.481,-0.121 l 2.098,-0.489 2.773,11.719 z m -6.172,-15.539 c -0.41,0.09 -0.898,0.18 -1.465,0.25 -0.566,0.07 -1.16,0.09 -1.797,0.051 -1.054,-0.051 -2.089,-0.371 -3.086,-0.934 -0.996,-0.558 -1.796,-1.609 -2.402,-3.129 -0.019,-0.121 -0.066,-0.218 -0.117,-0.3 -0.039,-0.079 -0.086,-0.18 -0.117,-0.297 -0.028,-0.121 -0.059,-0.211 -0.067,-0.301 -0.031,-0.09 -0.05,-0.191 -0.07,-0.301 -0.039,-0.121 -0.059,-0.219 -0.078,-0.32 -0.02,-0.07 -0.039,-0.149 -0.047,-0.211 0.027,-0.141 0.039,-0.238 0.02,-0.328 -0.032,-0.09 -0.051,-0.16 -0.059,-0.231 -0.07,-1.34 0.117,-2.41 0.574,-3.218 0.449,-0.821 0.988,-1.481 1.602,-2 0.488,-0.313 0.937,-0.551 1.359,-0.743 0.418,-0.187 0.801,-0.328 1.16,-0.41 1.094,-0.258 2.063,-0.359 2.883,-0.269 0.828,0.09 1.367,0.679 1.629,1.789 l 2.441,10.34 -2.363,0.562 z m -7.695,-16.5 c -0.867,0.207 -1.922,0.469 -3.133,0.777 -1.223,0.332 -2.453,0.762 -3.684,1.301 -2.226,0.961 -4.179,2.371 -5.828,4.242 -1.66,1.879 -2.101,4.469 -1.308,7.789 0.117,0.481 0.273,0.961 0.488,1.469 0.215,0.512 0.496,1.02 0.867,1.539 0.723,0.953 1.914,1.75 3.574,2.403 1.672,0.66 4.075,0.847 7.227,0.609 l 0.098,0.441 c -3.172,1.18 -5.489,2.528 -6.954,4.039 -1.464,1.52 -2.421,2.981 -2.89,4.391 -0.32,0.988 -0.469,1.938 -0.438,2.828 0.02,0.879 0.106,1.621 0.243,2.211 0.117,0.52 0.402,1.231 0.82,2.11 0.43,0.878 1.074,1.75 1.953,2.589 1.289,1.243 3.176,2.2 5.684,2.871 2.48,0.668 5.898,0.489 10.226,-0.519 l 0.879,-0.211 24.246,-5.73 -0.711,-3.071 -1.406,0.332 c -1.633,0.391 -2.648,0.348 -3.039,-0.109 -0.379,-0.473 -0.645,-1 -0.781,-1.57 l -0.489,-1.282 -6.328,-26.8 c -0.019,-0.059 -0.027,-0.098 -0.039,-0.129 0,-0.032 -0.019,-0.071 -0.027,-0.121 -0.012,-0.059 -0.02,-0.168 -0.031,-0.329 0,-0.152 -0.02,-0.41 -0.039,-0.781 -0.157,-0.629 -0.157,-1.23 -0.02,-1.789 0.156,-0.562 1.035,-1.031 2.676,-1.422 l 1.398,-0.328 -0.715,-3.07 -0.879,0.219 -21.64,5.101" /><path
         id="path80"
         style="fill:#141212;fill-opacity:1;fill-rule:nonzero;stroke:none"
         d="m 580.152,221.621 -0.39,-1.012 c -0.207,-0.558 -0.176,-1.019 0.086,-1.39 0.293,-0.36 0.636,-0.649 1.066,-0.887 0.203,-0.133 0.418,-0.25 0.645,-0.344 0.222,-0.078 0.41,-0.148 0.586,-0.218 0.046,-0.02 0.105,-0.051 0.164,-0.071 l 1.347,-0.508 -1.133,-2.953 -0.839,0.332 -19.571,7.52 1.125,2.941 1.336,-0.511 c 1.574,-0.61 2.578,-0.731 3.008,-0.348 0.43,0.379 0.781,0.887 1.008,1.5 l 0.652,1.187 9.883,25.723 c 0.02,0.047 0.039,0.098 0.039,0.117 0.02,0.039 0.039,0.082 0.051,0.141 0.027,0.051 0.047,0.148 0.066,0.301 0.039,0.14 0.09,0.398 0.157,0.757 0.214,0.563 0.292,1.141 0.234,1.75 -0.059,0.59 -0.867,1.204 -2.442,1.801 l -1.347,0.512 1.133,2.937 0.839,-0.308 19.571,-7.52 -1.133,-2.949 -1.336,0.52 c -1.172,0.461 -2.082,0.558 -2.715,0.32 -0.637,-0.231 -1.172,-0.922 -1.601,-2.031 l -7.356,-19.16 20.664,13.16 0.489,1.269 c 0.41,1.071 0.41,1.84 0.019,2.313 -0.398,0.468 -1.133,0.918 -2.187,1.328 -0.223,0.082 -0.457,0.172 -0.711,0.269 -0.266,0.102 -0.5,0.18 -0.715,0.27 l 1.125,2.941 0.84,-0.32 19.5,-7.48 -1.141,-2.95 -1.34,0.52 c -1.172,0.461 -2.078,0.558 -2.715,0.32 -0.644,-0.23 -1.172,-0.922 -1.601,-2.031 L 605.121,212.32 c -0.437,-1.121 -0.496,-1.98 -0.176,-2.582 0.313,-0.609 1.055,-1.129 2.227,-1.578 l 1.359,-0.519 -1.144,-2.942 -0.84,0.321 -19.481,7.48 1.122,2.949 1.347,-0.519 c 1.172,-0.45 2.09,-0.559 2.727,-0.321 0.633,0.243 1.16,0.922 1.59,2.032 l 7.011,18.238 -20.711,-13.258" /><path
         id="path82"
         style="fill:#141212;fill-opacity:1;fill-rule:nonzero;stroke:none"
         d="m 509.438,264.309 c -0.028,-0.047 -0.067,-0.118 -0.106,-0.188 -0.051,-0.082 -0.07,-0.152 -0.109,-0.211 -0.039,-0.051 -0.067,-0.121 -0.118,-0.199 -0.027,-0.07 -0.078,-0.141 -0.097,-0.191 -1.348,-2.481 -2.031,-4.481 -2.039,-6.02 -0.012,-1.52 0.222,-2.719 0.703,-3.602 0.223,-0.328 0.457,-0.617 0.691,-0.886 0.235,-0.262 0.489,-0.473 0.742,-0.602 0.313,-0.18 0.684,-0.32 1.114,-0.41 0.429,-0.102 0.879,-0.141 1.367,-0.129 1.105,0.02 2.363,0.481 3.769,1.391 1.407,0.886 2.981,2.66 4.68,5.289 l -10.597,5.758 z m -3.965,21.32 c 1.679,0.859 3.261,1.57 4.746,2.133 1.465,0.558 2.844,1.019 4.113,1.359 2.293,0.438 4.402,0.488 6.328,0.129 1.914,-0.359 3.934,-1.109 6.043,-2.262 l 0.832,-0.359 c 5.235,-2.918 8.485,-7.18 9.715,-12.82 1.25,-5.618 0.332,-11.25 -2.734,-16.887 -3.125,-5.742 -7.168,-9.352 -12.137,-10.82 -4.973,-1.473 -9.844,-0.891 -14.641,1.718 l -0.789,0.43 c -4.64,2.52 -7.433,5.801 -8.379,9.832 -0.949,4.027 -0.89,7.84 0.176,11.438 0.215,0.902 0.496,1.75 0.828,2.562 0.344,0.809 0.703,1.59 1.114,2.328 l 21.582,-11.75 c 2.265,4.16 3.418,8.219 3.457,12.199 0.05,3.973 -1.524,6.922 -4.696,8.86 -1.379,0.613 -2.785,0.863 -4.211,0.761 -1.425,-0.121 -2.957,-0.441 -4.617,-0.98 -0.676,-0.23 -1.398,-0.5 -2.121,-0.781 -0.742,-0.289 -1.504,-0.598 -2.293,-0.918 l -0.793,0.429 -1.523,3.399" /><path
         id="path84"
         style="fill:#141212;fill-opacity:1;fill-rule:nonzero;stroke:none"
         d="m 409.145,356.488 c 0.89,0.973 1.464,1.934 1.738,2.864 0.273,0.929 -0.477,2.238 -2.266,3.929 -2.832,2.41 -5.508,3.66 -8.015,3.75 -2.512,0.078 -4.719,-0.351 -6.633,-1.281 -0.789,-0.43 -1.504,-0.891 -2.156,-1.391 -0.657,-0.5 -1.223,-1.019 -1.711,-1.55 -0.399,-0.438 -0.868,-1.098 -1.395,-1.95 -0.539,-0.859 -0.949,-1.879 -1.223,-3.089 -0.379,-1.75 -0.222,-3.84 0.469,-6.25 0.684,-2.411 2.578,-5.04 5.645,-7.899 0.324,-0.289 0.675,-0.59 1.066,-0.91 0.399,-0.32 0.789,-0.621 1.199,-0.891 l 13.282,14.668 z M 391.93,337.469 c -0.129,0.133 -0.254,0.261 -0.371,0.402 -0.11,0.141 -0.235,0.277 -0.364,0.399 -0.086,0.082 -0.203,0.171 -0.332,0.3 -0.136,0.129 -0.273,0.239 -0.41,0.371 -3.066,2.68 -6.015,4.34 -8.848,4.969 -2.832,0.621 -5.417,-0.351 -7.753,-2.93 -0.399,-0.449 -0.848,-1.019 -1.348,-1.699 -0.496,-0.679 -0.918,-1.422 -1.258,-2.25 -0.598,-1.57 -0.773,-3.34 -0.527,-5.351 0.242,-2.008 1.543,-4.121 3.914,-6.34 1.769,-1.531 3.105,-2.078 3.996,-1.68 0.898,0.41 1.758,1.07 2.617,2.012 l 10.684,11.797 z m -21.797,-15.348 c -0.051,0.039 -0.09,0.09 -0.129,0.117 -0.039,0.051 -0.086,0.09 -0.125,0.133 -1.074,0.961 -2.324,2.141 -3.762,3.5 -1.426,1.379 -2.781,2.899 -4.101,4.578 -2.266,2.852 -3.836,6.039 -4.707,9.551 -0.879,3.5 0.207,6.941 3.281,10.328 2.012,2.211 4.336,3.453 7.004,3.723 2.664,0.25 5.144,0 7.441,-0.781 0.86,-0.301 1.668,-0.629 2.43,-1 0.762,-0.36 1.426,-0.758 2.004,-1.211 l 0.535,0.601 c -0.352,0.41 -0.703,0.801 -1.035,1.199 -0.332,0.391 -0.664,0.813 -0.985,1.262 -1.925,2.789 -3.066,6.051 -3.418,9.758 -0.351,3.723 0.977,7.262 4.004,10.601 0.645,0.7 1.387,1.399 2.246,2.079 0.868,0.679 1.844,1.293 2.969,1.8 2.656,1.231 5.985,1.59 9.988,1.039 4.004,-0.546 8.575,-3.16 13.743,-7.82 l 0.652,-0.617 24.23,-21.922 -3.027,-3.328 -1.34,1.211 c -1.551,1.398 -2.851,2.019 -3.906,1.828 -1.055,-0.168 -2.324,-1.078 -3.809,-2.73 L 392.77,315.602 c -0.207,-0.231 -0.344,-0.372 -0.391,-0.43 -0.07,-0.07 -0.117,-0.133 -0.156,-0.184 l 0.058,-0.047 c -0.039,-0.043 -0.09,-0.113 -0.176,-0.203 -0.078,-0.09 -0.234,-0.258 -0.48,-0.539 -0.047,-0.039 -0.098,-0.078 -0.117,-0.129 -0.137,-0.129 -0.235,-0.281 -0.34,-0.429 -0.098,-0.161 -0.227,-0.321 -0.391,-0.5 -0.351,-0.571 -0.488,-1.282 -0.402,-2.121 0.09,-0.848 0.84,-1.899 2.266,-3.2 l 1.261,-1.148 -3.019,-3.34 -0.664,0.609 -20.086,18.18" /><path
         id="path86"
         style="fill:#141212;fill-opacity:1;fill-rule:nonzero;stroke:none"
         d="m 331.176,402.09 c 2.863,0.32 6.769,2.519 11.711,6.621 3.308,2.758 5.976,5.668 7.957,8.73 1.992,3.047 2.011,5.879 0.078,8.489 -1.934,2.05 -4.336,2.64 -7.188,1.75 -2.851,-0.891 -5.593,-2.27 -8.242,-4.16 -0.508,-0.418 -1.015,-0.821 -1.523,-1.2 -0.508,-0.379 -0.977,-0.761 -1.446,-1.14 -4.804,-3.989 -7.617,-7.309 -8.457,-9.969 -0.839,-2.641 -0.828,-4.77 0.039,-6.391 0.09,-0.09 0.157,-0.211 0.235,-0.34 0.078,-0.128 0.168,-0.269 0.273,-0.41 1.524,-1.621 3.711,-2.289 6.563,-1.98 z m 28.789,12.039 c -0.547,-4.738 -2.156,-8.77 -4.852,-12.098 -0.539,-0.691 -1.086,-1.312 -1.652,-1.91 -0.566,-0.59 -1.141,-1.121 -1.758,-1.621 -0.73,-0.609 -1.523,-1.199 -2.39,-1.762 -0.872,-0.547 -1.77,-1.047 -2.754,-1.468 -3.704,-1.75 -7.871,-2.418 -12.52,-2.032 -4.66,0.391 -8.898,2.883 -12.734,7.5 l -0.578,0.692 c -3.829,4.609 -5.508,9.25 -5.039,13.89 0.468,4.641 1.906,8.621 4.296,11.93 0.598,0.891 1.25,1.699 1.954,2.449 0.714,0.731 1.437,1.422 2.167,2.031 0.559,0.461 1.153,0.918 1.79,1.372 0.632,0.449 1.316,0.859 2.031,1.218 3.777,2.121 8.074,3.039 12.879,2.731 4.804,-0.289 9.258,-2.91 13.359,-7.84 l 0.645,-0.629 c 3.984,-4.883 5.703,-9.711 5.156,-14.453" /><path
         id="path88"
         style="fill:#141212;fill-opacity:1;fill-rule:nonzero;stroke:none"
         d="m 282.281,468.148 c 2.879,-0.058 7.039,1.633 12.461,5.063 3.653,2.301 6.66,4.84 9.024,7.609 2.371,2.782 2.761,5.578 1.191,8.41 -1.672,2.301 -3.965,3.18 -6.906,2.668 -2.938,-0.507 -5.848,-1.527 -8.719,-3.058 -0.559,-0.352 -1.105,-0.68 -1.652,-0.981 -0.547,-0.328 -1.082,-0.64 -1.59,-0.961 -5.274,-3.316 -8.508,-6.257 -9.68,-8.769 -1.172,-2.52 -1.426,-4.641 -0.769,-6.348 0.058,-0.101 0.117,-0.23 0.164,-0.371 0.058,-0.14 0.136,-0.289 0.234,-0.449 1.281,-1.813 3.359,-2.75 6.242,-2.813 z m 30.106,8.223 c -1.153,-4.633 -3.282,-8.43 -6.387,-11.383 -0.605,-0.597 -1.238,-1.16 -1.863,-1.668 -0.645,-0.5 -1.289,-0.961 -1.953,-1.379 -0.813,-0.519 -1.672,-1 -2.61,-1.441 -0.926,-0.441 -1.894,-0.809 -2.918,-1.102 -3.898,-1.25 -8.117,-1.386 -12.687,-0.386 -4.559,0.968 -8.438,4 -11.641,9.078 l -0.488,0.762 c -3.203,5.07 -4.277,9.878 -3.203,14.429 1.074,4.539 3.008,8.297 5.801,11.27 0.703,0.808 1.457,1.519 2.246,2.168 0.812,0.652 1.613,1.222 2.421,1.742 0.618,0.391 1.27,0.758 1.954,1.121 0.695,0.367 1.418,0.688 2.168,0.949 4.023,1.617 8.398,1.957 13.125,1.059 4.726,-0.918 8.808,-4.102 12.246,-9.52 l 0.547,-0.718 C 312.457,486 313.539,481 312.387,476.371" /><path
         id="path90"
         style="fill:#141212;fill-opacity:1;fill-rule:nonzero;stroke:none"
         d="m 252.23,546.941 -15.468,5.547 c -0.125,0 -0.313,0.051 -0.547,0.141 -0.242,0.09 -0.527,0.191 -0.84,0.301 -0.215,0.039 -0.449,0.082 -0.703,0.121 -0.254,0.058 -0.488,0.097 -0.692,0.14 -0.187,-0.031 -0.351,-0.05 -0.48,-0.07 -0.117,-0.031 -0.223,-0.07 -0.332,-0.109 -0.555,-0.25 -0.828,-0.621 -0.848,-1.09 -0.011,-0.461 0.157,-1.09 0.516,-1.844 l -2.781,-1.289 -0.383,0.82 -6.453,13.973 2.781,1.289 c 0.559,-1.07 1.262,-1.992 2.109,-2.75 0.852,-0.769 1.875,-1.43 3.059,-2.012 0.449,-0.25 0.918,-0.468 1.395,-0.629 0.48,-0.191 0.988,-0.378 1.542,-0.589 l 6.133,-2.121 13.496,16.941 c 0.039,0.07 0.079,0.148 0.157,0.219 0.07,0.058 0.117,0.14 0.136,0.199 1.301,1.66 2.168,3.203 2.649,4.601 0.476,1.411 0.332,2.989 -0.422,4.758 l 2.863,1.332 0.379,-0.82 8.645,-18.711 -2.864,-1.32 -0.566,1.222 c -0.281,0.59 -0.516,0.95 -0.711,1.008 -0.195,0.071 -0.383,0.071 -0.547,0 l -0.324,-0.148 c -0.156,-0.082 -0.32,-0.199 -0.488,-0.379 -0.137,-0.16 -0.301,-0.352 -0.469,-0.563 -0.059,-0.019 -0.106,-0.089 -0.176,-0.168 -0.047,-0.089 -0.117,-0.203 -0.203,-0.312 -0.137,-0.117 -0.254,-0.258 -0.352,-0.41 -0.097,-0.129 -0.195,-0.258 -0.273,-0.367 l -9.055,-11.313 6.895,-2.469 7.597,3.512 c 1.086,0.496 1.739,1.066 1.926,1.727 0.184,0.652 0.028,1.55 -0.5,2.691 l -0.605,1.309 2.863,1.32 0.371,-0.82 8.797,-19.028 -2.859,-1.32 -0.618,1.301 c -0.546,1.199 -1.132,1.929 -1.746,2.207 -0.636,0.269 -1.484,0.16 -2.57,-0.34 l -40.859,-18.867 c -0.828,-0.383 -1.328,-0.782 -1.524,-1.203 -0.215,-0.43 -0.273,-0.848 -0.203,-1.27 0.027,-0.187 0.059,-0.398 0.125,-0.598 0.059,-0.203 0.11,-0.351 0.168,-0.461 l 0.867,-1.89 -2.461,-1.129 -0.234,0.488 c -1.25,2.723 -3.027,4.781 -5.352,6.153 -2.324,1.367 -4.726,2.109 -7.226,2.218 l -1.102,2.168 -0.371,0.821 38.738,17.882" /><path
         id="path92"
         style="fill:#141212;fill-opacity:1;fill-rule:nonzero;stroke:none"
         d="m 197.758,691.332 c -0.899,4.656 -2.547,7.852 -4.961,9.59 -2.402,1.738 -4.844,2.668 -7.324,2.801 -0.731,0.043 -1.485,0.043 -2.235,-0.02 -0.754,-0.058 -1.457,-0.137 -2.101,-0.262 -3.953,-0.761 -6.699,-2.121 -8.25,-4.062 -1.543,-1.953 -2.442,-3.926 -2.668,-5.918 -0.137,-0.891 -0.184,-1.738 -0.156,-2.559 0.05,-0.82 0.117,-1.543 0.246,-2.199 0.39,-1.687 0.945,-2.879 1.66,-3.562 0.711,-0.696 2.011,-0.86 3.894,-0.5 l 22.356,4.308 -0.461,2.383 z m 19.726,1.316 c 1.817,0.356 2.989,0.969 3.457,1.821 0.469,0.847 0.528,2.222 0.176,4.109 l -0.586,3.008 4.426,0.84 0.164,-0.879 5.559,-28.899 -4.414,-0.847 -0.325,1.679 c -0.339,1.766 -0.886,2.989 -1.668,3.661 -0.773,0.675 -2.07,0.839 -3.898,0.492 l -42.598,-8.195 c -1.824,-0.364 -2.968,-0.989 -3.437,-1.907 -0.469,-0.918 -0.527,-2.254 -0.184,-4.019 l 0.321,-1.684 -4.422,-0.848 -0.168,0.887 -5.254,27.317 c -0.028,0.109 -0.047,0.222 -0.067,0.339 -0.019,0.129 -0.05,0.239 -0.07,0.356 -0.047,0.242 -0.105,0.469 -0.183,0.699 -0.071,0.227 -0.098,0.473 -0.09,0.715 -1.649,8.547 -0.84,15.168 2.402,19.844 3.262,4.699 7.297,7.531 12.109,8.523 0.059,0.012 0.118,0.02 0.149,0.031 0.027,0 0.066,0 0.125,0.02 5.07,0.977 9.746,-0.234 14.035,-3.621 4.285,-3.391 7.449,-10.363 9.473,-20.91 l 1.004,-5.215 13.964,2.683" /><path
         id="path94"
         style="fill:#141212;fill-opacity:1;fill-rule:nonzero;stroke:none"
         d="m 209.438,778.715 c 1.191,0.09 2.003,0.371 2.421,0.879 0.411,0.508 0.618,1.25 0.625,2.207 -0.007,0.129 -0.019,0.234 -0.019,0.312 -0.02,0.086 -0.047,0.176 -0.106,0.227 -0.011,0.113 -0.019,0.223 -0.019,0.308 -0.012,0.098 -0.012,0.2 -0.02,0.325 l -0.07,0.886 3.145,0.207 0.058,-0.898 1.367,-20.918 -3.144,-0.215 -0.098,1.445 c -0.078,1.375 -0.359,2.278 -0.848,2.696 -0.48,0.422 -1.32,0.586 -2.511,0.508 l -44.91,-2.93 c -0.118,0 -0.266,-0.012 -0.45,-0.031 -0.175,-0.008 -0.363,-0.047 -0.527,-0.118 -0.422,-0.085 -0.812,-0.308 -1.184,-0.664 -0.351,-0.359 -0.515,-0.984 -0.449,-1.875 l 0.117,-2.07 -2.683,-0.176 c -0.246,2.805 -1.223,5.266 -2.961,7.348 -1.727,2.066 -3.555,3.562 -5.477,4.461 -0.058,0.059 -0.109,0.098 -0.148,0.129 -0.02,0.027 -0.078,0.039 -0.137,0.027 l -0.293,3.231 -0.058,0.902 58.379,3.797" /><path
         id="path96"
         style="fill:#141212;fill-opacity:1;fill-rule:nonzero;stroke:none"
         d="m 188.539,846.598 c -0.059,-0.008 -0.137,0 -0.223,0.004 -0.089,0.003 -0.168,0.003 -0.226,0.011 -0.059,0 -0.137,0.008 -0.223,0.012 -0.09,0 -0.176,0 -0.226,0.004 -2.813,0.133 -4.922,-0.133 -6.309,-0.785 -1.367,-0.664 -2.352,-1.399 -2.93,-2.203 -0.203,-0.356 -0.371,-0.7 -0.507,-1.02 -0.125,-0.32 -0.204,-0.637 -0.215,-0.933 -0.02,-0.36 0.019,-0.758 0.129,-1.18 0.097,-0.422 0.261,-0.852 0.476,-1.281 0.5,-0.981 1.465,-1.911 2.891,-2.789 1.437,-0.879 3.691,-1.512 6.797,-1.891 l 0.566,12.051 z m 17.441,12.879 c 1.516,-1.141 2.844,-2.266 3.985,-3.34 1.164,-1.074 2.16,-2.11 3.019,-3.106 1.414,-1.863 2.383,-3.746 2.879,-5.636 0.528,-1.883 0.723,-4.028 0.617,-6.422 l 0.047,-0.903 c -0.332,-5.984 -2.761,-10.769 -7.285,-14.343 -4.519,-3.579 -9.988,-5.223 -16.406,-4.922 -6.531,0.3 -11.543,2.363 -15.027,6.187 -3.489,3.832 -5.11,8.461 -4.856,13.918 l 0.039,0.899 c 0.254,5.281 1.973,9.218 5.196,11.836 3.214,2.621 6.671,4.226 10.363,4.843 0.898,0.196 1.797,0.317 2.664,0.364 0.879,0.054 1.73,0.058 2.57,0.019 l -1.125,-24.543 c 4.727,-0.219 8.887,0.516 12.492,2.219 3.582,1.687 5.555,4.394 5.907,8.101 -0.047,1.497 -0.438,2.875 -1.161,4.106 -0.714,1.238 -1.691,2.48 -2.89,3.738 -0.52,0.504 -1.055,1.028 -1.633,1.563 -0.586,0.539 -1.191,1.093 -1.824,1.664 l 0.047,0.894 2.382,2.864" /><path
         id="path98"
         style="fill:#141212;fill-opacity:1;fill-rule:nonzero;stroke:none"
         d="m 203.336,922.727 c 0.223,-3.274 1.172,-6.18 2.852,-8.731 1.687,-2.547 3.796,-4.051 6.347,-4.488 1.414,-0.25 2.664,0.051 3.711,0.894 1.063,0.852 1.785,2.004 2.168,3.457 0.047,0.305 0.078,0.598 0.066,0.911 -0.007,0.3 -0.046,0.609 -0.117,0.925 -0.086,0.813 -0.293,1.614 -0.574,2.395 -0.293,0.777 -0.656,1.543 -1.066,2.289 l -13.387,2.348 z m 20.633,16.57 c 1.554,-1.918 2.531,-3.832 2.91,-5.77 0.391,-1.922 0.422,-3.859 0.09,-5.808 l -0.071,-0.899 c -0.136,-0.468 -0.3,-1.007 -0.468,-1.617 -0.164,-0.605 -0.399,-1.25 -0.703,-1.93 -0.372,-0.726 -0.86,-1.414 -1.465,-2.07 -0.594,-0.66 -1.434,-1.105 -2.508,-1.34 1.055,-2.629 1.68,-4.945 1.836,-6.949 0.164,-2.016 0.105,-3.879 -0.195,-5.586 l -0.071,-0.898 c -0.125,-0.352 -0.234,-0.711 -0.332,-1.082 -0.086,-0.387 -0.176,-0.754 -0.234,-1.106 -0.742,-2.433 -1.992,-4.551 -3.77,-6.383 -1.785,-1.816 -4.324,-2.433 -7.636,-1.847 -3.789,0.664 -6.582,2.703 -8.379,6.129 -1.805,3.418 -3.047,7.043 -3.719,10.879 -0.324,1.945 -0.52,3.835 -0.598,5.675 -0.078,1.848 -0.105,3.465 -0.105,4.868 l -6.203,1.089 c -2.071,0.364 -3.516,0.11 -4.344,-0.754 -0.813,-0.855 -1.418,-2.199 -1.797,-4.019 -0.176,-1.379 -0.059,-2.453 0.34,-3.266 0.41,-0.8 0.918,-1.402 1.516,-1.808 0.437,-0.325 0.847,-0.563 1.238,-0.731 0.402,-0.152 0.722,-0.285 0.937,-0.39 0.176,-0.028 0.332,-0.071 0.489,-0.125 0.136,-0.059 0.285,-0.137 0.449,-0.219 0.91,-0.406 1.719,-1 2.441,-1.793 0.703,-0.801 0.93,-1.969 0.664,-3.5 l -0.164,-0.887 c -0.254,-1.48 -0.879,-2.527 -1.867,-3.144 -0.996,-0.625 -2.148,-0.821 -3.445,-0.59 -0.469,0.086 -0.977,0.25 -1.516,0.496 -0.527,0.242 -1.035,0.562 -1.523,0.957 -1.543,1.301 -2.774,3.363 -3.711,6.18 -0.938,2.808 -1.004,6.488 -0.215,11.043 l 0.156,0.886 c 0.871,4.907 2.207,8.285 4.016,10.121 1.824,1.852 3.672,2.942 5.566,3.282 0.742,0.105 1.492,0.144 2.246,0.101 0.75,-0.039 1.426,-0.117 2.02,-0.219 l 20.832,-3.64 c 1.297,-0.238 2.508,-0.324 3.601,-0.278 1.114,0.051 1.828,0.504 2.161,1.36 0.027,0.117 0.019,0.258 -0.02,0.414 -0.031,0.164 -0.07,0.301 -0.109,0.434 -0.02,0.246 -0.067,0.5 -0.176,0.761 -0.117,0.254 -0.203,0.489 -0.293,0.696 -0.086,0.195 -0.176,0.371 -0.274,0.546 -0.086,0.164 -0.156,0.317 -0.195,0.446 l 0.156,0.886 2.442,1.399" /><path
         id="path100"
         style="fill:#141212;fill-opacity:1;fill-rule:nonzero;stroke:none"
         d="m 225.387,978.961 c 2.449,0.254 4.851,1.133 7.156,2.66 2.316,1.52 3.965,3.676 4.934,6.449 0.605,2.196 0.691,4.004 0.281,5.414 -0.418,1.407 -1.309,2.329 -2.684,2.75 -0.636,0.196 -1.25,0.227 -1.855,0.098 -0.606,-0.133 -1.25,-0.406 -1.946,-0.828 -0.859,-0.551 -1.843,-1.359 -2.949,-2.434 -1.101,-1.074 -2.422,-2.418 -3.914,-4.027 -2.512,-2.691 -5.148,-5.016 -7.922,-6.996 -2.761,-1.981 -5.976,-2.406 -9.656,-1.289 -3.039,0.926 -5.285,2.957 -6.738,6.105 -1.465,3.141 -1.465,7.086 -0.02,11.852 l 0.262,0.863 c 0.449,1.492 1.152,3.112 2.102,4.862 0.925,1.76 2.156,3.46 3.679,5.13 0.098,0.16 0.227,0.3 0.352,0.42 0.129,0.11 0.254,0.25 0.363,0.4 l 7.918,-2.41 -0.262,-0.87 -0.781,-2.57 c -1.574,-0.02 -3.059,-0.52 -4.445,-1.47 -1.387,-0.96 -2.539,-2.09 -3.438,-3.379 -0.254,-0.429 -0.508,-0.859 -0.769,-1.312 -0.266,-0.453 -0.469,-0.914 -0.617,-1.379 -0.059,-0.23 -0.118,-0.473 -0.165,-0.73 -0.058,-0.274 -0.097,-0.563 -0.128,-0.868 -0.125,-1.035 -0.059,-2.039 0.207,-3.023 0.261,-0.988 0.945,-1.652 2.031,-1.984 1.152,-0.348 2.226,-0.235 3.211,0.339 0.988,0.579 1.992,1.403 3.008,2.473 0.253,0.223 0.539,0.508 0.82,0.824 0.293,0.328 0.566,0.629 0.84,0.922 1.386,1.461 2.656,2.785 3.801,3.977 1.152,1.19 2.265,2.24 3.359,3.16 2.176,1.97 4.277,3.3 6.308,4.01 2.032,0.69 4.364,0.64 7,-0.17 3.848,-1.17 6.309,-3.66 7.375,-7.465 1.063,-3.809 1.004,-7.66 -0.187,-11.563 l -0.176,-0.886 c -0.156,-0.328 -0.312,-0.661 -0.437,-0.993 -0.137,-0.343 -0.266,-0.707 -0.391,-1.109 -0.695,-1.668 -1.543,-3.269 -2.551,-4.816 -1.004,-1.551 -2,-2.918 -2.996,-4.129 -0.215,-0.309 -0.441,-0.586 -0.637,-0.832 -0.195,-0.254 -0.41,-0.508 -0.605,-0.754 l -9.793,2.129 0.273,0.863 0.782,2.586" /><path
         id="path102"
         style="fill:#141212;fill-opacity:1;fill-rule:nonzero;stroke:none"
         d="m 225.277,1069.89 26.086,-11.77 c 1.864,-0.83 3.543,-1.42 5.047,-1.73 1.496,-0.32 2.656,0.27 3.457,1.75 0.235,0.68 0.442,1.53 0.598,2.54 0.164,1.01 0.281,2.06 0.379,3.14 0.019,0.78 0.051,1.54 0.09,2.29 0.039,0.73 0.007,1.44 -0.071,2.14 -0.019,0.54 -0.039,1.04 -0.058,1.5 -0.02,0.48 -0.078,0.9 -0.176,1.27 l -16.66,7.51 c -0.86,0.39 -1.543,0.48 -1.992,0.26 -0.469,-0.22 -0.809,-0.5 -1.036,-0.86 -0.058,-0.12 -0.097,-0.22 -0.156,-0.33 -0.047,-0.12 -0.086,-0.22 -0.144,-0.33 l -0.891,-1.97 -2.461,1.1 c 0.813,2.54 0.949,4.98 0.391,7.33 -0.547,2.36 -1.582,4.63 -3.086,6.83 l 0.363,0.82 1.668,3.69 33.887,-15.27 c 1.093,-0.5 1.945,-0.61 2.57,-0.32 0.613,0.27 1.18,0.99 1.707,2.15 l 0.586,1.3 2.883,-1.29 -0.371,-0.82 -6.582,-14.61 -5.344,2.41 c 0.937,-5.23 1.125,-9.38 0.566,-12.45 -0.566,-3.06 -1.16,-5.31 -1.797,-6.73 l -0.292,-0.86 c -0.059,0.02 -0.098,0.01 -0.118,-0.05 -0.175,-0.38 -0.429,-0.9 -0.75,-1.55 -0.324,-0.64 -0.754,-1.26 -1.289,-1.87 -0.754,-0.92 -1.797,-1.61 -3.156,-2.08 -1.367,-0.48 -3.125,-0.23 -5.254,0.73 l -21.25,9.58 c -0.105,0.05 -0.242,0.11 -0.41,0.18 -0.156,0.08 -0.34,0.12 -0.527,0.15 -0.352,0.08 -0.75,0.04 -1.2,-0.15 -0.449,-0.2 -0.859,-0.7 -1.23,-1.53 l -0.891,-1.97 -2.461,1.11 c 0.637,1.69 0.86,3.38 0.684,5.03 -0.164,1.66 -0.516,3.16 -1.035,4.51 -0.438,1.19 -0.906,2.2 -1.387,3.04 -0.469,0.84 -0.801,1.36 -0.965,1.58 l 0.371,0.82 1.707,3.78" /><path
         id="path104"
         style="fill:#141212;fill-opacity:1;fill-rule:nonzero;stroke:none"
         d="m 272.223,1153.64 c 0.105,2.05 0.644,3.88 1.629,5.46 l 0.468,0.76 c 1.094,1.78 2.473,2.91 4.133,3.37 1.66,0.47 3.223,0.23 4.707,-0.68 1.18,-0.73 1.844,-1.71 1.981,-2.96 0.148,-1.25 -0.047,-2.42 -0.575,-3.51 -0.031,-0.05 -0.07,-0.11 -0.128,-0.19 -0.04,-0.07 -0.079,-0.13 -0.106,-0.19 l -0.48,-0.77 c -0.301,-0.51 -0.704,-1.01 -1.18,-1.49 -0.469,-0.49 -1.047,-0.94 -1.731,-1.35 -0.144,-0.13 -0.332,-0.25 -0.546,-0.37 -0.215,-0.11 -0.379,-0.23 -0.528,-0.35 -0.234,-0.15 -0.476,-0.29 -0.75,-0.44 -0.265,-0.15 -0.519,-0.3 -0.742,-0.43 -0.187,-0.18 -0.363,-0.34 -0.559,-0.47 -0.175,-0.12 -0.332,-0.3 -0.457,-0.51 -0.578,-1.04 -0.734,-2.15 -0.461,-3.31 0.286,-1.15 1.231,-2.23 2.872,-3.24 l 19.386,-11.94 c 1.024,-0.63 1.856,-0.85 2.5,-0.65 0.653,0.2 1.317,0.84 1.973,1.91 l 0.75,1.22 2.687,-1.65 -0.468,-0.76 -10.86,-17.63 -2.687,1.65 0.664,1.08 c 0.664,1.07 0.93,1.94 0.82,2.61 -0.117,0.67 -0.691,1.32 -1.719,1.95 l -20.222,12.46 c -1.016,0.63 -1.797,0.83 -2.324,0.6 -0.54,-0.24 -0.957,-0.62 -1.282,-1.12 -0.027,-0.05 -0.047,-0.1 -0.066,-0.12 -0.02,-0.03 -0.031,-0.06 -0.07,-0.12 l -1.094,-1.75 -2.293,1.42 c 1.25,2.11 1.797,4.33 1.668,6.64 -0.137,2.29 -0.899,4.78 -2.274,7.46 l 0.477,0.77 2.168,3.53 4.98,-3.07 c -0.273,2.06 -0.359,4.14 -0.261,6.18" /><path
         id="path106"
         style="fill:#141212;fill-opacity:1;fill-rule:nonzero;stroke:none"
         d="m 327.953,1207.82 c -0.058,0.04 -0.117,0.08 -0.183,0.14 -0.071,0.06 -0.129,0.1 -0.176,0.14 -0.039,0.04 -0.11,0.09 -0.176,0.15 -0.07,0.05 -0.129,0.1 -0.176,0.13 -2.207,1.76 -4.062,2.78 -5.566,3.05 -1.504,0.28 -2.727,0.26 -3.672,-0.06 -0.371,-0.17 -0.703,-0.35 -0.996,-0.53 -0.305,-0.18 -0.547,-0.4 -0.735,-0.63 -0.234,-0.28 -0.429,-0.62 -0.585,-1.03 -0.176,-0.4 -0.293,-0.84 -0.372,-1.32 -0.175,-1.09 0.071,-2.4 0.715,-3.95 0.653,-1.55 2.117,-3.39 4.403,-5.53 l 7.519,9.44 z m 21.68,0.23 c 0.547,-1.82 0.976,-3.5 1.269,-5.04 0.313,-1.55 0.52,-2.98 0.625,-4.29 0.051,-2.34 -0.273,-4.43 -0.957,-6.26 -0.683,-1.82 -1.777,-3.68 -3.269,-5.56 l -0.5,-0.76 c -3.77,-4.65 -8.555,-7.11 -14.297,-7.36 -5.762,-0.24 -11.152,1.63 -16.18,5.63 -5.117,4.07 -7.969,8.68 -8.547,13.82 -0.586,5.15 0.821,9.85 4.219,14.13 l 0.559,0.69 c 3.289,4.14 7,6.32 11.14,6.56 4.133,0.23 7.871,-0.48 11.223,-2.15 0.859,-0.37 1.648,-0.8 2.383,-1.27 0.742,-0.47 1.433,-0.97 2.097,-1.49 l -15.293,-19.22 c 3.692,-2.96 7.512,-4.8 11.407,-5.53 3.906,-0.73 7.09,0.31 9.551,3.1 0.839,1.25 1.328,2.59 1.464,4.01 0.137,1.43 0.078,3 -0.156,4.73 -0.125,0.7 -0.262,1.45 -0.418,2.23 -0.148,0.77 -0.305,1.57 -0.488,2.4 l 0.555,0.71 3.613,0.92" /><path
         id="path108"
         style="fill:#141212;fill-opacity:1;fill-rule:nonzero;stroke:none"
         d="m 1363.94,1145.12 c 0,-10.12 -8.2,-18.33 -18.33,-18.33 -10.13,0 -18.33,8.21 -18.33,18.33 0,10.12 8.2,18.33 18.33,18.33 10.13,0 18.33,-8.21 18.33,-18.33" /><path
         id="path110"
         style="fill:#141212;fill-opacity:1;fill-rule:nonzero;stroke:none"
         d="m 400.113,1270.07 c 0,-10.12 -8.203,-18.33 -18.332,-18.33 -10.125,0 -18.328,8.21 -18.328,18.33 0,10.13 8.203,18.33 18.328,18.33 10.129,0 18.332,-8.2 18.332,-18.33" /><path
         id="path112"
         style="fill:#141212;fill-opacity:1;fill-rule:nonzero;stroke:none"
         d="m 468.441,292.699 c 0,-10.117 -8.203,-18.32 -18.328,-18.32 -10.129,0 -18.332,8.203 -18.332,18.32 0,10.129 8.203,18.34 18.332,18.34 10.125,0 18.328,-8.211 18.328,-18.34" /></g></g></svg>