<?xml version="1.0" encoding="UTF-8" standalone="no"?>
<svg
   xmlns:dc="http://purl.org/dc/elements/1.1/"
   xmlns:cc="http://creativecommons.org/ns#"
   xmlns:rdf="http://www.w3.org/1999/02/22-rdf-syntax-ns#"
   xmlns:svg="http://www.w3.org/2000/svg"
   xmlns="http://www.w3.org/2000/svg"
   viewBox="0 0 357.41251 187.02499"
   height="187.02499"
   width="357.41251"
   xml:space="preserve"
   version="1.1"
   id="svg2"><metadata
     id="metadata8"><rdf:RDF><cc:Work
         rdf:about=""><dc:format>image/svg+xml</dc:format><dc:type
           rdf:resource="http://purl.org/dc/dcmitype/StillImage" /></cc:Work></rdf:RDF></metadata><defs
     id="defs6" /><g
     transform="matrix(1.25,0,0,-1.25,0,187.025)"
     id="g10"><g
       transform="scale(0.1,0.1)"
       id="g12"><path
         id="path14"
         style="fill:#141212;fill-opacity:1;fill-rule:nonzero;stroke:none"
         d="M 275.09,1210.25 231.926,1044.6 c 2.715,0.11 5.437,0.4 8.164,0.88 12.027,2.09 25.965,10.4 41.797,24.95 19.91,18.13 35.332,36.52 46.265,55.14 10.942,18.63 16.368,35.88 16.313,51.76 -0.141,32.94 -16.574,46.58 -49.289,40.89 -9.09,-1.58 -15.789,-4.24 -20.086,-7.97 z m -50.695,-194.47 c -0.918,-3.29 -1.829,-6.94 -2.723,-10.95 -0.918,-4.02 -1.828,-7.775 -2.734,-11.307 -10.708,-40.14 -20.5,-72.918 -29.407,-98.312 -8.906,-25.402 -18.34,-47.277 -28.308,-65.625 -5.657,-11.106 -13.821,-23.242 -24.493,-36.418 27.633,-4.113 47.325,-6.477 59.071,-7.078 11.75,-0.61 23.429,0.094 35.039,2.113 13.43,2.336 25.32,6.508 35.652,12.524 10.356,6.011 20.063,14.507 29.121,25.488 13.379,16.293 24.231,34.812 32.578,55.543 8.34,20.722 12.485,40.121 12.407,58.183 -0.09,19.739 -6.621,35.356 -19.629,46.836 -6.391,5.633 -13.52,9.575 -21.36,11.825 -7.839,2.248 -18.703,3.378 -32.546,3.378 -12.739,0.43 -21.602,1.4 -26.602,2.93 -5.023,1.52 -10.371,5.15 -16.066,10.87 z M 75.1836,942.563 114.656,1079.52 c 7.657,24.61 16.907,48.91 27.754,72.92 -1.133,-0.43 -3.75,-2.22 -7.847,-5.34 -15.684,-9.47 -26.821,-14.78 -33.379,-15.92 -9.2973,-1.61 -13.9496,1.31 -13.977,8.78 -0.0312,7.96 3.5664,20.04 10.8008,36.25 7.2342,16.21 14.4922,28.68 21.7582,37.43 16.582,19.05 41.906,36.23 75.964,51.56 34.067,15.32 72.192,26.66 114.399,33.99 25.535,4.44 48.648,6.17 69.312,5.19 20.649,-0.99 38.301,-4.71 52.93,-11.18 14.641,-6.47 25.813,-15.41 33.508,-26.82 7.684,-11.41 11.582,-24.92 11.648,-40.53 0.09,-21.87 -4.16,-42.09 -12.754,-60.65 -8.589,-18.56 -22.207,-36.92 -40.835,-55.06 -20.684,-19.96 -40.254,-34.18 -58.704,-42.67 -2.05,-1.08 -5.578,-2.41 -10.593,-4.01 l 0.007,-1.8 c 79.93,3.04 120.032,-24.95 120.262,-83.976 0.063,-11.805 -1.773,-24.418 -5.484,-37.84 -3.703,-13.422 -9.133,-26.906 -16.274,-40.442 -7.129,-13.535 -15.691,-26.234 -25.679,-38.097 -21.582,-26.172 -47.207,-51.465 -76.899,-75.93 -29.707,-24.437 -59.566,-45.18 -89.629,-62.23 C 230.891,706.113 205.129,695.73 183.684,692 c -18.032,-3.133 -35.317,-3.973 -51.868,-2.52 -16.55,1.458 -29.753,4.875 -39.5972,10.247 -9.836,5.39 -14.7657,12.168 -14.8086,20.332 -0.0274,7.461 1.9336,14.773 5.8984,21.949 3.9687,7.191 11.2891,16.512 21.9644,27.984 l -1.378,1.207 c -6.1411,-3.59 -12.1841,-5.894 -18.1059,-6.922 -12.5352,-2.179 -22.6758,-0.078 -30.4453,6.301 -7.7657,6.379 -11.6836,16.219 -11.7422,29.5 -0.0157,7.481 3.0898,25.449 9.3593,53.875 6.2657,28.434 13.6797,57.977 22.2227,88.61" /><path
         id="path16"
         style="fill:#141212;fill-opacity:1;fill-rule:nonzero;stroke:none"
         d="m 714.855,1234.63 c 33.883,5.9 50.836,4.61 50.875,-3.84 0.04,-9.66 -7.527,-16.16 -22.71,-19.53 -18.352,-4.4 -35.43,-12.92 -51.25,-25.57 -15.832,-12.66 -29.875,-28.64 -42.153,-47.92 -12.281,-19.29 -21.824,-40.28 -28.64,-62.97 -6.829,-22.69 -10.184,-45.99 -10.079,-69.88 0.11,-26.318 5.977,-46.51 17.598,-60.545 11.621,-14.051 26.707,-19.453 45.305,-16.227 17.207,2.993 32.222,15.032 45.066,36.129 12.832,21.102 19.199,44.223 19.094,69.363 -0.078,20.54 -4.199,39.12 -12.324,55.74 -8.125,16.6 -19.922,29.72 -35.41,39.38 -6.606,4.41 -9.907,7.82 -9.914,10.25 -0.008,3.38 4.628,9.39 13.933,18.02 10.449,9.31 22.149,17.64 35.109,24.97 12.958,7.33 23.887,11.77 32.786,13.32 10.23,1.78 19.988,0.63 29.238,-3.44 9.234,-4.08 17.422,-10.75 24.519,-20.02 7.098,-9.28 12.559,-20.41 16.375,-33.4 3.832,-12.98 5.762,-27.21 5.832,-42.66 0.11,-25.59 -4.343,-51.68 -13.339,-78.26 -9.012,-26.575 -20.871,-48.876 -35.606,-66.892 -19.043,-22.882 -42.019,-42.886 -68.957,-60.015 -26.933,-17.121 -52.574,-27.797 -76.941,-32.031 -23.684,-4.118 -47.215,-3.856 -70.574,0.773 -23.379,4.629 -41.926,12.863 -55.645,24.727 -18.305,16.132 -27.523,41.937 -27.668,77.406 -0.117,27.984 6.238,57.092 19.094,87.332 12.832,30.23 30.293,58.67 52.359,85.32 22.07,26.65 46.445,48.88 73.11,66.67 26.66,17.79 53.628,29.06 80.917,33.8" /><path
         id="path18"
         style="fill:#141212;fill-opacity:1;fill-rule:nonzero;stroke:none"
         d="m 1077.01,1297.58 c 33.88,5.89 50.85,4.6 50.88,-3.84 0.04,-9.66 -7.53,-16.16 -22.7,-19.53 -18.36,-4.4 -35.43,-12.93 -51.26,-25.58 -15.83,-12.65 -29.88,-28.63 -42.15,-47.91 -12.276,-19.29 -21.831,-40.28 -28.643,-62.97 -6.828,-22.69 -10.176,-45.99 -10.078,-69.88 0.117,-26.32 5.972,-46.51 17.593,-60.55 11.628,-14.05 26.718,-19.457 45.308,-16.222 17.21,2.992 32.23,15.032 45.07,36.132 12.83,21.09 19.19,44.22 19.1,69.36 -0.1,20.54 -4.2,39.12 -12.33,55.73 -8.13,16.61 -19.93,29.73 -35.41,39.39 -6.6,4.41 -9.9,7.82 -9.92,10.25 -0.01,3.38 4.63,9.38 13.95,18.02 10.43,9.31 22.14,17.64 35.09,24.97 12.96,7.33 23.89,11.77 32.78,13.32 10.25,1.77 20,0.63 29.25,-3.45 9.24,-4.07 17.41,-10.74 24.52,-20.01 7.11,-9.29 12.56,-20.41 16.38,-33.4 3.81,-12.99 5.77,-27.21 5.82,-42.66 0.12,-25.6 -4.34,-51.68 -13.34,-78.26 -9,-26.58 -20.88,-48.88 -35.6,-66.89 -19.04,-22.881 -42.03,-42.889 -68.96,-60.018 -26.93,-17.121 -52.57,-27.797 -76.94,-32.031 -23.674,-4.117 -47.205,-3.863 -70.584,0.773 -23.371,4.629 -41.914,12.864 -55.625,24.727 -18.313,16.129 -27.523,41.937 -27.68,77.399 -0.113,27.98 6.25,57.1 19.082,87.33 12.856,30.24 30.293,58.68 52.383,85.33 22.07,26.65 46.438,48.87 73.109,66.66 26.655,17.8 53.625,29.07 80.905,33.81" /><path
         id="path20"
         style="fill:#141212;fill-opacity:1;fill-rule:nonzero;stroke:none"
         d="m 1538.62,950.215 c -31.68,-48.91 -55.84,-74.813 -72.44,-77.695 -12.07,-2.102 -24.78,0.687 -38.14,8.363 -13.36,7.676 -25.88,18.988 -37.56,33.945 -11.68,14.949 -20.98,31.703 -27.87,50.258 -6.92,18.551 -10.41,36.734 -10.49,54.544 -0.04,10.11 1.52,17.13 4.69,21.05 1.34,1.68 4.39,4.62 9.16,8.82 38,31.66 56.97,58.69 56.88,81.07 -0.05,11.8 -4.97,16.84 -14.77,15.14 -10.49,-1.82 -23.95,-14.79 -40.37,-38.89 -16.43,-24.12 -31.31,-52.7 -44.61,-85.75 -7.89,-20.82 -14.67,-34.367 -20.34,-40.632 -5.23,-5.715 -13.3,-9.516 -24.22,-11.415 -12.07,-2.093 -22.56,-0.378 -31.46,5.168 -8.93,5.539 -15.85,14.43 -20.8,26.679 -4.96,12.25 -7.46,26.78 -7.54,43.61 -0.1,25.95 2.85,54.84 8.89,86.66 6.03,31.83 14.52,64.21 25.47,97.13 10.93,32.91 23.98,65.48 39.16,97.7 15.16,32.22 31.03,61.07 47.6,86.56 32.69,49.43 64.66,76.88 95.93,82.31 15.53,2.7 29.42,1.38 41.66,-3.96 12.25,-5.34 21.7,-14.31 28.38,-26.87 6.68,-12.58 10.06,-28.01 10.14,-46.31 0.09,-22.39 -5.07,-45.64 -15.47,-69.73 -10.42,-24.09 -23.99,-44.65 -40.71,-61.64 -16.71,-17.01 -33.53,-26.97 -50.42,-29.9 -7.99,-1.4 -12,0.92 -12.03,6.95 -0.01,2.41 2.03,8.42 6.13,18.05 20.02,45.44 29.91,94.77 29.68,148.01 -0.05,13.73 -1.69,20.33 -4.9,19.77 -2.3,-0.4 -5.78,-4.5 -10.46,-12.3 -4.67,-7.8 -9.17,-17.13 -13.47,-28 -24.99,-63.84 -42.94,-135.49 -53.86,-214.96 -0.67,-4.21 -1.39,-9.76 -2.16,-16.64 -0.78,-6.88 -1.73,-14.75 -2.83,-23.61 l 1.38,-1.21 c 9.29,15.59 16.96,27.34 22.98,35.25 6.02,7.91 14.03,16.71 24.05,26.4 30.7,30.87 59.4,48.63 86.12,53.27 13.69,2.38 24.95,0.13 33.78,-6.75 8.82,-6.88 13.26,-16.93 13.32,-30.13 0.14,-32.44 -9.52,-67.53 -28.96,-105.29 -5.43,-11.04 -11.7,-22.11 -18.83,-33.2 -7.15,-11.1 -17.4,-25.63 -30.77,-43.58 8.25,-13.28 17.63,-26.47 28.16,-39.57 9.37,-11.398 21.13,-22.367 35.28,-32.925 12.29,-8.715 21.17,-17.301 26.64,-25.75" /><path
         id="path22"
         style="fill:#141212;fill-opacity:1;fill-rule:nonzero;stroke:none"
         d="m 538.918,694.902 4.734,13.457 c -7.531,-1.308 -13.925,-3.066 -19.172,-5.254 -5.234,-2.187 -11.382,-5.273 -18.433,-9.277 -8.664,-4.746 -14.594,-7.383 -17.777,-7.949 -3.883,-0.664 -7.086,0.332 -9.61,3.027 -2.515,2.676 -3.789,6.309 -3.805,10.86 -0.042,9.375 3.504,19.656 10.641,30.879 7.149,11.214 15.957,19.773 26.445,25.675 13.657,8.137 31.262,15.828 52.817,23.063 21.543,7.226 42.91,12.691 64.137,16.379 23.949,4.164 45.453,6.093 64.523,5.793 19.062,-0.297 36.023,-3.129 50.891,-8.496 14.863,-5.364 27.91,-12.965 39.136,-22.805 11.211,-9.856 19.895,-22.082 25.996,-36.66 6.118,-14.602 9.219,-30.676 9.289,-48.242 0.071,-15.879 -2.878,-34.211 -8.828,-54.981 -5.957,-20.801 -14.25,-41.504 -24.875,-62.129 -10.632,-20.637 -22.3,-38.554 -35,-53.769 -14.754,-17.735 -33.433,-33.801 -56.062,-48.211 -22.625,-14.41 -43.274,-23.231 -61.961,-26.481 -7.981,-1.383 -14.984,-1.109 -21.035,0.848 -6.059,1.973 -9.082,5.109 -9.106,9.449 -0.015,6.723 2.336,13.442 7.09,20.172 4.746,6.73 13.481,15.531 26.192,26.41 10.902,8.633 21.117,18.457 30.625,29.512 11.332,15.203 19.628,30.73 24.914,46.582 5.285,15.84 7.89,34.101 7.8,54.785 -0.078,19.727 -3.316,35.887 -9.707,48.496 -6.406,12.617 -16.734,23.086 -31.035,31.445 l -46.387,-168.457 -8.457,-29.648 c -3.628,-11.719 -8.472,-31.586 -14.531,-59.613 -11.031,-48.391 -21.414,-82.481 -31.148,-102.231 -4.297,-8.703 -9.864,-17.492 -16.66,-26.383 -10.918,-12.019 -24.746,-23.277 -41.489,-33.769 -16.734,-10.508 -31.148,-16.801 -43.242,-18.899 -7.976,-1.39 -14.324,-0.019 -19.019,4.098 -4.692,4.121 -7.051,10.641 -7.09,19.551 -0.051,9.871 2.222,24.699 6.824,44.519 4.59,19.813 14.082,55.532 28.469,107.133 l 6.074,21.27 6.402,23.129 61.43,206.722" /><path
         id="path24"
         style="fill:#141212;fill-opacity:1;fill-rule:nonzero;stroke:none"
         d="m 982.969,629.539 c 8.894,28.625 16.328,58.274 22.291,88.918 5.96,30.648 8.91,53.875 8.85,69.691 -0.02,4.317 -1.16,6.274 -3.43,5.883 -3.62,-0.629 -9.91,-10.308 -18.871,-29.027 -8.965,-18.727 -16.465,-37.484 -22.5,-56.293 -12.942,-41.387 -22.93,-75.586 -29.934,-102.598 -7.02,-27.031 -11.836,-49.531 -14.473,-67.519 -2.644,-17.981 -3.918,-36.086 -3.839,-54.313 0.058,-15.59 1.757,-26.703 5.082,-33.32 3.32,-6.633 8.621,-9.301 15.898,-8.031 12.5,2.172 26.441,10.422 41.844,24.761 15.398,14.34 29.303,32.094 41.743,53.266 9.7,15.879 17.28,24.297 22.74,25.234 7.03,1.231 10.59,-4.054 10.63,-15.851 0.11,-25.77 -7.41,-52.262 -22.56,-79.461 -15.16,-27.219 -34.73,-50.57 -58.698,-70.02 -23.965,-19.461 -48.465,-31.371 -73.523,-35.718 -30.742,-5.36 -55.852,0.5 -75.293,17.55 -19.446,17.047 -29.231,42.047 -29.375,74.981 -0.11,26.906 5.222,59.387 15.984,97.453 10.781,38.078 25.258,77.004 43.418,116.848 18.164,39.824 38.117,76.543 59.848,110.136 21.726,33.586 43.262,60.176 64.59,79.758 13.14,12.629 27.809,20.344 43.959,23.153 12.31,2.136 23.48,0.05 33.52,-6.239 10.06,-6.301 17.83,-16.176 23.36,-29.617 5.53,-13.453 8.32,-28.926 8.4,-46.437 0.15,-37.668 -6.67,-75.715 -20.47,-114.125 -13.8,-38.407 -33.13,-72.989 -57.98,-103.7 -11.75,-14.777 -23.059,-26.711 -33.914,-35.8 C 969.402,520 959.895,514.766 951.73,513.34 c -7.953,-1.379 -11.933,1.16 -11.957,7.625 -0.015,3.594 2.883,10.93 8.704,22.023 7.824,14.539 16.992,36.024 27.468,64.473 0.903,2.793 1.899,5.781 3.02,8.965 1.101,3.183 2.453,7.566 4.004,13.113" /><path
         id="path26"
         style="fill:#141212;fill-opacity:1;fill-rule:nonzero;stroke:none"
         d="m 1190.14,506.719 c 10.59,9.316 18.63,18.203 24.15,26.64 12.17,17.813 21.56,37.422 28.18,58.848 5.24,14.18 9.35,29.746 12.29,46.66 2.93,16.922 4.36,32.5 4.29,46.738 -0.05,13.25 -2.73,19.434 -8.04,18.516 -7.39,-1.289 -18.62,-20.273 -33.72,-56.914 -8.91,-22.07 -16.15,-43.789 -21.71,-65.148 -5.59,-21.356 -8.33,-39.403 -8.27,-54.11 0.02,-5.058 0.96,-12.14 2.83,-21.23 z m 0.73,-11.43 c 2.57,-14.199 11.52,-19.961 26.85,-17.301 17.17,2.992 39.42,17.422 66.79,43.328 15.96,15.032 26.69,23.028 32.18,23.977 6.85,1.199 13.27,0.391 19.24,-2.434 5.95,-2.82 8.95,-6.257 8.96,-10.339 0.02,-4.336 -3.26,-10.559 -9.85,-18.672 -12.05,-14.844 -25.92,-29.719 -41.61,-44.586 -15.71,-14.891 -30.84,-27.621 -45.41,-38.223 -14.58,-10.59 -29.16,-19.5 -43.75,-26.719 -14.59,-7.23 -27.59,-11.84 -38.99,-13.808 -28.55,-4.961 -51.4,-0.321 -68.6,13.937 -17.2,14.262 -25.84,35.742 -25.97,64.442 -0.08,21.929 4.32,47.476 13.23,76.656 8.9,29.16 20.95,57.137 36.15,83.906 17.92,31.348 39.98,58.692 66.16,82.07 32.33,28.282 63.35,45.02 93.04,50.18 21.46,3.731 38.34,-0.512 50.61,-12.73 12.28,-12.215 18.47,-30.86 18.59,-55.907 0.07,-19.523 -4.71,-40.742 -14.36,-63.632 -9.63,-22.891 -23.92,-45.754 -42.83,-68.575 -15.51,-19.101 -30.74,-34.531 -45.7,-46.289 -14.95,-11.769 -28.05,-18.621 -39.26,-20.57 -5.04,-0.879 -10.2,-0.449 -15.47,1.289" /><path
         id="path28"
         style="fill:#141212;fill-opacity:1;fill-rule:nonzero;stroke:none"
         d="m 1608.99,655.605 -6.48,-3.3 c -16.39,-7.657 -28.22,-12.129 -35.5,-13.391 -8.88,-1.551 -13.33,0.078 -13.35,4.895 -0.01,1.679 1.77,6.445 5.35,14.296 12.52,22.625 18.75,42.958 18.68,60.997 -0.04,10.332 -1.8,19.472 -5.28,27.414 -3.47,7.937 -7.26,11.554 -11.39,10.836 -3.67,-0.633 -9.27,-5.704 -16.79,-15.196 -21.21,-27.996 -38.01,-55.808 -50.39,-83.484 -12.38,-27.656 -18.53,-51.465 -18.44,-71.426 0.06,-13.223 2.68,-23.723 7.87,-31.484 5.2,-7.754 11.7,-10.957 19.48,-9.602 6.65,1.164 19.06,10.774 37.22,28.86 18.16,18.066 38.55,41.347 61.15,69.832 l 9.24,9.543 -1.37,1.21 z m -20.86,-86.535 0,-1.445 -1.36,1.203 c -21.09,-29.922 -40.41,-54.777 -58,-74.566 -17.59,-19.813 -33.82,-35.184 -48.7,-46.141 -14.9,-10.93 -28.61,-17.519 -41.13,-19.68 -25.52,-4.441 -46.64,0.93 -63.34,16.09 -16.7,15.16 -25.11,36.59 -25.23,64.285 -0.07,17.09 3.95,38.039 12.06,62.805 8.11,24.785 19.3,49.629 33.58,74.512 23.78,40.762 53.75,77.051 89.9,108.875 37.28,32.738 73.26,52.129 107.93,58.156 29.18,5.07 53.21,2.895 72.07,-6.516 18.87,-9.414 28.34,-23.789 28.43,-43.105 0.05,-14.254 -4.55,-30.164 -13.84,-47.734 12.3,2.14 20.06,2.101 23.25,-0.106 3.19,-2.226 4.81,-8.379 4.86,-18.476 -0.01,0.957 -0.54,-4.082 -1.6,-15.09 -1.23,-24.051 -1.79,-46.414 -1.71,-67.117 0.05,-10.832 0.2,-18.985 0.45,-24.473 0.26,-5.508 0.74,-11.797 1.47,-18.887 0.72,-7.109 1.43,-12.754 2.15,-16.972 1.87,-10.997 4.92,-21.653 9.11,-31.993 -13.68,-16.593 -26.79,-29.273 -39.34,-38.086 -12.55,-8.8 -25.34,-14.339 -38.39,-16.597 -35.22,-6.121 -52.97,21.867 -53.23,83.968 -0.03,7.219 0.17,12.922 0.61,17.09" /><path
         id="path30"
         style="fill:#141212;fill-opacity:1;fill-rule:nonzero;stroke:none"
         d="m 1825.35,489.82 c 13.55,3.071 25.87,12.133 36.96,27.172 11.09,15.039 16.61,30.242 16.55,45.625 -0.05,10.574 -3.44,18.406 -10.14,23.504 -7.18,6.203 -23.1,10.774 -47.81,13.692 -36.39,4.738 -60.09,13.019 -71.12,24.835 -10.32,9.297 -15.51,21.641 -15.58,37.051 -0.12,27.684 9.3,57.031 28.24,88.016 18.95,30.996 43.2,57.93 72.81,80.781 29.59,22.848 59.46,36.891 89.59,42.129 14.61,2.539 28.32,1.309 41.14,-3.68 12.81,-4.992 23,-12.785 30.59,-23.371 7.57,-10.594 11.4,-22.871 11.46,-36.812 0.06,-13.707 -3.99,-28.602 -12.13,-44.692 -8.13,-16.09 -18.39,-30.086 -30.76,-41.98 -12.38,-11.895 -24.14,-18.809 -35.3,-20.754 -6.38,-1.102 -11.91,-0.633 -16.59,1.437 -4.69,2.059 -7.02,4.774 -7.04,8.145 -0.02,3.34 0.88,8.418 2.7,15.215 4.96,21.5 7.42,39.922 7.34,55.265 -0.06,15.11 -4.47,28.622 -13.24,40.54 -11.19,-10.118 -18.5,-17.868 -21.92,-23.262 -8.65,-12.074 -15.37,-25.246 -20.11,-39.512 -5.22,-14.594 -7.8,-28.004 -7.75,-40.238 0.04,-8.645 1.98,-15.215 5.81,-19.707 3.85,-4.492 10.06,-7.793 18.64,-9.922 8.59,-2.121 21.56,-3.848 38.95,-5.156 29.03,-2.422 49.5,-6.094 61.42,-11.016 2.73,-1.211 6.97,-3.945 12.7,-8.262 8.7,-8.359 13.1,-20.363 13.18,-35.996 0.05,-16.613 -4.78,-34.238 -14.53,-52.91 -9.75,-18.672 -24.86,-38.809 -45.32,-60.43 -21.83,-23.289 -43.59,-41.039 -65.23,-53.246 -21.66,-12.172 -45.61,-20.551 -71.87,-25.109 -25.34,-4.422 -45.28,-2.594 -59.83,5.469 -14.54,8.039 -21.86,21.199 -21.94,39.449 -0.04,12.98 4.67,26.953 14.16,41.953 9.48,14.988 21.31,27.93 35.47,38.809 14.16,10.859 28.07,17.5 41.71,19.863 10.23,1.777 15.34,0.262 15.36,-4.531 0.02,-2.403 -1.44,-6.621 -4.35,-12.657 -8.75,-18.339 -13.09,-34.589 -13.03,-48.75 0.04,-10.097 3.64,-19.074 10.81,-26.957" /><path
         id="path32"
         style="fill:#141212;fill-opacity:1;fill-rule:nonzero;stroke:none"
         d="m 2230.4,688.836 -5.77,-6.055 c -1.14,-0.918 -8.73,-8.379 -22.78,-22.371 -27.19,-27.344 -49.63,-49.113 -67.33,-65.293 -17.67,-16.183 -32.42,-28.371 -44.22,-36.554 -11.79,-8.192 -21.34,-12.918 -28.61,-14.18 -12.28,-2.137 -22.13,1.504 -29.57,10.93 -7.44,9.394 -11.19,22.656 -11.27,39.726 -0.12,28.836 3.84,63.145 11.87,102.918 8.04,39.777 18.93,79.492 32.66,119.18 15.1,43.996 33.65,72.484 55.7,85.472 7.74,4.95 16.84,8.336 27.33,10.157 14.33,2.492 25.97,-0.196 34.89,-8.036 8.92,-7.847 13.41,-19.476 13.49,-34.886 0.21,-10.574 -1.39,-22.028 -4.81,-34.387 -3.42,-12.359 -8.9,-27.352 -16.46,-44.988 l -4.12,-11.153 c -19.44,-47.207 -29.12,-75.488 -29.09,-84.863 0.02,-5.539 1.86,-7.98 5.51,-7.344 3.42,0.594 7.85,3.887 13.3,9.883 5.46,5.985 13.86,16.699 25.22,32.129 7.03,10.352 17.04,23.5 30,39.445 l 12.62,15.536 10.89,14.14 c 22.97,28.016 41.74,48.633 56.31,61.856 14.56,13.222 26.64,20.668 36.23,22.336 18.26,3.175 27.47,-11.946 27.62,-45.364 0.02,-6.972 -0.74,-19.492 -2.3,-37.57 -2.68,-35.113 -3.97,-64.695 -3.87,-88.719 0.25,-4.785 0.45,-9.133 0.58,-13.086 0.13,-3.945 0.22,-9.043 0.25,-15.293 1.7,-15.82 2.93,-28.007 3.68,-36.523 l 2.55,-20.129 c 0.03,-7.215 -6.12,-14.656 -18.43,-22.332 -12.32,-7.676 -26.59,-12.93 -42.81,-15.742 -14.87,-2.578 -27.62,-1.731 -38.26,2.578 -10.65,4.285 -18.74,11.98 -24.28,23.074 -5.53,11.094 -8.33,25.313 -8.4,42.668 -0.02,2.168 0.18,5.996 0.56,11.484 0.38,5.489 0.75,12.618 1.12,21.356" /><path
         id="path34"
         style="fill:#141212;fill-opacity:1;fill-rule:nonzero;stroke:none"
         d="m 2490.15,731.113 -1.33,-7.441 c 0.02,-4.102 -0.41,-10.078 -1.29,-17.93 -0.86,-11.933 -2.07,-21.777 -3.64,-29.512 -1.57,-7.726 -3.94,-14.335 -7.12,-19.824 -3.17,-5.488 -7.48,-11.465 -12.93,-17.949 -16.59,-19.004 -33.33,-29.961 -50.22,-32.902 -13.7,-2.383 -23.83,1.144 -30.37,10.617 -6.54,9.453 -9.86,25.957 -9.96,49.551 -0.08,18.757 1.82,42.265 5.69,70.496 3.88,28.238 8.63,53.804 14.24,76.691 l 2.7,9.852 c -0.01,1.445 0.66,4.578 2.01,9.386 8.3,34.184 15.95,59.766 22.96,76.747 6.99,16.988 15.51,31.171 25.5,42.543 8.85,9 18.89,14.48 30.07,16.421 16.19,2.813 26.04,-5.836 29.55,-25.941 3.18,3.445 6.25,7.352 9.21,11.723 6.61,9.578 11.72,16.07 15.37,19.472 3.65,3.403 7.87,5.524 12.67,6.36 19.67,3.418 29.59,-15.352 29.77,-56.317 0.09,-22.414 -2.1,-44.5 -6.56,-66.25 -4.46,-21.75 -10.12,-39.859 -17.01,-54.312 -6.87,-14.469 -13.73,-22.281 -20.54,-23.469 -7.51,-1.305 -11.33,13.098 -11.46,43.227 -0.07,15.91 -1,28.218 -2.8,36.949 -1.81,8.73 -4.6,15.301 -8.39,19.711 -6.77,-14.657 -11.08,-46.211 -12.92,-94.649 -1.48,-28.168 -2.54,-45.925 -3.2,-53.25" /><path
         id="path36"
         style="fill:#141212;fill-opacity:1;fill-rule:nonzero;stroke:none"
         d="m 2700.98,769.324 c 10.59,9.317 18.64,18.196 24.16,26.641 12.16,17.805 21.55,37.422 28.17,58.848 5.25,14.179 9.35,29.738 12.29,46.66 2.93,16.918 4.36,32.496 4.3,46.73 -0.06,13.262 -2.74,19.438 -8.04,18.516 -7.4,-1.285 -18.63,-20.258 -33.72,-56.91 -8.92,-22.067 -16.16,-43.782 -21.72,-65.149 -5.58,-21.359 -8.33,-39.402 -8.27,-54.109 0.02,-5.063 0.97,-12.133 2.83,-21.227 z m 0.73,-11.433 c 2.58,-14.2 11.52,-19.961 26.86,-17.297 17.16,2.984 39.42,17.422 66.78,43.328 15.97,15.027 26.69,23.023 32.19,23.98 6.85,1.196 13.27,0.379 19.23,-2.437 5.96,-2.82 8.95,-6.262 8.97,-10.344 0.02,-4.336 -3.27,-10.558 -9.85,-18.676 -12.05,-14.843 -25.92,-29.707 -41.62,-44.59 -15.71,-14.882 -30.84,-27.617 -45.4,-38.203 -14.58,-10.605 -29.16,-19.511 -43.75,-26.73 -14.6,-7.234 -27.6,-11.824 -39,-13.817 -28.54,-4.96 -51.4,-0.312 -68.59,13.954 -17.2,14.257 -25.85,35.734 -25.97,64.425 -0.09,21.938 4.31,47.489 13.22,76.664 8.9,29.168 20.95,57.137 36.16,83.911 17.92,31.339 39.97,58.691 66.15,82.062 32.33,28.289 63.35,45.019 93.04,50.179 21.46,3.74 38.34,-0.51 50.62,-12.73 12.28,-12.215 18.47,-30.847 18.58,-55.906 0.07,-19.519 -4.71,-40.734 -14.35,-63.629 -9.64,-22.894 -23.92,-45.754 -42.84,-68.574 -15.5,-19.098 -30.73,-34.531 -45.69,-46.293 -14.96,-11.766 -28.05,-18.613 -39.26,-20.563 -5.05,-0.878 -10.2,-0.449 -15.48,1.286" /><path
         id="path38"
         style="fill:#141212;fill-opacity:1;fill-rule:nonzero;stroke:none"
         d="m 1614.99,887.57 c 0,0 7.53,237.72 186.51,278.11 178.98,40.42 235.49,-47.95 593.77,25.06 216.89,44.19 279.42,162.05 279.42,162.05 l -8.03,-101.8 c 0,0 -79.87,-114.25 -276.59,-158.36 -284.71,-63.84 -472.76,6.14 -562.97,-11.4 -90.28,-17.54 -145.78,-80.01 -200.62,-168.644 l -11.49,-25.016" /><path
         id="path40"
         style="fill:#141212;fill-opacity:1;fill-rule:nonzero;stroke:none"
         d="m 2334.9,1211.02 c 0,0 185.08,56.21 245.41,154.29 l 3.38,118.05 c -72.7,-125.59 -203.39,-219.14 -331.26,-290.47 l 82.47,18.13" /><path
         id="path42"
         style="fill:#141212;fill-opacity:1;fill-rule:nonzero;stroke:none"
         d="m 1381.74,2.5 c 0,0 -89.29,275.84 -322.62,265.84 C 837.668,258.852 817.461,139.738 376.57,113.43 109.688,97.4609 0,215.559 0,215.559 l 29.1094,-88.887 c 0,0 140.7856,-135.91028 384.0936,-126.160281 C 765.359,14.6484 938.281,164.078 1049.11,171.672 1159.92,179.309 1268.9,114.48 1360.49,28.0781 L 1381.74,2.5" /><path
         id="path44"
         style="fill:#141212;fill-opacity:1;fill-rule:nonzero;stroke:none"
         d="m 440.188,163.828 c 0,0 -233.528,9.453 -333.887,105.762 L 66.4922,406.559 C 189.707,281.859 370.879,212.219 542.09,167.699 l -101.902,-3.871" /><path
         id="path46"
         style="fill:#141212;fill-opacity:1;fill-rule:nonzero;stroke:none"
         d="m 2299.12,1253.34 c 0,0 114.99,61.66 139.99,116.66 l -8.33,83.33 c 0,0 -35,-99.99 -131.66,-199.99" /></g></g></svg>